<?xml version="1.0" encoding="UTF-8" standalone="no"?>
<!DOCTYPE svg PUBLIC "-//W3C//DTD SVG 1.1//EN"
 "http://www.w3.org/Graphics/SVG/1.1/DTD/svg11.dtd">
<!-- Generated by graphviz version 8.0.5 (20230430.1635)
 -->
<!-- Title: textX Pages: 1 -->
<svg width="230pt" height="357pt"
 viewBox="0.00 0.00 229.62 357.25" xmlns="http://www.w3.org/2000/svg" xmlns:xlink="http://www.w3.org/1999/xlink">
<g id="graph0" class="graph" transform="scale(1 1) rotate(0) translate(4 353.25)">
<title>textX</title>
<polygon fill="white" stroke="none" points="-4,4 -4,-353.25 225.62,-353.25 225.62,4 -4,4"/>
<!-- 2332799107912 -->
<g id="node1" class="node">
<title>2332799107912</title>
<polygon fill="aliceblue" stroke="black" points="30.12,-301.25 30.12,-348.75 121.12,-348.75 121.12,-301.25 30.12,-301.25"/>
<text text-anchor="middle" x="75.62" y="-331.45" font-family="Times New Roman,serif" font-size="14.00">0:Assignment</text>
<polyline fill="none" stroke="black" points="30.12,-325 121.12,-325"/>
<text text-anchor="middle" x="75.62" y="-307.7" font-family="Times New Roman,serif" font-size="14.00"> </text>
</g>
<!-- 2332783708744 -->
<g id="node2" class="node">
<title>2332783708744</title>
<polygon fill="aliceblue" stroke="black" points="33.5,-201 33.5,-248.5 117.75,-248.5 117.75,-201 33.5,-201"/>
<text text-anchor="middle" x="75.62" y="-231.2" font-family="Times New Roman,serif" font-size="14.00">:Abstraction</text>
<polyline fill="none" stroke="black" points="33.5,-224.75 117.75,-224.75"/>
<text text-anchor="middle" x="75.62" y="-207.45" font-family="Times New Roman,serif" font-size="14.00"> </text>
</g>
<!-- 2332799107912&#45;&gt;2332783708744 -->
<g id="edge1" class="edge">
<title>2332799107912&#45;&gt;2332783708744</title>
<path fill="none" stroke="black" d="M75.62,-288.88C75.62,-279.17 75.62,-268.66 75.62,-259.05"/>
<polygon fill="black" stroke="black" points="75.63,-288.8 79.63,-294.8 75.63,-300.8 71.63,-294.8 75.63,-288.8"/>
<polygon fill="black" stroke="black" points="79.13,-259.3 75.62,-249.3 72.13,-259.3 79.13,-259.3"/>
<text text-anchor="middle" x="105.62" y="-269.45" font-family="Times New Roman,serif" font-size="14.00">expression</text>
</g>
<!-- 2332788861576 -->
<g id="node3" class="node">
<title>2332788861576</title>
<polygon fill="aliceblue" stroke="black" points="0,-100.75 0,-148.25 69.25,-148.25 69.25,-100.75 0,-100.75"/>
<text text-anchor="middle" x="34.62" y="-130.95" font-family="Times New Roman,serif" font-size="14.00">f:Variable</text>
<polyline fill="none" stroke="black" points="0,-124.5 69.25,-124.5"/>
<text text-anchor="middle" x="34.62" y="-107.2" font-family="Times New Roman,serif" font-size="14.00"> </text>
</g>
<!-- 2332783708744&#45;&gt;2332788861576 -->
<g id="edge2" class="edge">
<title>2332783708744&#45;&gt;2332788861576</title>
<path fill="none" stroke="black" d="M46.9,-190.37C45.39,-187.79 44.02,-185.16 42.88,-182.5 39.72,-175.2 37.74,-166.93 36.49,-159.01"/>
<polygon fill="black" stroke="black" points="46.98,-190.49 53.67,-193.2 53.73,-200.41 47.05,-197.7 46.98,-190.49"/>
<polygon fill="black" stroke="black" points="39.85,-158.67 35.18,-149.16 32.9,-159.51 39.85,-158.67"/>
<text text-anchor="middle" x="71" y="-169.2" font-family="Times New Roman,serif" font-size="14.00">parameter</text>
</g>
<!-- 2332798951240 -->
<g id="node4" class="node">
<title>2332798951240</title>
<polygon fill="aliceblue" stroke="black" points="91.5,-100.75 91.5,-148.25 175.75,-148.25 175.75,-100.75 91.5,-100.75"/>
<text text-anchor="middle" x="133.62" y="-130.95" font-family="Times New Roman,serif" font-size="14.00">:Abstraction</text>
<polyline fill="none" stroke="black" points="91.5,-124.5 175.75,-124.5"/>
<text text-anchor="middle" x="133.62" y="-107.2" font-family="Times New Roman,serif" font-size="14.00"> </text>
</g>
<!-- 2332783708744&#45;&gt;2332798951240 -->
<g id="edge3" class="edge">
<title>2332783708744&#45;&gt;2332798951240</title>
<path fill="none" stroke="black" d="M95.37,-190.31C101.66,-179.64 108.61,-167.87 114.84,-157.32"/>
<polygon fill="black" stroke="black" points="95.34,-190.35 95.74,-197.55 89.24,-200.68 88.85,-193.48 95.34,-190.35"/>
<polygon fill="black" stroke="black" points="118.25,-159.44 120.32,-149.05 112.22,-155.88 118.25,-159.44"/>
<text text-anchor="middle" x="137.62" y="-169.2" font-family="Times New Roman,serif" font-size="14.00">expression</text>
</g>
<!-- 2332799182920 -->
<g id="node5" class="node">
<title>2332799182920</title>
<polygon fill="aliceblue" stroke="black" points="50.88,-0.5 50.88,-48 122.38,-48 122.38,-0.5 50.88,-0.5"/>
<text text-anchor="middle" x="86.62" y="-30.7" font-family="Times New Roman,serif" font-size="14.00">x:Variable</text>
<polyline fill="none" stroke="black" points="50.88,-24.25 122.38,-24.25"/>
<text text-anchor="middle" x="86.62" y="-6.95" font-family="Times New Roman,serif" font-size="14.00"> </text>
</g>
<!-- 2332798951240&#45;&gt;2332799182920 -->
<g id="edge4" class="edge">
<title>2332798951240&#45;&gt;2332799182920</title>
<path fill="none" stroke="black" d="M103.54,-90.42C101.81,-87.75 100.23,-85.02 98.88,-82.25 95.26,-74.88 92.71,-66.45 90.9,-58.38"/>
<polygon fill="black" stroke="black" points="103.61,-90.52 110.39,-92.99 110.72,-100.19 103.94,-97.72 103.61,-90.52"/>
<polygon fill="black" stroke="black" points="94.19,-57.91 88.88,-48.73 87.31,-59.21 94.19,-57.91"/>
<text text-anchor="middle" x="126" y="-68.95" font-family="Times New Roman,serif" font-size="14.00">parameter</text>
</g>
<!-- 2332799184648 -->
<g id="node6" class="node">
<title>2332799184648</title>
<polygon fill="aliceblue" stroke="black" points="144.88,-0.5 144.88,-48 216.38,-48 216.38,-0.5 144.88,-0.5"/>
<text text-anchor="middle" x="180.62" y="-30.7" font-family="Times New Roman,serif" font-size="14.00">x:Variable</text>
<polyline fill="none" stroke="black" points="144.88,-24.25 216.38,-24.25"/>
<text text-anchor="middle" x="180.62" y="-6.95" font-family="Times New Roman,serif" font-size="14.00"> </text>
</g>
<!-- 2332798951240&#45;&gt;2332799184648 -->
<g id="edge5" class="edge">
<title>2332798951240&#45;&gt;2332799184648</title>
<path fill="none" stroke="black" d="M151.21,-89.23C152.38,-86.87 153.53,-84.53 154.62,-82.25 158.45,-74.33 162.45,-65.72 166.13,-57.66"/>
<polygon fill="black" stroke="black" points="151.14,-89.36 152.03,-96.52 145.76,-100.09 144.88,-92.93 151.14,-89.36"/>
<polygon fill="black" stroke="black" points="169.65,-59.38 170.6,-48.82 163.28,-56.48 169.65,-59.38"/>
<text text-anchor="middle" x="191.62" y="-68.95" font-family="Times New Roman,serif" font-size="14.00">expression</text>
</g>
</g>
</svg>
