<?xml version="1.0" encoding="UTF-8" standalone="no"?>
<!DOCTYPE svg PUBLIC "-//W3C//DTD SVG 1.1//EN"
 "http://www.w3.org/Graphics/SVG/1.1/DTD/svg11.dtd">
<!-- Generated by graphviz version 3.0.0 (20220226.1711)
 -->
<!-- Title: textX Pages: 1 -->
<svg width="448pt" height="447pt"
 viewBox="0.00 0.00 447.50 447.00" xmlns="http://www.w3.org/2000/svg" xmlns:xlink="http://www.w3.org/1999/xlink">
<g id="graph0" class="graph" transform="scale(1 1) rotate(0) translate(4 443)">
<title>textX</title>
<polygon fill="white" stroke="transparent" points="-4,4 -4,-443 443.5,-443 443.5,4 -4,4"/>
<!-- 1780684492800 -->
<g id="node1" class="node">
<title>1780684492800</title>
<polygon fill="aliceblue" stroke="black" points="142.5,-392.5 142.5,-438.5 226.5,-438.5 226.5,-392.5 142.5,-392.5"/>
<text text-anchor="middle" x="184.5" y="-423.3" font-family="Times New Roman,serif" font-size="14.00">:Application</text>
<polyline fill="none" stroke="black" points="142.5,-415.5 226.5,-415.5 "/>
<text text-anchor="middle" x="184.5" y="-400.3" font-family="Times New Roman,serif" font-size="14.00"> </text>
</g>
<!-- 1780684492608 -->
<g id="node2" class="node">
<title>1780684492608</title>
<polygon fill="aliceblue" stroke="black" points="89,-294.5 89,-340.5 174,-340.5 174,-294.5 89,-294.5"/>
<text text-anchor="middle" x="131.5" y="-325.3" font-family="Times New Roman,serif" font-size="14.00">:Abstraction</text>
<polyline fill="none" stroke="black" points="89,-317.5 174,-317.5 "/>
<text text-anchor="middle" x="131.5" y="-302.3" font-family="Times New Roman,serif" font-size="14.00"> </text>
</g>
<!-- 1780684492800&#45;&gt;1780684492608 -->
<g id="edge1" class="edge">
<title>1780684492800&#45;&gt;1780684492608</title>
<path fill="none" stroke="black" d="M166.24,-381.43C160.55,-371.12 154.29,-359.78 148.67,-349.6"/>
<polygon fill="black" stroke="black" points="166.41,-381.73 172.81,-385.05 172.21,-392.23 165.81,-388.91 166.41,-381.73"/>
<polygon fill="black" stroke="black" points="151.62,-347.71 143.73,-340.64 145.49,-351.09 151.62,-347.71"/>
<text text-anchor="middle" x="170.5" y="-362.8" font-family="Times New Roman,serif" font-size="14.00">left</text>
</g>
<!-- 1780684491936 -->
<g id="node9" class="node">
<title>1780684491936</title>
<polygon fill="aliceblue" stroke="black" points="196,-294.5 196,-340.5 281,-340.5 281,-294.5 196,-294.5"/>
<text text-anchor="middle" x="238.5" y="-325.3" font-family="Times New Roman,serif" font-size="14.00">:Abstraction</text>
<polyline fill="none" stroke="black" points="196,-317.5 281,-317.5 "/>
<text text-anchor="middle" x="238.5" y="-302.3" font-family="Times New Roman,serif" font-size="14.00"> </text>
</g>
<!-- 1780684492800&#45;&gt;1780684491936 -->
<g id="edge8" class="edge">
<title>1780684492800&#45;&gt;1780684491936</title>
<path fill="none" stroke="black" d="M203.1,-381.43C208.9,-371.12 215.28,-359.78 221.01,-349.6"/>
<polygon fill="black" stroke="black" points="202.91,-381.78 203.45,-388.97 197.02,-392.23 196.48,-385.04 202.91,-381.78"/>
<polygon fill="black" stroke="black" points="224.19,-351.08 226.04,-340.64 218.09,-347.64 224.19,-351.08"/>
<text text-anchor="middle" x="228" y="-362.8" font-family="Times New Roman,serif" font-size="14.00">right</text>
</g>
<!-- 1780684491984 -->
<g id="node3" class="node">
<title>1780684491984</title>
<polygon fill="aliceblue" stroke="black" points="0,-196.5 0,-242.5 71,-242.5 71,-196.5 0,-196.5"/>
<text text-anchor="middle" x="35.5" y="-227.3" font-family="Times New Roman,serif" font-size="14.00">s:Variable</text>
<polyline fill="none" stroke="black" points="0,-219.5 71,-219.5 "/>
<text text-anchor="middle" x="35.5" y="-204.3" font-family="Times New Roman,serif" font-size="14.00"> </text>
</g>
<!-- 1780684492608&#45;&gt;1780684491984 -->
<g id="edge2" class="edge">
<title>1780684492608&#45;&gt;1780684491984</title>
<path fill="none" stroke="black" d="M85.86,-287.06C81.5,-283.54 77.3,-279.83 73.5,-276 66.24,-268.67 59.47,-259.8 53.71,-251.31"/>
<polygon fill="black" stroke="black" points="85.99,-287.16 93.19,-287.61 95.54,-294.42 88.35,-293.98 85.99,-287.16"/>
<polygon fill="black" stroke="black" points="56.49,-249.16 48.1,-242.69 50.62,-252.98 56.49,-249.16"/>
<text text-anchor="middle" x="101" y="-264.8" font-family="Times New Roman,serif" font-size="14.00">parameter</text>
</g>
<!-- 1780683230464 -->
<g id="node4" class="node">
<title>1780683230464</title>
<polygon fill="aliceblue" stroke="black" points="93,-196.5 93,-242.5 178,-242.5 178,-196.5 93,-196.5"/>
<text text-anchor="middle" x="135.5" y="-227.3" font-family="Times New Roman,serif" font-size="14.00">:Abstraction</text>
<polyline fill="none" stroke="black" points="93,-219.5 178,-219.5 "/>
<text text-anchor="middle" x="135.5" y="-204.3" font-family="Times New Roman,serif" font-size="14.00"> </text>
</g>
<!-- 1780684492608&#45;&gt;1780683230464 -->
<g id="edge3" class="edge">
<title>1780684492608&#45;&gt;1780683230464</title>
<path fill="none" stroke="black" d="M132.93,-282.22C133.33,-272.65 133.76,-262.29 134.15,-252.84"/>
<polygon fill="black" stroke="black" points="132.93,-282.24 136.67,-288.41 132.43,-294.23 128.68,-288.07 132.93,-282.24"/>
<polygon fill="black" stroke="black" points="137.66,-252.78 134.58,-242.64 130.66,-252.49 137.66,-252.78"/>
<text text-anchor="middle" x="165" y="-264.8" font-family="Times New Roman,serif" font-size="14.00">expression</text>
</g>
<!-- 1780683230512 -->
<g id="node5" class="node">
<title>1780683230512</title>
<polygon fill="aliceblue" stroke="black" points="16,-98.5 16,-144.5 85,-144.5 85,-98.5 16,-98.5"/>
<text text-anchor="middle" x="50.5" y="-129.3" font-family="Times New Roman,serif" font-size="14.00">t:Variable</text>
<polyline fill="none" stroke="black" points="16,-121.5 85,-121.5 "/>
<text text-anchor="middle" x="50.5" y="-106.3" font-family="Times New Roman,serif" font-size="14.00"> </text>
</g>
<!-- 1780683230464&#45;&gt;1780683230512 -->
<g id="edge4" class="edge">
<title>1780683230464&#45;&gt;1780683230512</title>
<path fill="none" stroke="black" d="M92.92,-188.47C89.22,-185.13 85.68,-181.62 82.5,-178 76.09,-170.7 70.32,-161.91 65.51,-153.51"/>
<polygon fill="black" stroke="black" points="93.17,-188.67 100.34,-189.47 102.35,-196.4 95.19,-195.6 93.17,-188.67"/>
<polygon fill="black" stroke="black" points="68.53,-151.74 60.68,-144.63 62.38,-155.08 68.53,-151.74"/>
<text text-anchor="middle" x="110" y="-166.8" font-family="Times New Roman,serif" font-size="14.00">parameter</text>
</g>
<!-- 1780683230560 -->
<g id="node6" class="node">
<title>1780683230560</title>
<polygon fill="aliceblue" stroke="black" points="107,-98.5 107,-144.5 192,-144.5 192,-98.5 107,-98.5"/>
<text text-anchor="middle" x="149.5" y="-129.3" font-family="Times New Roman,serif" font-size="14.00">:Abstraction</text>
<polyline fill="none" stroke="black" points="107,-121.5 192,-121.5 "/>
<text text-anchor="middle" x="149.5" y="-106.3" font-family="Times New Roman,serif" font-size="14.00"> </text>
</g>
<!-- 1780683230464&#45;&gt;1780683230560 -->
<g id="edge5" class="edge">
<title>1780683230464&#45;&gt;1780683230560</title>
<path fill="none" stroke="black" d="M140.5,-184.22C141.89,-174.65 143.41,-164.29 144.78,-154.84"/>
<polygon fill="black" stroke="black" points="140.48,-184.36 143.57,-190.87 138.75,-196.23 135.65,-189.72 140.48,-184.36"/>
<polygon fill="black" stroke="black" points="148.29,-155.05 146.27,-144.64 141.36,-154.04 148.29,-155.05"/>
<text text-anchor="middle" x="174" y="-166.8" font-family="Times New Roman,serif" font-size="14.00">expression</text>
</g>
<!-- 1780683230608 -->
<g id="node7" class="node">
<title>1780683230608</title>
<polygon fill="aliceblue" stroke="black" points="31.5,-0.5 31.5,-46.5 101.5,-46.5 101.5,-0.5 31.5,-0.5"/>
<text text-anchor="middle" x="66.5" y="-31.3" font-family="Times New Roman,serif" font-size="14.00">f:Variable</text>
<polyline fill="none" stroke="black" points="31.5,-23.5 101.5,-23.5 "/>
<text text-anchor="middle" x="66.5" y="-8.3" font-family="Times New Roman,serif" font-size="14.00"> </text>
</g>
<!-- 1780683230560&#45;&gt;1780683230608 -->
<g id="edge6" class="edge">
<title>1780683230560&#45;&gt;1780683230608</title>
<path fill="none" stroke="black" d="M103.75,-90.49C100.06,-87.18 96.58,-83.67 93.5,-80 87.49,-72.85 82.44,-64.13 78.4,-55.74"/>
<polygon fill="black" stroke="black" points="103.94,-90.65 111.12,-91.38 113.2,-98.28 106.03,-97.55 103.94,-90.65"/>
<polygon fill="black" stroke="black" points="81.55,-54.21 74.26,-46.51 75.16,-57.07 81.55,-54.21"/>
<text text-anchor="middle" x="121" y="-68.8" font-family="Times New Roman,serif" font-size="14.00">parameter</text>
</g>
<!-- 1780683230656 -->
<g id="node8" class="node">
<title>1780683230656</title>
<polygon fill="aliceblue" stroke="black" points="124,-0.5 124,-46.5 193,-46.5 193,-0.5 124,-0.5"/>
<text text-anchor="middle" x="158.5" y="-31.3" font-family="Times New Roman,serif" font-size="14.00">t:Variable</text>
<polyline fill="none" stroke="black" points="124,-23.5 193,-23.5 "/>
<text text-anchor="middle" x="158.5" y="-8.3" font-family="Times New Roman,serif" font-size="14.00"> </text>
</g>
<!-- 1780683230560&#45;&gt;1780683230656 -->
<g id="edge7" class="edge">
<title>1780683230560&#45;&gt;1780683230656</title>
<path fill="none" stroke="black" d="M152.71,-86.22C153.61,-76.65 154.58,-66.29 155.47,-56.84"/>
<polygon fill="black" stroke="black" points="152.71,-86.29 156.13,-92.63 151.59,-98.23 148.16,-91.89 152.71,-86.29"/>
<polygon fill="black" stroke="black" points="158.98,-56.93 156.42,-46.64 152.01,-56.27 158.98,-56.93"/>
<text text-anchor="middle" x="186" y="-68.8" font-family="Times New Roman,serif" font-size="14.00">expression</text>
</g>
<!-- 1780684491888 -->
<g id="node10" class="node">
<title>1780684491888</title>
<polygon fill="aliceblue" stroke="black" points="201.5,-196.5 201.5,-242.5 273.5,-242.5 273.5,-196.5 201.5,-196.5"/>
<text text-anchor="middle" x="237.5" y="-227.3" font-family="Times New Roman,serif" font-size="14.00">x:Variable</text>
<polyline fill="none" stroke="black" points="201.5,-219.5 273.5,-219.5 "/>
<text text-anchor="middle" x="237.5" y="-204.3" font-family="Times New Roman,serif" font-size="14.00"> </text>
</g>
<!-- 1780684491936&#45;&gt;1780684491888 -->
<g id="edge9" class="edge">
<title>1780684491936&#45;&gt;1780684491888</title>
<path fill="none" stroke="black" d="M238.14,-282.22C238.04,-272.65 237.94,-262.29 237.84,-252.84"/>
<polygon fill="black" stroke="black" points="238.14,-282.24 242.21,-288.19 238.27,-294.23 234.21,-288.28 238.14,-282.24"/>
<polygon fill="black" stroke="black" points="241.33,-252.61 237.73,-242.64 234.34,-252.68 241.33,-252.61"/>
<text text-anchor="middle" x="266" y="-264.8" font-family="Times New Roman,serif" font-size="14.00">parameter</text>
</g>
<!-- 1780684491840 -->
<g id="node11" class="node">
<title>1780684491840</title>
<polygon fill="aliceblue" stroke="black" points="296,-196.5 296,-242.5 381,-242.5 381,-196.5 296,-196.5"/>
<text text-anchor="middle" x="338.5" y="-227.3" font-family="Times New Roman,serif" font-size="14.00">:Abstraction</text>
<polyline fill="none" stroke="black" points="296,-219.5 381,-219.5 "/>
<text text-anchor="middle" x="338.5" y="-204.3" font-family="Times New Roman,serif" font-size="14.00"> </text>
</g>
<!-- 1780684491936&#45;&gt;1780684491840 -->
<g id="edge10" class="edge">
<title>1780684491936&#45;&gt;1780684491840</title>
<path fill="none" stroke="black" d="M285.64,-287.08C290.17,-283.56 294.54,-279.84 298.5,-276 306.11,-268.62 313.28,-259.64 319.38,-251.07"/>
<polygon fill="black" stroke="black" points="285.28,-287.35 282.81,-294.13 275.61,-294.45 278.08,-287.68 285.28,-287.35"/>
<polygon fill="black" stroke="black" points="322.34,-252.94 325.11,-242.72 316.57,-248.99 322.34,-252.94"/>
<text text-anchor="middle" x="342" y="-264.8" font-family="Times New Roman,serif" font-size="14.00">expression</text>
</g>
<!-- 1780684491792 -->
<g id="node12" class="node">
<title>1780684491792</title>
<polygon fill="aliceblue" stroke="black" points="219,-98.5 219,-144.5 288,-144.5 288,-98.5 219,-98.5"/>
<text text-anchor="middle" x="253.5" y="-129.3" font-family="Times New Roman,serif" font-size="14.00">t:Variable</text>
<polyline fill="none" stroke="black" points="219,-121.5 288,-121.5 "/>
<text text-anchor="middle" x="253.5" y="-106.3" font-family="Times New Roman,serif" font-size="14.00"> </text>
</g>
<!-- 1780684491840&#45;&gt;1780684491792 -->
<g id="edge11" class="edge">
<title>1780684491840&#45;&gt;1780684491792</title>
<path fill="none" stroke="black" d="M294.91,-188.44C291.2,-185.12 287.66,-181.62 284.5,-178 278.15,-170.74 272.53,-161.97 267.87,-153.56"/>
<polygon fill="black" stroke="black" points="295.14,-188.64 302.31,-189.4 304.36,-196.32 297.19,-195.55 295.14,-188.64"/>
<polygon fill="black" stroke="black" points="270.95,-151.91 263.21,-144.68 264.75,-155.16 270.95,-151.91"/>
<text text-anchor="middle" x="312" y="-166.8" font-family="Times New Roman,serif" font-size="14.00">parameter</text>
</g>
<!-- 1780684492704 -->
<g id="node13" class="node">
<title>1780684492704</title>
<polygon fill="aliceblue" stroke="black" points="310,-98.5 310,-144.5 395,-144.5 395,-98.5 310,-98.5"/>
<text text-anchor="middle" x="352.5" y="-129.3" font-family="Times New Roman,serif" font-size="14.00">:Abstraction</text>
<polyline fill="none" stroke="black" points="310,-121.5 395,-121.5 "/>
<text text-anchor="middle" x="352.5" y="-106.3" font-family="Times New Roman,serif" font-size="14.00"> </text>
</g>
<!-- 1780684491840&#45;&gt;1780684492704 -->
<g id="edge12" class="edge">
<title>1780684491840&#45;&gt;1780684492704</title>
<path fill="none" stroke="black" d="M343.5,-184.22C344.89,-174.65 346.41,-164.29 347.78,-154.84"/>
<polygon fill="black" stroke="black" points="343.48,-184.36 346.57,-190.87 341.75,-196.23 338.65,-189.72 343.48,-184.36"/>
<polygon fill="black" stroke="black" points="351.29,-155.05 349.27,-144.64 344.36,-154.04 351.29,-155.05"/>
<text text-anchor="middle" x="376" y="-166.8" font-family="Times New Roman,serif" font-size="14.00">expression</text>
</g>
<!-- 1780684492032 -->
<g id="node14" class="node">
<title>1780684492032</title>
<polygon fill="aliceblue" stroke="black" points="271.5,-0.5 271.5,-46.5 341.5,-46.5 341.5,-0.5 271.5,-0.5"/>
<text text-anchor="middle" x="306.5" y="-31.3" font-family="Times New Roman,serif" font-size="14.00">f:Variable</text>
<polyline fill="none" stroke="black" points="271.5,-23.5 341.5,-23.5 "/>
<text text-anchor="middle" x="306.5" y="-8.3" font-family="Times New Roman,serif" font-size="14.00"> </text>
</g>
<!-- 1780684492704&#45;&gt;1780684492032 -->
<g id="edge13" class="edge">
<title>1780684492704&#45;&gt;1780684492032</title>
<path fill="none" stroke="black" d="M321.46,-88.55C319.6,-85.78 317.92,-82.91 316.5,-80 313.02,-72.84 310.74,-64.62 309.25,-56.75"/>
<polygon fill="black" stroke="black" points="321.49,-88.59 328.31,-90.93 328.77,-98.13 321.95,-95.78 321.49,-88.59"/>
<polygon fill="black" stroke="black" points="312.69,-56.06 307.71,-46.71 305.77,-57.12 312.69,-56.06"/>
<text text-anchor="middle" x="344" y="-68.8" font-family="Times New Roman,serif" font-size="14.00">parameter</text>
</g>
<!-- 1780684492224 -->
<g id="node15" class="node">
<title>1780684492224</title>
<polygon fill="aliceblue" stroke="black" points="363.5,-0.5 363.5,-46.5 433.5,-46.5 433.5,-0.5 363.5,-0.5"/>
<text text-anchor="middle" x="398.5" y="-31.3" font-family="Times New Roman,serif" font-size="14.00">f:Variable</text>
<polyline fill="none" stroke="black" points="363.5,-23.5 433.5,-23.5 "/>
<text text-anchor="middle" x="398.5" y="-8.3" font-family="Times New Roman,serif" font-size="14.00"> </text>
</g>
<!-- 1780684492704&#45;&gt;1780684492224 -->
<g id="edge14" class="edge">
<title>1780684492704&#45;&gt;1780684492224</title>
<path fill="none" stroke="black" d="M368.91,-87.4C370.13,-84.9 371.34,-82.41 372.5,-80 376.24,-72.23 380.22,-63.82 383.91,-55.95"/>
<polygon fill="black" stroke="black" points="368.87,-87.49 369.82,-94.63 363.59,-98.26 362.64,-91.11 368.87,-87.49"/>
<polygon fill="black" stroke="black" points="387.17,-57.24 388.23,-46.7 380.82,-54.27 387.17,-57.24"/>
<text text-anchor="middle" x="409" y="-68.8" font-family="Times New Roman,serif" font-size="14.00">expression</text>
</g>
</g>
</svg>
