<?xml version="1.0" encoding="UTF-8" standalone="no"?>
<!DOCTYPE svg PUBLIC "-//W3C//DTD SVG 1.1//EN"
 "http://www.w3.org/Graphics/SVG/1.1/DTD/svg11.dtd">
<!-- Generated by graphviz version 3.0.0 (20220226.1711)
 -->
<!-- Title: textX Pages: 1 -->
<svg width="501pt" height="643pt"
 viewBox="0.00 0.00 501.00 643.00" xmlns="http://www.w3.org/2000/svg" xmlns:xlink="http://www.w3.org/1999/xlink">
<g id="graph0" class="graph" transform="scale(1 1) rotate(0) translate(4 639)">
<title>textX</title>
<polygon fill="white" stroke="transparent" points="-4,4 -4,-639 497,-639 497,4 -4,4"/>
<!-- 1780683227488 -->
<g id="node1" class="node">
<title>1780683227488</title>
<polygon fill="aliceblue" stroke="black" points="229,-588.5 229,-634.5 313,-634.5 313,-588.5 229,-588.5"/>
<text text-anchor="middle" x="271" y="-619.3" font-family="Times New Roman,serif" font-size="14.00">:Application</text>
<polyline fill="none" stroke="black" points="229,-611.5 313,-611.5 "/>
<text text-anchor="middle" x="271" y="-596.3" font-family="Times New Roman,serif" font-size="14.00"> </text>
</g>
<!-- 1780683227440 -->
<g id="node2" class="node">
<title>1780683227440</title>
<polygon fill="aliceblue" stroke="black" points="175.5,-490.5 175.5,-536.5 260.5,-536.5 260.5,-490.5 175.5,-490.5"/>
<text text-anchor="middle" x="218" y="-521.3" font-family="Times New Roman,serif" font-size="14.00">:Abstraction</text>
<polyline fill="none" stroke="black" points="175.5,-513.5 260.5,-513.5 "/>
<text text-anchor="middle" x="218" y="-498.3" font-family="Times New Roman,serif" font-size="14.00"> </text>
</g>
<!-- 1780683227488&#45;&gt;1780683227440 -->
<g id="edge1" class="edge">
<title>1780683227488&#45;&gt;1780683227440</title>
<path fill="none" stroke="black" d="M252.74,-577.43C247.05,-567.12 240.79,-555.78 235.17,-545.6"/>
<polygon fill="black" stroke="black" points="252.91,-577.73 259.31,-581.05 258.71,-588.23 252.31,-584.91 252.91,-577.73"/>
<polygon fill="black" stroke="black" points="238.12,-543.71 230.23,-536.64 231.99,-547.09 238.12,-543.71"/>
<text text-anchor="middle" x="257" y="-558.8" font-family="Times New Roman,serif" font-size="14.00">left</text>
</g>
<!-- 1780683227632 -->
<g id="node19" class="node">
<title>1780683227632</title>
<polygon fill="aliceblue" stroke="black" points="282.5,-490.5 282.5,-536.5 367.5,-536.5 367.5,-490.5 282.5,-490.5"/>
<text text-anchor="middle" x="325" y="-521.3" font-family="Times New Roman,serif" font-size="14.00">:Abstraction</text>
<polyline fill="none" stroke="black" points="282.5,-513.5 367.5,-513.5 "/>
<text text-anchor="middle" x="325" y="-498.3" font-family="Times New Roman,serif" font-size="14.00"> </text>
</g>
<!-- 1780683227488&#45;&gt;1780683227632 -->
<g id="edge18" class="edge">
<title>1780683227488&#45;&gt;1780683227632</title>
<path fill="none" stroke="black" d="M289.6,-577.43C295.4,-567.12 301.78,-555.78 307.51,-545.6"/>
<polygon fill="black" stroke="black" points="289.41,-577.78 289.95,-584.97 283.52,-588.23 282.98,-581.04 289.41,-577.78"/>
<polygon fill="black" stroke="black" points="310.69,-547.08 312.54,-536.64 304.59,-543.64 310.69,-547.08"/>
<text text-anchor="middle" x="314.5" y="-558.8" font-family="Times New Roman,serif" font-size="14.00">right</text>
</g>
<!-- 1780683227680 -->
<g id="node3" class="node">
<title>1780683227680</title>
<polygon fill="aliceblue" stroke="black" points="82,-392.5 82,-438.5 158,-438.5 158,-392.5 82,-392.5"/>
<text text-anchor="middle" x="120" y="-423.3" font-family="Times New Roman,serif" font-size="14.00">m:Variable</text>
<polyline fill="none" stroke="black" points="82,-415.5 158,-415.5 "/>
<text text-anchor="middle" x="120" y="-400.3" font-family="Times New Roman,serif" font-size="14.00"> </text>
</g>
<!-- 1780683227440&#45;&gt;1780683227680 -->
<g id="edge2" class="edge">
<title>1780683227440&#45;&gt;1780683227680</title>
<path fill="none" stroke="black" d="M172.45,-482.97C168.08,-479.47 163.84,-475.79 160,-472 152.45,-464.56 145.3,-455.56 139.19,-447"/>
<polygon fill="black" stroke="black" points="172.59,-483.07 179.79,-483.5 182.16,-490.3 174.96,-489.88 172.59,-483.07"/>
<polygon fill="black" stroke="black" points="142,-444.91 133.46,-438.65 136.24,-448.87 142,-444.91"/>
<text text-anchor="middle" x="187.5" y="-460.8" font-family="Times New Roman,serif" font-size="14.00">parameter</text>
</g>
<!-- 1780683227728 -->
<g id="node4" class="node">
<title>1780683227728</title>
<polygon fill="aliceblue" stroke="black" points="180,-392.5 180,-438.5 264,-438.5 264,-392.5 180,-392.5"/>
<text text-anchor="middle" x="222" y="-423.3" font-family="Times New Roman,serif" font-size="14.00">:Application</text>
<polyline fill="none" stroke="black" points="180,-415.5 264,-415.5 "/>
<text text-anchor="middle" x="222" y="-400.3" font-family="Times New Roman,serif" font-size="14.00"> </text>
</g>
<!-- 1780683227440&#45;&gt;1780683227728 -->
<g id="edge3" class="edge">
<title>1780683227440&#45;&gt;1780683227728</title>
<path fill="none" stroke="black" d="M219.43,-478.22C219.83,-468.65 220.26,-458.29 220.65,-448.84"/>
<polygon fill="black" stroke="black" points="219.43,-478.24 223.17,-484.41 218.93,-490.23 215.18,-484.07 219.43,-478.24"/>
<polygon fill="black" stroke="black" points="224.16,-448.78 221.08,-438.64 217.16,-448.49 224.16,-448.78"/>
<text text-anchor="middle" x="251.5" y="-460.8" font-family="Times New Roman,serif" font-size="14.00">expression</text>
</g>
<!-- 1780683227824 -->
<g id="node5" class="node">
<title>1780683227824</title>
<polygon fill="aliceblue" stroke="black" points="95,-294.5 95,-340.5 179,-340.5 179,-294.5 95,-294.5"/>
<text text-anchor="middle" x="137" y="-325.3" font-family="Times New Roman,serif" font-size="14.00">:Application</text>
<polyline fill="none" stroke="black" points="95,-317.5 179,-317.5 "/>
<text text-anchor="middle" x="137" y="-302.3" font-family="Times New Roman,serif" font-size="14.00"> </text>
</g>
<!-- 1780683227728&#45;&gt;1780683227824 -->
<g id="edge4" class="edge">
<title>1780683227728&#45;&gt;1780683227824</title>
<path fill="none" stroke="black" d="M194.15,-383.04C184.27,-371.89 173.19,-359.38 163.44,-348.36"/>
<polygon fill="black" stroke="black" points="194.33,-383.25 201.3,-385.09 202.29,-392.23 195.31,-390.39 194.33,-383.25"/>
<polygon fill="black" stroke="black" points="165.86,-345.81 156.61,-340.64 160.62,-350.45 165.86,-345.81"/>
<text text-anchor="middle" x="194" y="-362.8" font-family="Times New Roman,serif" font-size="14.00">left</text>
</g>
<!-- 1780683227872 -->
<g id="node12" class="node">
<title>1780683227872</title>
<polygon fill="aliceblue" stroke="black" points="201.5,-294.5 201.5,-340.5 286.5,-340.5 286.5,-294.5 201.5,-294.5"/>
<text text-anchor="middle" x="244" y="-325.3" font-family="Times New Roman,serif" font-size="14.00">:Abstraction</text>
<polyline fill="none" stroke="black" points="201.5,-317.5 286.5,-317.5 "/>
<text text-anchor="middle" x="244" y="-302.3" font-family="Times New Roman,serif" font-size="14.00"> </text>
</g>
<!-- 1780683227728&#45;&gt;1780683227872 -->
<g id="edge11" class="edge">
<title>1780683227728&#45;&gt;1780683227872</title>
<path fill="none" stroke="black" d="M229.86,-380.22C232.07,-370.55 234.47,-360.07 236.66,-350.53"/>
<polygon fill="black" stroke="black" points="229.78,-380.54 232.34,-387.28 227.1,-392.23 224.54,-385.49 229.78,-380.54"/>
<polygon fill="black" stroke="black" points="240.1,-351.17 238.93,-340.64 233.28,-349.61 240.1,-351.17"/>
<text text-anchor="middle" x="247.5" y="-362.8" font-family="Times New Roman,serif" font-size="14.00">right</text>
</g>
<!-- 1780683227920 -->
<g id="node6" class="node">
<title>1780683227920</title>
<polygon fill="aliceblue" stroke="black" points="0,-196.5 0,-242.5 76,-242.5 76,-196.5 0,-196.5"/>
<text text-anchor="middle" x="38" y="-227.3" font-family="Times New Roman,serif" font-size="14.00">m:Variable</text>
<polyline fill="none" stroke="black" points="0,-219.5 76,-219.5 "/>
<text text-anchor="middle" x="38" y="-204.3" font-family="Times New Roman,serif" font-size="14.00"> </text>
</g>
<!-- 1780683227824&#45;&gt;1780683227920 -->
<g id="edge5" class="edge">
<title>1780683227824&#45;&gt;1780683227920</title>
<path fill="none" stroke="black" d="M105.38,-285.84C93.5,-274.32 80.03,-261.26 68.28,-249.86"/>
<polygon fill="black" stroke="black" points="105.42,-285.88 112.52,-287.19 114.04,-294.23 106.95,-292.93 105.42,-285.88"/>
<polygon fill="black" stroke="black" points="70.45,-247.09 60.84,-242.64 65.58,-252.12 70.45,-247.09"/>
<text text-anchor="middle" x="103" y="-264.8" font-family="Times New Roman,serif" font-size="14.00">left</text>
</g>
<!-- 1780683228064 -->
<g id="node7" class="node">
<title>1780683228064</title>
<polygon fill="aliceblue" stroke="black" points="98.5,-196.5 98.5,-242.5 183.5,-242.5 183.5,-196.5 98.5,-196.5"/>
<text text-anchor="middle" x="141" y="-227.3" font-family="Times New Roman,serif" font-size="14.00">:Abstraction</text>
<polyline fill="none" stroke="black" points="98.5,-219.5 183.5,-219.5 "/>
<text text-anchor="middle" x="141" y="-204.3" font-family="Times New Roman,serif" font-size="14.00"> </text>
</g>
<!-- 1780683227824&#45;&gt;1780683228064 -->
<g id="edge6" class="edge">
<title>1780683227824&#45;&gt;1780683228064</title>
<path fill="none" stroke="black" d="M138.43,-282.22C138.83,-272.65 139.26,-262.29 139.65,-252.84"/>
<polygon fill="black" stroke="black" points="138.43,-282.24 142.17,-288.41 137.93,-294.23 134.18,-288.07 138.43,-282.24"/>
<polygon fill="black" stroke="black" points="143.16,-252.78 140.08,-242.64 136.16,-252.49 143.16,-252.78"/>
<text text-anchor="middle" x="152.5" y="-264.8" font-family="Times New Roman,serif" font-size="14.00">right</text>
</g>
<!-- 1780683228112 -->
<g id="node8" class="node">
<title>1780683228112</title>
<polygon fill="aliceblue" stroke="black" points="21.5,-98.5 21.5,-144.5 90.5,-144.5 90.5,-98.5 21.5,-98.5"/>
<text text-anchor="middle" x="56" y="-129.3" font-family="Times New Roman,serif" font-size="14.00">t:Variable</text>
<polyline fill="none" stroke="black" points="21.5,-121.5 90.5,-121.5 "/>
<text text-anchor="middle" x="56" y="-106.3" font-family="Times New Roman,serif" font-size="14.00"> </text>
</g>
<!-- 1780683228064&#45;&gt;1780683228112 -->
<g id="edge7" class="edge">
<title>1780683228064&#45;&gt;1780683228112</title>
<path fill="none" stroke="black" d="M98.42,-188.47C94.72,-185.13 91.18,-181.62 88,-178 81.59,-170.7 75.82,-161.91 71.01,-153.51"/>
<polygon fill="black" stroke="black" points="98.67,-188.67 105.84,-189.47 107.85,-196.4 100.69,-195.6 98.67,-188.67"/>
<polygon fill="black" stroke="black" points="74.03,-151.74 66.18,-144.63 67.88,-155.08 74.03,-151.74"/>
<text text-anchor="middle" x="115.5" y="-166.8" font-family="Times New Roman,serif" font-size="14.00">parameter</text>
</g>
<!-- 1780683228208 -->
<g id="node9" class="node">
<title>1780683228208</title>
<polygon fill="aliceblue" stroke="black" points="112.5,-98.5 112.5,-144.5 197.5,-144.5 197.5,-98.5 112.5,-98.5"/>
<text text-anchor="middle" x="155" y="-129.3" font-family="Times New Roman,serif" font-size="14.00">:Abstraction</text>
<polyline fill="none" stroke="black" points="112.5,-121.5 197.5,-121.5 "/>
<text text-anchor="middle" x="155" y="-106.3" font-family="Times New Roman,serif" font-size="14.00"> </text>
</g>
<!-- 1780683228064&#45;&gt;1780683228208 -->
<g id="edge8" class="edge">
<title>1780683228064&#45;&gt;1780683228208</title>
<path fill="none" stroke="black" d="M146,-184.22C147.39,-174.65 148.91,-164.29 150.28,-154.84"/>
<polygon fill="black" stroke="black" points="145.98,-184.36 149.07,-190.87 144.25,-196.23 141.15,-189.72 145.98,-184.36"/>
<polygon fill="black" stroke="black" points="153.79,-155.05 151.77,-144.64 146.86,-154.04 153.79,-155.05"/>
<text text-anchor="middle" x="179.5" y="-166.8" font-family="Times New Roman,serif" font-size="14.00">expression</text>
</g>
<!-- 1780683228304 -->
<g id="node10" class="node">
<title>1780683228304</title>
<polygon fill="aliceblue" stroke="black" points="37,-0.5 37,-46.5 107,-46.5 107,-0.5 37,-0.5"/>
<text text-anchor="middle" x="72" y="-31.3" font-family="Times New Roman,serif" font-size="14.00">f:Variable</text>
<polyline fill="none" stroke="black" points="37,-23.5 107,-23.5 "/>
<text text-anchor="middle" x="72" y="-8.3" font-family="Times New Roman,serif" font-size="14.00"> </text>
</g>
<!-- 1780683228208&#45;&gt;1780683228304 -->
<g id="edge9" class="edge">
<title>1780683228208&#45;&gt;1780683228304</title>
<path fill="none" stroke="black" d="M109.25,-90.49C105.56,-87.18 102.08,-83.67 99,-80 92.99,-72.85 87.94,-64.13 83.9,-55.74"/>
<polygon fill="black" stroke="black" points="109.44,-90.65 116.62,-91.38 118.7,-98.28 111.53,-97.55 109.44,-90.65"/>
<polygon fill="black" stroke="black" points="87.05,-54.21 79.76,-46.51 80.66,-57.07 87.05,-54.21"/>
<text text-anchor="middle" x="126.5" y="-68.8" font-family="Times New Roman,serif" font-size="14.00">parameter</text>
</g>
<!-- 1780683228352 -->
<g id="node11" class="node">
<title>1780683228352</title>
<polygon fill="aliceblue" stroke="black" points="129.5,-0.5 129.5,-46.5 198.5,-46.5 198.5,-0.5 129.5,-0.5"/>
<text text-anchor="middle" x="164" y="-31.3" font-family="Times New Roman,serif" font-size="14.00">t:Variable</text>
<polyline fill="none" stroke="black" points="129.5,-23.5 198.5,-23.5 "/>
<text text-anchor="middle" x="164" y="-8.3" font-family="Times New Roman,serif" font-size="14.00"> </text>
</g>
<!-- 1780683228208&#45;&gt;1780683228352 -->
<g id="edge10" class="edge">
<title>1780683228208&#45;&gt;1780683228352</title>
<path fill="none" stroke="black" d="M158.21,-86.22C159.11,-76.65 160.08,-66.29 160.97,-56.84"/>
<polygon fill="black" stroke="black" points="158.21,-86.29 161.63,-92.63 157.09,-98.23 153.66,-91.89 158.21,-86.29"/>
<polygon fill="black" stroke="black" points="164.48,-56.93 161.92,-46.64 157.51,-56.27 164.48,-56.93"/>
<text text-anchor="middle" x="191.5" y="-68.8" font-family="Times New Roman,serif" font-size="14.00">expression</text>
</g>
<!-- 1780683228256 -->
<g id="node13" class="node">
<title>1780683228256</title>
<polygon fill="aliceblue" stroke="black" points="207,-196.5 207,-242.5 279,-242.5 279,-196.5 207,-196.5"/>
<text text-anchor="middle" x="243" y="-227.3" font-family="Times New Roman,serif" font-size="14.00">x:Variable</text>
<polyline fill="none" stroke="black" points="207,-219.5 279,-219.5 "/>
<text text-anchor="middle" x="243" y="-204.3" font-family="Times New Roman,serif" font-size="14.00"> </text>
</g>
<!-- 1780683227872&#45;&gt;1780683228256 -->
<g id="edge12" class="edge">
<title>1780683227872&#45;&gt;1780683228256</title>
<path fill="none" stroke="black" d="M243.64,-282.22C243.54,-272.65 243.44,-262.29 243.34,-252.84"/>
<polygon fill="black" stroke="black" points="243.64,-282.24 247.71,-288.19 243.77,-294.23 239.71,-288.28 243.64,-282.24"/>
<polygon fill="black" stroke="black" points="246.83,-252.61 243.23,-242.64 239.84,-252.68 246.83,-252.61"/>
<text text-anchor="middle" x="271.5" y="-264.8" font-family="Times New Roman,serif" font-size="14.00">parameter</text>
</g>
<!-- 1780683228400 -->
<g id="node14" class="node">
<title>1780683228400</title>
<polygon fill="aliceblue" stroke="black" points="301.5,-196.5 301.5,-242.5 386.5,-242.5 386.5,-196.5 301.5,-196.5"/>
<text text-anchor="middle" x="344" y="-227.3" font-family="Times New Roman,serif" font-size="14.00">:Abstraction</text>
<polyline fill="none" stroke="black" points="301.5,-219.5 386.5,-219.5 "/>
<text text-anchor="middle" x="344" y="-204.3" font-family="Times New Roman,serif" font-size="14.00"> </text>
</g>
<!-- 1780683227872&#45;&gt;1780683228400 -->
<g id="edge13" class="edge">
<title>1780683227872&#45;&gt;1780683228400</title>
<path fill="none" stroke="black" d="M291.14,-287.08C295.67,-283.56 300.04,-279.84 304,-276 311.61,-268.62 318.78,-259.64 324.88,-251.07"/>
<polygon fill="black" stroke="black" points="290.78,-287.35 288.31,-294.13 281.11,-294.45 283.58,-287.68 290.78,-287.35"/>
<polygon fill="black" stroke="black" points="327.84,-252.94 330.61,-242.72 322.07,-248.99 327.84,-252.94"/>
<text text-anchor="middle" x="347.5" y="-264.8" font-family="Times New Roman,serif" font-size="14.00">expression</text>
</g>
<!-- 1780683228496 -->
<g id="node15" class="node">
<title>1780683228496</title>
<polygon fill="aliceblue" stroke="black" points="224.5,-98.5 224.5,-144.5 293.5,-144.5 293.5,-98.5 224.5,-98.5"/>
<text text-anchor="middle" x="259" y="-129.3" font-family="Times New Roman,serif" font-size="14.00">t:Variable</text>
<polyline fill="none" stroke="black" points="224.5,-121.5 293.5,-121.5 "/>
<text text-anchor="middle" x="259" y="-106.3" font-family="Times New Roman,serif" font-size="14.00"> </text>
</g>
<!-- 1780683228400&#45;&gt;1780683228496 -->
<g id="edge14" class="edge">
<title>1780683228400&#45;&gt;1780683228496</title>
<path fill="none" stroke="black" d="M301.42,-188.47C297.72,-185.13 294.18,-181.62 291,-178 284.59,-170.7 278.82,-161.91 274.01,-153.51"/>
<polygon fill="black" stroke="black" points="301.67,-188.67 308.84,-189.47 310.85,-196.4 303.69,-195.6 301.67,-188.67"/>
<polygon fill="black" stroke="black" points="277.03,-151.74 269.18,-144.63 270.88,-155.08 277.03,-151.74"/>
<text text-anchor="middle" x="318.5" y="-166.8" font-family="Times New Roman,serif" font-size="14.00">parameter</text>
</g>
<!-- 1780683228544 -->
<g id="node16" class="node">
<title>1780683228544</title>
<polygon fill="aliceblue" stroke="black" points="315.5,-98.5 315.5,-144.5 400.5,-144.5 400.5,-98.5 315.5,-98.5"/>
<text text-anchor="middle" x="358" y="-129.3" font-family="Times New Roman,serif" font-size="14.00">:Abstraction</text>
<polyline fill="none" stroke="black" points="315.5,-121.5 400.5,-121.5 "/>
<text text-anchor="middle" x="358" y="-106.3" font-family="Times New Roman,serif" font-size="14.00"> </text>
</g>
<!-- 1780683228400&#45;&gt;1780683228544 -->
<g id="edge15" class="edge">
<title>1780683228400&#45;&gt;1780683228544</title>
<path fill="none" stroke="black" d="M349,-184.22C350.39,-174.65 351.91,-164.29 353.28,-154.84"/>
<polygon fill="black" stroke="black" points="348.98,-184.36 352.07,-190.87 347.25,-196.23 344.15,-189.72 348.98,-184.36"/>
<polygon fill="black" stroke="black" points="356.79,-155.05 354.77,-144.64 349.86,-154.04 356.79,-155.05"/>
<text text-anchor="middle" x="382.5" y="-166.8" font-family="Times New Roman,serif" font-size="14.00">expression</text>
</g>
<!-- 1780683228640 -->
<g id="node17" class="node">
<title>1780683228640</title>
<polygon fill="aliceblue" stroke="black" points="277,-0.5 277,-46.5 347,-46.5 347,-0.5 277,-0.5"/>
<text text-anchor="middle" x="312" y="-31.3" font-family="Times New Roman,serif" font-size="14.00">f:Variable</text>
<polyline fill="none" stroke="black" points="277,-23.5 347,-23.5 "/>
<text text-anchor="middle" x="312" y="-8.3" font-family="Times New Roman,serif" font-size="14.00"> </text>
</g>
<!-- 1780683228544&#45;&gt;1780683228640 -->
<g id="edge16" class="edge">
<title>1780683228544&#45;&gt;1780683228640</title>
<path fill="none" stroke="black" d="M326.96,-88.55C325.1,-85.78 323.42,-82.91 322,-80 318.52,-72.84 316.24,-64.62 314.75,-56.75"/>
<polygon fill="black" stroke="black" points="326.99,-88.59 333.81,-90.93 334.27,-98.13 327.45,-95.78 326.99,-88.59"/>
<polygon fill="black" stroke="black" points="318.19,-56.06 313.21,-46.71 311.27,-57.12 318.19,-56.06"/>
<text text-anchor="middle" x="349.5" y="-68.8" font-family="Times New Roman,serif" font-size="14.00">parameter</text>
</g>
<!-- 1780683228688 -->
<g id="node18" class="node">
<title>1780683228688</title>
<polygon fill="aliceblue" stroke="black" points="369,-0.5 369,-46.5 439,-46.5 439,-0.5 369,-0.5"/>
<text text-anchor="middle" x="404" y="-31.3" font-family="Times New Roman,serif" font-size="14.00">f:Variable</text>
<polyline fill="none" stroke="black" points="369,-23.5 439,-23.5 "/>
<text text-anchor="middle" x="404" y="-8.3" font-family="Times New Roman,serif" font-size="14.00"> </text>
</g>
<!-- 1780683228544&#45;&gt;1780683228688 -->
<g id="edge17" class="edge">
<title>1780683228544&#45;&gt;1780683228688</title>
<path fill="none" stroke="black" d="M374.41,-87.4C375.63,-84.9 376.84,-82.41 378,-80 381.74,-72.23 385.72,-63.82 389.41,-55.95"/>
<polygon fill="black" stroke="black" points="374.37,-87.49 375.32,-94.63 369.09,-98.26 368.14,-91.11 374.37,-87.49"/>
<polygon fill="black" stroke="black" points="392.67,-57.24 393.73,-46.7 386.32,-54.27 392.67,-57.24"/>
<text text-anchor="middle" x="414.5" y="-68.8" font-family="Times New Roman,serif" font-size="14.00">expression</text>
</g>
<!-- 1780683228160 -->
<g id="node20" class="node">
<title>1780683228160</title>
<polygon fill="aliceblue" stroke="black" points="288.5,-392.5 288.5,-438.5 359.5,-438.5 359.5,-392.5 288.5,-392.5"/>
<text text-anchor="middle" x="324" y="-423.3" font-family="Times New Roman,serif" font-size="14.00">z:Variable</text>
<polyline fill="none" stroke="black" points="288.5,-415.5 359.5,-415.5 "/>
<text text-anchor="middle" x="324" y="-400.3" font-family="Times New Roman,serif" font-size="14.00"> </text>
</g>
<!-- 1780683227632&#45;&gt;1780683228160 -->
<g id="edge19" class="edge">
<title>1780683227632&#45;&gt;1780683228160</title>
<path fill="none" stroke="black" d="M324.64,-478.22C324.54,-468.65 324.44,-458.29 324.34,-448.84"/>
<polygon fill="black" stroke="black" points="324.64,-478.24 328.71,-484.19 324.77,-490.23 320.71,-484.28 324.64,-478.24"/>
<polygon fill="black" stroke="black" points="327.83,-448.61 324.23,-438.64 320.84,-448.68 327.83,-448.61"/>
<text text-anchor="middle" x="352.5" y="-460.8" font-family="Times New Roman,serif" font-size="14.00">parameter</text>
</g>
<!-- 1780683228448 -->
<g id="node21" class="node">
<title>1780683228448</title>
<polygon fill="aliceblue" stroke="black" points="381.5,-392.5 381.5,-438.5 466.5,-438.5 466.5,-392.5 381.5,-392.5"/>
<text text-anchor="middle" x="424" y="-423.3" font-family="Times New Roman,serif" font-size="14.00">:Abstraction</text>
<polyline fill="none" stroke="black" points="381.5,-415.5 466.5,-415.5 "/>
<text text-anchor="middle" x="424" y="-400.3" font-family="Times New Roman,serif" font-size="14.00"> </text>
</g>
<!-- 1780683227632&#45;&gt;1780683228448 -->
<g id="edge20" class="edge">
<title>1780683227632&#45;&gt;1780683228448</title>
<path fill="none" stroke="black" d="M372.37,-482.99C376.82,-479.5 381.11,-475.82 385,-472 392.5,-464.64 399.51,-455.66 405.46,-447.1"/>
<polygon fill="black" stroke="black" points="372.13,-483.17 369.68,-489.95 362.48,-490.29 364.93,-483.51 372.13,-483.17"/>
<polygon fill="black" stroke="black" points="408.4,-449 411.04,-438.74 402.58,-445.11 408.4,-449"/>
<text text-anchor="middle" x="427.5" y="-460.8" font-family="Times New Roman,serif" font-size="14.00">expression</text>
</g>
<!-- 1780683228736 -->
<g id="node22" class="node">
<title>1780683228736</title>
<polygon fill="aliceblue" stroke="black" points="311.5,-294.5 311.5,-340.5 382.5,-340.5 382.5,-294.5 311.5,-294.5"/>
<text text-anchor="middle" x="347" y="-325.3" font-family="Times New Roman,serif" font-size="14.00">s:Variable</text>
<polyline fill="none" stroke="black" points="311.5,-317.5 382.5,-317.5 "/>
<text text-anchor="middle" x="347" y="-302.3" font-family="Times New Roman,serif" font-size="14.00"> </text>
</g>
<!-- 1780683228448&#45;&gt;1780683228736 -->
<g id="edge21" class="edge">
<title>1780683228448&#45;&gt;1780683228736</title>
<path fill="none" stroke="black" d="M380.39,-384.28C376.99,-381.03 373.8,-377.59 371,-374 365.47,-366.92 360.96,-358.38 357.4,-350.14"/>
<polygon fill="black" stroke="black" points="380.69,-384.54 387.84,-385.48 389.73,-392.44 382.57,-391.5 380.69,-384.54"/>
<polygon fill="black" stroke="black" points="360.6,-348.72 353.66,-340.71 354.09,-351.3 360.6,-348.72"/>
<text text-anchor="middle" x="398.5" y="-362.8" font-family="Times New Roman,serif" font-size="14.00">parameter</text>
</g>
<!-- 1780683228784 -->
<g id="node23" class="node">
<title>1780683228784</title>
<polygon fill="aliceblue" stroke="black" points="404.5,-294.5 404.5,-340.5 475.5,-340.5 475.5,-294.5 404.5,-294.5"/>
<text text-anchor="middle" x="440" y="-325.3" font-family="Times New Roman,serif" font-size="14.00">z:Variable</text>
<polyline fill="none" stroke="black" points="404.5,-317.5 475.5,-317.5 "/>
<text text-anchor="middle" x="440" y="-302.3" font-family="Times New Roman,serif" font-size="14.00"> </text>
</g>
<!-- 1780683228448&#45;&gt;1780683228784 -->
<g id="edge22" class="edge">
<title>1780683228448&#45;&gt;1780683228784</title>
<path fill="none" stroke="black" d="M429.71,-380.22C431.33,-370.55 433.07,-360.07 434.66,-350.53"/>
<polygon fill="black" stroke="black" points="429.68,-380.4 432.64,-386.97 427.71,-392.23 424.75,-385.66 429.68,-380.4"/>
<polygon fill="black" stroke="black" points="438.12,-351.08 436.31,-340.64 431.21,-349.93 438.12,-351.08"/>
<text text-anchor="middle" x="462.5" y="-362.8" font-family="Times New Roman,serif" font-size="14.00">expression</text>
</g>
</g>
</svg>
