<?xml version="1.0" encoding="UTF-8" standalone="no"?>
<!DOCTYPE svg PUBLIC "-//W3C//DTD SVG 1.1//EN"
 "http://www.w3.org/Graphics/SVG/1.1/DTD/svg11.dtd">
<!-- Generated by graphviz version 3.0.0 (20220226.1711)
 -->
<!-- Title: textX Pages: 1 -->
<svg width="632pt" height="447pt"
 viewBox="0.00 0.00 631.50 447.00" xmlns="http://www.w3.org/2000/svg" xmlns:xlink="http://www.w3.org/1999/xlink">
<g id="graph0" class="graph" transform="scale(1 1) rotate(0) translate(4 443)">
<title>textX</title>
<polygon fill="white" stroke="transparent" points="-4,4 -4,-443 627.5,-443 627.5,4 -4,4"/>
<!-- 1780683230368 -->
<g id="node1" class="node">
<title>1780683230368</title>
<polygon fill="aliceblue" stroke="black" points="244.5,-392.5 244.5,-438.5 328.5,-438.5 328.5,-392.5 244.5,-392.5"/>
<text text-anchor="middle" x="286.5" y="-423.3" font-family="Times New Roman,serif" font-size="14.00">:Application</text>
<polyline fill="none" stroke="black" points="244.5,-415.5 328.5,-415.5 "/>
<text text-anchor="middle" x="286.5" y="-400.3" font-family="Times New Roman,serif" font-size="14.00"> </text>
</g>
<!-- 1780683230416 -->
<g id="node2" class="node">
<title>1780683230416</title>
<polygon fill="aliceblue" stroke="black" points="191.5,-294.5 191.5,-340.5 275.5,-340.5 275.5,-294.5 191.5,-294.5"/>
<text text-anchor="middle" x="233.5" y="-325.3" font-family="Times New Roman,serif" font-size="14.00">:Application</text>
<polyline fill="none" stroke="black" points="191.5,-317.5 275.5,-317.5 "/>
<text text-anchor="middle" x="233.5" y="-302.3" font-family="Times New Roman,serif" font-size="14.00"> </text>
</g>
<!-- 1780683230368&#45;&gt;1780683230416 -->
<g id="edge1" class="edge">
<title>1780683230368&#45;&gt;1780683230416</title>
<path fill="none" stroke="black" d="M268.24,-381.43C262.55,-371.12 256.29,-359.78 250.67,-349.6"/>
<polygon fill="black" stroke="black" points="268.41,-381.73 274.81,-385.05 274.21,-392.23 267.81,-388.91 268.41,-381.73"/>
<polygon fill="black" stroke="black" points="253.62,-347.71 245.73,-340.64 247.49,-351.09 253.62,-347.71"/>
<text text-anchor="middle" x="272.5" y="-362.8" font-family="Times New Roman,serif" font-size="14.00">left</text>
</g>
<!-- 1780683230704 -->
<g id="node13" class="node">
<title>1780683230704</title>
<polygon fill="aliceblue" stroke="black" points="298,-294.5 298,-340.5 383,-340.5 383,-294.5 298,-294.5"/>
<text text-anchor="middle" x="340.5" y="-325.3" font-family="Times New Roman,serif" font-size="14.00">:Abstraction</text>
<polyline fill="none" stroke="black" points="298,-317.5 383,-317.5 "/>
<text text-anchor="middle" x="340.5" y="-302.3" font-family="Times New Roman,serif" font-size="14.00"> </text>
</g>
<!-- 1780683230368&#45;&gt;1780683230704 -->
<g id="edge12" class="edge">
<title>1780683230368&#45;&gt;1780683230704</title>
<path fill="none" stroke="black" d="M305.1,-381.43C310.9,-371.12 317.28,-359.78 323.01,-349.6"/>
<polygon fill="black" stroke="black" points="304.91,-381.78 305.45,-388.97 299.02,-392.23 298.48,-385.04 304.91,-381.78"/>
<polygon fill="black" stroke="black" points="326.19,-351.08 328.04,-340.64 320.09,-347.64 326.19,-351.08"/>
<text text-anchor="middle" x="330" y="-362.8" font-family="Times New Roman,serif" font-size="14.00">right</text>
</g>
<!-- 1780683227632 -->
<g id="node3" class="node">
<title>1780683227632</title>
<polygon fill="aliceblue" stroke="black" points="88,-196.5 88,-242.5 173,-242.5 173,-196.5 88,-196.5"/>
<text text-anchor="middle" x="130.5" y="-227.3" font-family="Times New Roman,serif" font-size="14.00">:Abstraction</text>
<polyline fill="none" stroke="black" points="88,-219.5 173,-219.5 "/>
<text text-anchor="middle" x="130.5" y="-204.3" font-family="Times New Roman,serif" font-size="14.00"> </text>
</g>
<!-- 1780683230416&#45;&gt;1780683227632 -->
<g id="edge2" class="edge">
<title>1780683230416&#45;&gt;1780683227632</title>
<path fill="none" stroke="black" d="M200.86,-286.08C188.37,-274.44 174.16,-261.2 161.8,-249.68"/>
<polygon fill="black" stroke="black" points="201.09,-286.29 208.21,-287.46 209.87,-294.48 202.75,-293.31 201.09,-286.29"/>
<polygon fill="black" stroke="black" points="164.08,-247.01 154.38,-242.75 159.31,-252.13 164.08,-247.01"/>
<text text-anchor="middle" x="197.5" y="-264.8" font-family="Times New Roman,serif" font-size="14.00">left</text>
</g>
<!-- 1780683230464 -->
<g id="node8" class="node">
<title>1780683230464</title>
<polygon fill="aliceblue" stroke="black" points="195,-196.5 195,-242.5 280,-242.5 280,-196.5 195,-196.5"/>
<text text-anchor="middle" x="237.5" y="-227.3" font-family="Times New Roman,serif" font-size="14.00">:Abstraction</text>
<polyline fill="none" stroke="black" points="195,-219.5 280,-219.5 "/>
<text text-anchor="middle" x="237.5" y="-204.3" font-family="Times New Roman,serif" font-size="14.00"> </text>
</g>
<!-- 1780683230416&#45;&gt;1780683230464 -->
<g id="edge7" class="edge">
<title>1780683230416&#45;&gt;1780683230464</title>
<path fill="none" stroke="black" d="M234.93,-282.22C235.33,-272.65 235.76,-262.29 236.15,-252.84"/>
<polygon fill="black" stroke="black" points="234.93,-282.24 238.67,-288.41 234.43,-294.23 230.68,-288.07 234.93,-282.24"/>
<polygon fill="black" stroke="black" points="239.66,-252.78 236.58,-242.64 232.66,-252.49 239.66,-252.78"/>
<text text-anchor="middle" x="249" y="-264.8" font-family="Times New Roman,serif" font-size="14.00">right</text>
</g>
<!-- 1780683228160 -->
<g id="node4" class="node">
<title>1780683228160</title>
<polygon fill="aliceblue" stroke="black" points="0,-98.5 0,-144.5 71,-144.5 71,-98.5 0,-98.5"/>
<text text-anchor="middle" x="35.5" y="-129.3" font-family="Times New Roman,serif" font-size="14.00">z:Variable</text>
<polyline fill="none" stroke="black" points="0,-121.5 71,-121.5 "/>
<text text-anchor="middle" x="35.5" y="-106.3" font-family="Times New Roman,serif" font-size="14.00"> </text>
</g>
<!-- 1780683227632&#45;&gt;1780683228160 -->
<g id="edge3" class="edge">
<title>1780683227632&#45;&gt;1780683228160</title>
<path fill="none" stroke="black" d="M85.66,-189C81.37,-185.5 77.24,-181.8 73.5,-178 66.27,-170.64 59.51,-161.76 53.75,-153.27"/>
<polygon fill="black" stroke="black" points="85.68,-189.02 92.87,-189.52 95.18,-196.35 87.99,-195.85 85.68,-189.02"/>
<polygon fill="black" stroke="black" points="56.52,-151.12 48.13,-144.66 50.66,-154.95 56.52,-151.12"/>
<text text-anchor="middle" x="101" y="-166.8" font-family="Times New Roman,serif" font-size="14.00">parameter</text>
</g>
<!-- 1780683228448 -->
<g id="node5" class="node">
<title>1780683228448</title>
<polygon fill="aliceblue" stroke="black" points="93,-98.5 93,-144.5 178,-144.5 178,-98.5 93,-98.5"/>
<text text-anchor="middle" x="135.5" y="-129.3" font-family="Times New Roman,serif" font-size="14.00">:Abstraction</text>
<polyline fill="none" stroke="black" points="93,-121.5 178,-121.5 "/>
<text text-anchor="middle" x="135.5" y="-106.3" font-family="Times New Roman,serif" font-size="14.00"> </text>
</g>
<!-- 1780683227632&#45;&gt;1780683228448 -->
<g id="edge4" class="edge">
<title>1780683227632&#45;&gt;1780683228448</title>
<path fill="none" stroke="black" d="M132.29,-184.22C132.78,-174.65 133.32,-164.29 133.82,-154.84"/>
<polygon fill="black" stroke="black" points="132.28,-184.25 135.97,-190.45 131.66,-196.23 127.98,-190.03 132.28,-184.25"/>
<polygon fill="black" stroke="black" points="137.32,-154.81 134.35,-144.64 130.33,-154.45 137.32,-154.81"/>
<text text-anchor="middle" x="164" y="-166.8" font-family="Times New Roman,serif" font-size="14.00">expression</text>
</g>
<!-- 1780683228736 -->
<g id="node6" class="node">
<title>1780683228736</title>
<polygon fill="aliceblue" stroke="black" points="14,-0.5 14,-46.5 85,-46.5 85,-0.5 14,-0.5"/>
<text text-anchor="middle" x="49.5" y="-31.3" font-family="Times New Roman,serif" font-size="14.00">s:Variable</text>
<polyline fill="none" stroke="black" points="14,-23.5 85,-23.5 "/>
<text text-anchor="middle" x="49.5" y="-8.3" font-family="Times New Roman,serif" font-size="14.00"> </text>
</g>
<!-- 1780683228448&#45;&gt;1780683228736 -->
<g id="edge5" class="edge">
<title>1780683228448&#45;&gt;1780683228736</title>
<path fill="none" stroke="black" d="M90.06,-90.48C86.29,-87.16 82.7,-83.65 79.5,-80 73.25,-72.88 67.81,-64.24 63.33,-55.92"/>
<polygon fill="black" stroke="black" points="90.4,-90.75 97.58,-91.43 99.71,-98.32 92.53,-97.64 90.4,-90.75"/>
<polygon fill="black" stroke="black" points="66.33,-54.1 58.69,-46.75 60.08,-57.26 66.33,-54.1"/>
<text text-anchor="middle" x="107" y="-68.8" font-family="Times New Roman,serif" font-size="14.00">parameter</text>
</g>
<!-- 1780683228784 -->
<g id="node7" class="node">
<title>1780683228784</title>
<polygon fill="aliceblue" stroke="black" points="107,-0.5 107,-46.5 178,-46.5 178,-0.5 107,-0.5"/>
<text text-anchor="middle" x="142.5" y="-31.3" font-family="Times New Roman,serif" font-size="14.00">z:Variable</text>
<polyline fill="none" stroke="black" points="107,-23.5 178,-23.5 "/>
<text text-anchor="middle" x="142.5" y="-8.3" font-family="Times New Roman,serif" font-size="14.00"> </text>
</g>
<!-- 1780683228448&#45;&gt;1780683228784 -->
<g id="edge6" class="edge">
<title>1780683228448&#45;&gt;1780683228784</title>
<path fill="none" stroke="black" d="M138,-86.22C138.7,-76.65 139.45,-66.29 140.14,-56.84"/>
<polygon fill="black" stroke="black" points="138,-86.27 141.55,-92.54 137.12,-98.23 133.57,-91.96 138,-86.27"/>
<polygon fill="black" stroke="black" points="143.65,-56.87 140.89,-46.64 136.67,-56.36 143.65,-56.87"/>
<text text-anchor="middle" x="170" y="-68.8" font-family="Times New Roman,serif" font-size="14.00">expression</text>
</g>
<!-- 1780683230512 -->
<g id="node9" class="node">
<title>1780683230512</title>
<polygon fill="aliceblue" stroke="black" points="202,-98.5 202,-144.5 271,-144.5 271,-98.5 202,-98.5"/>
<text text-anchor="middle" x="236.5" y="-129.3" font-family="Times New Roman,serif" font-size="14.00">t:Variable</text>
<polyline fill="none" stroke="black" points="202,-121.5 271,-121.5 "/>
<text text-anchor="middle" x="236.5" y="-106.3" font-family="Times New Roman,serif" font-size="14.00"> </text>
</g>
<!-- 1780683230464&#45;&gt;1780683230512 -->
<g id="edge8" class="edge">
<title>1780683230464&#45;&gt;1780683230512</title>
<path fill="none" stroke="black" d="M237.14,-184.22C237.04,-174.65 236.94,-164.29 236.84,-154.84"/>
<polygon fill="black" stroke="black" points="237.14,-184.24 241.21,-190.19 237.27,-196.23 233.21,-190.28 237.14,-184.24"/>
<polygon fill="black" stroke="black" points="240.33,-154.61 236.73,-144.64 233.34,-154.68 240.33,-154.61"/>
<text text-anchor="middle" x="265" y="-166.8" font-family="Times New Roman,serif" font-size="14.00">parameter</text>
</g>
<!-- 1780683230560 -->
<g id="node10" class="node">
<title>1780683230560</title>
<polygon fill="aliceblue" stroke="black" points="293,-98.5 293,-144.5 378,-144.5 378,-98.5 293,-98.5"/>
<text text-anchor="middle" x="335.5" y="-129.3" font-family="Times New Roman,serif" font-size="14.00">:Abstraction</text>
<polyline fill="none" stroke="black" points="293,-121.5 378,-121.5 "/>
<text text-anchor="middle" x="335.5" y="-106.3" font-family="Times New Roman,serif" font-size="14.00"> </text>
</g>
<!-- 1780683230464&#45;&gt;1780683230560 -->
<g id="edge9" class="edge">
<title>1780683230464&#45;&gt;1780683230560</title>
<path fill="none" stroke="black" d="M284.92,-189.04C289.36,-185.54 293.63,-181.84 297.5,-178 304.82,-170.73 311.61,-161.87 317.37,-153.39"/>
<polygon fill="black" stroke="black" points="284.68,-189.21 282.24,-196 275.04,-196.35 277.48,-189.57 284.68,-189.21"/>
<polygon fill="black" stroke="black" points="320.46,-155.05 322.97,-144.76 314.59,-151.24 320.46,-155.05"/>
<text text-anchor="middle" x="341" y="-166.8" font-family="Times New Roman,serif" font-size="14.00">expression</text>
</g>
<!-- 1780683230608 -->
<g id="node11" class="node">
<title>1780683230608</title>
<polygon fill="aliceblue" stroke="black" points="218.5,-0.5 218.5,-46.5 288.5,-46.5 288.5,-0.5 218.5,-0.5"/>
<text text-anchor="middle" x="253.5" y="-31.3" font-family="Times New Roman,serif" font-size="14.00">f:Variable</text>
<polyline fill="none" stroke="black" points="218.5,-23.5 288.5,-23.5 "/>
<text text-anchor="middle" x="253.5" y="-8.3" font-family="Times New Roman,serif" font-size="14.00"> </text>
</g>
<!-- 1780683230560&#45;&gt;1780683230608 -->
<g id="edge10" class="edge">
<title>1780683230560&#45;&gt;1780683230608</title>
<path fill="none" stroke="black" d="M290.72,-90.56C287.05,-87.22 283.57,-83.69 280.5,-80 274.57,-72.88 269.57,-64.24 265.54,-55.92"/>
<polygon fill="black" stroke="black" points="290.93,-90.73 298.1,-91.5 300.14,-98.42 292.98,-97.65 290.93,-90.73"/>
<polygon fill="black" stroke="black" points="268.71,-54.43 261.41,-46.75 262.33,-57.31 268.71,-54.43"/>
<text text-anchor="middle" x="308" y="-68.8" font-family="Times New Roman,serif" font-size="14.00">parameter</text>
</g>
<!-- 1780683230656 -->
<g id="node12" class="node">
<title>1780683230656</title>
<polygon fill="aliceblue" stroke="black" points="311,-0.5 311,-46.5 380,-46.5 380,-0.5 311,-0.5"/>
<text text-anchor="middle" x="345.5" y="-31.3" font-family="Times New Roman,serif" font-size="14.00">t:Variable</text>
<polyline fill="none" stroke="black" points="311,-23.5 380,-23.5 "/>
<text text-anchor="middle" x="345.5" y="-8.3" font-family="Times New Roman,serif" font-size="14.00"> </text>
</g>
<!-- 1780683230560&#45;&gt;1780683230656 -->
<g id="edge11" class="edge">
<title>1780683230560&#45;&gt;1780683230656</title>
<path fill="none" stroke="black" d="M339.07,-86.22C340.07,-76.65 341.15,-66.29 342.13,-56.84"/>
<polygon fill="black" stroke="black" points="339.06,-86.3 342.42,-92.68 337.82,-98.23 334.46,-91.85 339.06,-86.3"/>
<polygon fill="black" stroke="black" points="345.64,-56.95 343.19,-46.64 338.68,-56.23 345.64,-56.95"/>
<text text-anchor="middle" x="372" y="-68.8" font-family="Times New Roman,serif" font-size="14.00">expression</text>
</g>
<!-- 1780683230752 -->
<g id="node14" class="node">
<title>1780683230752</title>
<polygon fill="aliceblue" stroke="black" points="303.5,-196.5 303.5,-242.5 375.5,-242.5 375.5,-196.5 303.5,-196.5"/>
<text text-anchor="middle" x="339.5" y="-227.3" font-family="Times New Roman,serif" font-size="14.00">x:Variable</text>
<polyline fill="none" stroke="black" points="303.5,-219.5 375.5,-219.5 "/>
<text text-anchor="middle" x="339.5" y="-204.3" font-family="Times New Roman,serif" font-size="14.00"> </text>
</g>
<!-- 1780683230704&#45;&gt;1780683230752 -->
<g id="edge13" class="edge">
<title>1780683230704&#45;&gt;1780683230752</title>
<path fill="none" stroke="black" d="M340.14,-282.22C340.04,-272.65 339.94,-262.29 339.84,-252.84"/>
<polygon fill="black" stroke="black" points="340.14,-282.24 344.21,-288.19 340.27,-294.23 336.21,-288.28 340.14,-282.24"/>
<polygon fill="black" stroke="black" points="343.33,-252.61 339.73,-242.64 336.34,-252.68 343.33,-252.61"/>
<text text-anchor="middle" x="368" y="-264.8" font-family="Times New Roman,serif" font-size="14.00">parameter</text>
</g>
<!-- 1780683230800 -->
<g id="node15" class="node">
<title>1780683230800</title>
<polygon fill="aliceblue" stroke="black" points="398,-196.5 398,-242.5 483,-242.5 483,-196.5 398,-196.5"/>
<text text-anchor="middle" x="440.5" y="-227.3" font-family="Times New Roman,serif" font-size="14.00">:Abstraction</text>
<polyline fill="none" stroke="black" points="398,-219.5 483,-219.5 "/>
<text text-anchor="middle" x="440.5" y="-204.3" font-family="Times New Roman,serif" font-size="14.00"> </text>
</g>
<!-- 1780683230704&#45;&gt;1780683230800 -->
<g id="edge14" class="edge">
<title>1780683230704&#45;&gt;1780683230800</title>
<path fill="none" stroke="black" d="M387.64,-287.08C392.17,-283.56 396.54,-279.84 400.5,-276 408.11,-268.62 415.28,-259.64 421.38,-251.07"/>
<polygon fill="black" stroke="black" points="387.28,-287.35 384.81,-294.13 377.61,-294.45 380.08,-287.68 387.28,-287.35"/>
<polygon fill="black" stroke="black" points="424.34,-252.94 427.11,-242.72 418.57,-248.99 424.34,-252.94"/>
<text text-anchor="middle" x="444" y="-264.8" font-family="Times New Roman,serif" font-size="14.00">expression</text>
</g>
<!-- 1780683230848 -->
<g id="node16" class="node">
<title>1780683230848</title>
<polygon fill="aliceblue" stroke="black" points="403,-98.5 403,-144.5 472,-144.5 472,-98.5 403,-98.5"/>
<text text-anchor="middle" x="437.5" y="-129.3" font-family="Times New Roman,serif" font-size="14.00">t:Variable</text>
<polyline fill="none" stroke="black" points="403,-121.5 472,-121.5 "/>
<text text-anchor="middle" x="437.5" y="-106.3" font-family="Times New Roman,serif" font-size="14.00"> </text>
</g>
<!-- 1780683230800&#45;&gt;1780683230848 -->
<g id="edge15" class="edge">
<title>1780683230800&#45;&gt;1780683230848</title>
<path fill="none" stroke="black" d="M439.43,-184.22C439.13,-174.65 438.81,-164.29 438.51,-154.84"/>
<polygon fill="black" stroke="black" points="439.43,-184.24 443.61,-190.11 439.8,-196.23 435.62,-190.36 439.43,-184.24"/>
<polygon fill="black" stroke="black" points="442,-154.53 438.19,-144.64 435.01,-154.75 442,-154.53"/>
<text text-anchor="middle" x="467" y="-166.8" font-family="Times New Roman,serif" font-size="14.00">parameter</text>
</g>
<!-- 1780683230896 -->
<g id="node17" class="node">
<title>1780683230896</title>
<polygon fill="aliceblue" stroke="black" points="494,-98.5 494,-144.5 579,-144.5 579,-98.5 494,-98.5"/>
<text text-anchor="middle" x="536.5" y="-129.3" font-family="Times New Roman,serif" font-size="14.00">:Abstraction</text>
<polyline fill="none" stroke="black" points="494,-121.5 579,-121.5 "/>
<text text-anchor="middle" x="536.5" y="-106.3" font-family="Times New Roman,serif" font-size="14.00"> </text>
</g>
<!-- 1780683230800&#45;&gt;1780683230896 -->
<g id="edge16" class="edge">
<title>1780683230800&#45;&gt;1780683230896</title>
<path fill="none" stroke="black" d="M487.17,-189.03C491.52,-185.53 495.72,-181.83 499.5,-178 506.68,-170.72 513.31,-161.86 518.92,-153.37"/>
<polygon fill="black" stroke="black" points="487.05,-189.12 484.66,-195.92 477.46,-196.34 479.85,-189.53 487.05,-189.12"/>
<polygon fill="black" stroke="black" points="521.99,-155.07 524.37,-144.74 516.07,-151.33 521.99,-155.07"/>
<text text-anchor="middle" x="541" y="-166.8" font-family="Times New Roman,serif" font-size="14.00">expression</text>
</g>
<!-- 1780683230944 -->
<g id="node18" class="node">
<title>1780683230944</title>
<polygon fill="aliceblue" stroke="black" points="455.5,-0.5 455.5,-46.5 525.5,-46.5 525.5,-0.5 455.5,-0.5"/>
<text text-anchor="middle" x="490.5" y="-31.3" font-family="Times New Roman,serif" font-size="14.00">f:Variable</text>
<polyline fill="none" stroke="black" points="455.5,-23.5 525.5,-23.5 "/>
<text text-anchor="middle" x="490.5" y="-8.3" font-family="Times New Roman,serif" font-size="14.00"> </text>
</g>
<!-- 1780683230896&#45;&gt;1780683230944 -->
<g id="edge17" class="edge">
<title>1780683230896&#45;&gt;1780683230944</title>
<path fill="none" stroke="black" d="M505.46,-88.55C503.6,-85.78 501.92,-82.91 500.5,-80 497.02,-72.84 494.74,-64.62 493.25,-56.75"/>
<polygon fill="black" stroke="black" points="505.49,-88.59 512.31,-90.93 512.77,-98.13 505.95,-95.78 505.49,-88.59"/>
<polygon fill="black" stroke="black" points="496.69,-56.06 491.71,-46.71 489.77,-57.12 496.69,-56.06"/>
<text text-anchor="middle" x="528" y="-68.8" font-family="Times New Roman,serif" font-size="14.00">parameter</text>
</g>
<!-- 1780683230992 -->
<g id="node19" class="node">
<title>1780683230992</title>
<polygon fill="aliceblue" stroke="black" points="547.5,-0.5 547.5,-46.5 617.5,-46.5 617.5,-0.5 547.5,-0.5"/>
<text text-anchor="middle" x="582.5" y="-31.3" font-family="Times New Roman,serif" font-size="14.00">f:Variable</text>
<polyline fill="none" stroke="black" points="547.5,-23.5 617.5,-23.5 "/>
<text text-anchor="middle" x="582.5" y="-8.3" font-family="Times New Roman,serif" font-size="14.00"> </text>
</g>
<!-- 1780683230896&#45;&gt;1780683230992 -->
<g id="edge18" class="edge">
<title>1780683230896&#45;&gt;1780683230992</title>
<path fill="none" stroke="black" d="M552.91,-87.4C554.13,-84.9 555.34,-82.41 556.5,-80 560.24,-72.23 564.22,-63.82 567.91,-55.95"/>
<polygon fill="black" stroke="black" points="552.87,-87.49 553.82,-94.63 547.59,-98.26 546.64,-91.11 552.87,-87.49"/>
<polygon fill="black" stroke="black" points="571.17,-57.24 572.23,-46.7 564.82,-54.27 571.17,-57.24"/>
<text text-anchor="middle" x="593" y="-68.8" font-family="Times New Roman,serif" font-size="14.00">expression</text>
</g>
</g>
</svg>
