<?xml version="1.0" encoding="UTF-8" standalone="no"?>
<!DOCTYPE svg PUBLIC "-//W3C//DTD SVG 1.1//EN"
 "http://www.w3.org/Graphics/SVG/1.1/DTD/svg11.dtd">
<!-- Generated by graphviz version 3.0.0 (20220226.1711)
 -->
<!-- Title: textX Pages: 1 -->
<svg width="229pt" height="251pt"
 viewBox="0.00 0.00 228.50 251.00" xmlns="http://www.w3.org/2000/svg" xmlns:xlink="http://www.w3.org/1999/xlink">
<g id="graph0" class="graph" transform="scale(1 1) rotate(0) translate(4 247)">
<title>textX</title>
<polygon fill="white" stroke="transparent" points="-4,4 -4,-247 224.5,-247 224.5,4 -4,4"/>
<!-- 2187261568048 -->
<g id="node1" class="node">
<title>2187261568048</title>
<polygon fill="aliceblue" stroke="black" points="91,-196.5 91,-242.5 175,-242.5 175,-196.5 91,-196.5"/>
<text text-anchor="middle" x="133" y="-227.3" font-family="Times New Roman,serif" font-size="14.00">:Application</text>
<polyline fill="none" stroke="black" points="91,-219.5 175,-219.5 "/>
<text text-anchor="middle" x="133" y="-204.3" font-family="Times New Roman,serif" font-size="14.00"> </text>
</g>
<!-- 2187261567760 -->
<g id="node2" class="node">
<title>2187261567760</title>
<polygon fill="aliceblue" stroke="black" points="40.5,-98.5 40.5,-144.5 125.5,-144.5 125.5,-98.5 40.5,-98.5"/>
<text text-anchor="middle" x="83" y="-129.3" font-family="Times New Roman,serif" font-size="14.00">:Abstraction</text>
<polyline fill="none" stroke="black" points="40.5,-121.5 125.5,-121.5 "/>
<text text-anchor="middle" x="83" y="-106.3" font-family="Times New Roman,serif" font-size="14.00"> </text>
</g>
<!-- 2187261568048&#45;&gt;2187261567760 -->
<g id="edge1" class="edge">
<title>2187261568048&#45;&gt;2187261567760</title>
<path fill="none" stroke="black" d="M115.78,-185.43C110.4,-175.12 104.5,-163.78 99.2,-153.6"/>
<polygon fill="black" stroke="black" points="115.86,-185.59 122.18,-189.07 121.4,-196.23 115.08,-192.76 115.86,-185.59"/>
<polygon fill="black" stroke="black" points="102.26,-151.9 94.53,-144.64 96.05,-155.13 102.26,-151.9"/>
<text text-anchor="middle" x="120" y="-166.8" font-family="Times New Roman,serif" font-size="14.00">left</text>
</g>
<!-- 2187261276064 -->
<g id="node5" class="node">
<title>2187261276064</title>
<polygon fill="aliceblue" stroke="black" points="147.5,-98.5 147.5,-144.5 220.5,-144.5 220.5,-98.5 147.5,-98.5"/>
<text text-anchor="middle" x="184" y="-129.3" font-family="Times New Roman,serif" font-size="14.00">b:Variable</text>
<polyline fill="none" stroke="black" points="147.5,-121.5 220.5,-121.5 "/>
<text text-anchor="middle" x="184" y="-106.3" font-family="Times New Roman,serif" font-size="14.00"> </text>
</g>
<!-- 2187261568048&#45;&gt;2187261276064 -->
<g id="edge4" class="edge">
<title>2187261568048&#45;&gt;2187261276064</title>
<path fill="none" stroke="black" d="M150.57,-185.43C156.05,-175.12 162.07,-163.78 167.48,-153.6"/>
<polygon fill="black" stroke="black" points="150.46,-185.64 151.18,-192.81 144.83,-196.23 144.11,-189.06 150.46,-185.64"/>
<polygon fill="black" stroke="black" points="170.63,-155.12 172.24,-144.64 164.45,-151.83 170.63,-155.12"/>
<text text-anchor="middle" x="174.5" y="-166.8" font-family="Times New Roman,serif" font-size="14.00">right</text>
</g>
<!-- 2187261020960 -->
<g id="node3" class="node">
<title>2187261020960</title>
<polygon fill="aliceblue" stroke="black" points="0,-0.5 0,-46.5 72,-46.5 72,-0.5 0,-0.5"/>
<text text-anchor="middle" x="36" y="-31.3" font-family="Times New Roman,serif" font-size="14.00">y:Variable</text>
<polyline fill="none" stroke="black" points="0,-23.5 72,-23.5 "/>
<text text-anchor="middle" x="36" y="-8.3" font-family="Times New Roman,serif" font-size="14.00"> </text>
</g>
<!-- 2187261567760&#45;&gt;2187261020960 -->
<g id="edge2" class="edge">
<title>2187261567760&#45;&gt;2187261020960</title>
<path fill="none" stroke="black" d="M53.09,-88.65C51.2,-85.84 49.47,-82.94 48,-80 44.42,-72.82 41.9,-64.6 40.14,-56.73"/>
<polygon fill="black" stroke="black" points="53.22,-88.83 60.03,-91.2 60.46,-98.4 53.65,-96.03 53.22,-88.83"/>
<polygon fill="black" stroke="black" points="43.53,-55.86 38.22,-46.69 36.66,-57.17 43.53,-55.86"/>
<text text-anchor="middle" x="75.5" y="-68.8" font-family="Times New Roman,serif" font-size="14.00">parameter</text>
</g>
<!-- 2187261568096 -->
<g id="node4" class="node">
<title>2187261568096</title>
<polygon fill="aliceblue" stroke="black" points="94.5,-0.5 94.5,-46.5 165.5,-46.5 165.5,-0.5 94.5,-0.5"/>
<text text-anchor="middle" x="130" y="-31.3" font-family="Times New Roman,serif" font-size="14.00">a:Variable</text>
<polyline fill="none" stroke="black" points="94.5,-23.5 165.5,-23.5 "/>
<text text-anchor="middle" x="130" y="-8.3" font-family="Times New Roman,serif" font-size="14.00"> </text>
</g>
<!-- 2187261567760&#45;&gt;2187261568096 -->
<g id="edge3" class="edge">
<title>2187261567760&#45;&gt;2187261568096</title>
<path fill="none" stroke="black" d="M100.29,-87.43C101.55,-84.92 102.8,-82.42 104,-80 107.81,-72.27 111.82,-63.87 115.51,-56"/>
<polygon fill="black" stroke="black" points="100.19,-87.62 101.01,-94.78 94.72,-98.3 93.89,-91.14 100.19,-87.62"/>
<polygon fill="black" stroke="black" points="118.77,-57.29 119.83,-46.74 112.43,-54.33 118.77,-57.29"/>
<text text-anchor="middle" x="141.5" y="-68.8" font-family="Times New Roman,serif" font-size="14.00">expression</text>
</g>
</g>
</svg>
