<?xml version="1.0" encoding="UTF-8" standalone="no"?>
<!DOCTYPE svg PUBLIC "-//W3C//DTD SVG 1.1//EN"
 "http://www.w3.org/Graphics/SVG/1.1/DTD/svg11.dtd">
<!-- Generated by graphviz version 3.0.0 (20220226.1711)
 -->
<!-- Title: textX Pages: 1 -->
<svg width="273pt" height="447pt"
 viewBox="0.00 0.00 272.50 447.00" xmlns="http://www.w3.org/2000/svg" xmlns:xlink="http://www.w3.org/1999/xlink">
<g id="graph0" class="graph" transform="scale(1 1) rotate(0) translate(4 443)">
<title>textX</title>
<polygon fill="white" stroke="transparent" points="-4,4 -4,-443 268.5,-443 268.5,4 -4,4"/>
<!-- 2187261569968 -->
<g id="node1" class="node">
<title>2187261569968</title>
<polygon fill="aliceblue" stroke="black" points="135,-392.5 135,-438.5 219,-438.5 219,-392.5 135,-392.5"/>
<text text-anchor="middle" x="177" y="-423.3" font-family="Times New Roman,serif" font-size="14.00">:Application</text>
<polyline fill="none" stroke="black" points="135,-415.5 219,-415.5 "/>
<text text-anchor="middle" x="177" y="-400.3" font-family="Times New Roman,serif" font-size="14.00"> </text>
</g>
<!-- 2187261570256 -->
<g id="node2" class="node">
<title>2187261570256</title>
<polygon fill="aliceblue" stroke="black" points="85,-294.5 85,-340.5 169,-340.5 169,-294.5 85,-294.5"/>
<text text-anchor="middle" x="127" y="-325.3" font-family="Times New Roman,serif" font-size="14.00">:Application</text>
<polyline fill="none" stroke="black" points="85,-317.5 169,-317.5 "/>
<text text-anchor="middle" x="127" y="-302.3" font-family="Times New Roman,serif" font-size="14.00"> </text>
</g>
<!-- 2187261569968&#45;&gt;2187261570256 -->
<g id="edge1" class="edge">
<title>2187261569968&#45;&gt;2187261570256</title>
<path fill="none" stroke="black" d="M159.78,-381.43C154.4,-371.12 148.5,-359.78 143.2,-349.6"/>
<polygon fill="black" stroke="black" points="159.86,-381.59 166.18,-385.07 165.4,-392.23 159.08,-388.76 159.86,-381.59"/>
<polygon fill="black" stroke="black" points="146.26,-347.9 138.53,-340.64 140.05,-351.13 146.26,-347.9"/>
<text text-anchor="middle" x="164" y="-362.8" font-family="Times New Roman,serif" font-size="14.00">left</text>
</g>
<!-- 2187261567856 -->
<g id="node9" class="node">
<title>2187261567856</title>
<polygon fill="aliceblue" stroke="black" points="191.5,-294.5 191.5,-340.5 264.5,-340.5 264.5,-294.5 191.5,-294.5"/>
<text text-anchor="middle" x="228" y="-325.3" font-family="Times New Roman,serif" font-size="14.00">b:Variable</text>
<polyline fill="none" stroke="black" points="191.5,-317.5 264.5,-317.5 "/>
<text text-anchor="middle" x="228" y="-302.3" font-family="Times New Roman,serif" font-size="14.00"> </text>
</g>
<!-- 2187261569968&#45;&gt;2187261567856 -->
<g id="edge8" class="edge">
<title>2187261569968&#45;&gt;2187261567856</title>
<path fill="none" stroke="black" d="M194.57,-381.43C200.05,-371.12 206.07,-359.78 211.48,-349.6"/>
<polygon fill="black" stroke="black" points="194.46,-381.64 195.18,-388.81 188.83,-392.23 188.11,-385.06 194.46,-381.64"/>
<polygon fill="black" stroke="black" points="214.63,-351.12 216.24,-340.64 208.45,-347.83 214.63,-351.12"/>
<text text-anchor="middle" x="218.5" y="-362.8" font-family="Times New Roman,serif" font-size="14.00">right</text>
</g>
<!-- 2187261569872 -->
<g id="node3" class="node">
<title>2187261569872</title>
<polygon fill="aliceblue" stroke="black" points="34.5,-196.5 34.5,-242.5 119.5,-242.5 119.5,-196.5 34.5,-196.5"/>
<text text-anchor="middle" x="77" y="-227.3" font-family="Times New Roman,serif" font-size="14.00">:Abstraction</text>
<polyline fill="none" stroke="black" points="34.5,-219.5 119.5,-219.5 "/>
<text text-anchor="middle" x="77" y="-204.3" font-family="Times New Roman,serif" font-size="14.00"> </text>
</g>
<!-- 2187261570256&#45;&gt;2187261569872 -->
<g id="edge2" class="edge">
<title>2187261570256&#45;&gt;2187261569872</title>
<path fill="none" stroke="black" d="M109.78,-283.43C104.4,-273.12 98.5,-261.78 93.2,-251.6"/>
<polygon fill="black" stroke="black" points="109.86,-283.59 116.18,-287.07 115.4,-294.23 109.08,-290.76 109.86,-283.59"/>
<polygon fill="black" stroke="black" points="96.26,-249.9 88.53,-242.64 90.05,-253.13 96.26,-249.9"/>
<text text-anchor="middle" x="114" y="-264.8" font-family="Times New Roman,serif" font-size="14.00">left</text>
</g>
<!-- 2187261569440 -->
<g id="node8" class="node">
<title>2187261569440</title>
<polygon fill="aliceblue" stroke="black" points="141.5,-196.5 141.5,-242.5 212.5,-242.5 212.5,-196.5 141.5,-196.5"/>
<text text-anchor="middle" x="177" y="-227.3" font-family="Times New Roman,serif" font-size="14.00">a:Variable</text>
<polyline fill="none" stroke="black" points="141.5,-219.5 212.5,-219.5 "/>
<text text-anchor="middle" x="177" y="-204.3" font-family="Times New Roman,serif" font-size="14.00"> </text>
</g>
<!-- 2187261570256&#45;&gt;2187261569440 -->
<g id="edge7" class="edge">
<title>2187261570256&#45;&gt;2187261569440</title>
<path fill="none" stroke="black" d="M144.22,-283.43C149.6,-273.12 155.5,-261.78 160.8,-251.6"/>
<polygon fill="black" stroke="black" points="144.14,-283.59 144.92,-290.76 138.6,-294.23 137.82,-287.07 144.14,-283.59"/>
<polygon fill="black" stroke="black" points="163.95,-253.13 165.47,-242.64 157.74,-249.9 163.95,-253.13"/>
<text text-anchor="middle" x="167.5" y="-264.8" font-family="Times New Roman,serif" font-size="14.00">right</text>
</g>
<!-- 2187261569056 -->
<g id="node4" class="node">
<title>2187261569056</title>
<polygon fill="aliceblue" stroke="black" points="0,-98.5 0,-144.5 72,-144.5 72,-98.5 0,-98.5"/>
<text text-anchor="middle" x="36" y="-129.3" font-family="Times New Roman,serif" font-size="14.00">x:Variable</text>
<polyline fill="none" stroke="black" points="0,-121.5 72,-121.5 "/>
<text text-anchor="middle" x="36" y="-106.3" font-family="Times New Roman,serif" font-size="14.00"> </text>
</g>
<!-- 2187261569872&#45;&gt;2187261569056 -->
<g id="edge3" class="edge">
<title>2187261569872&#45;&gt;2187261569056</title>
<path fill="none" stroke="black" d="M49.33,-186.27C47.7,-183.57 46.23,-180.8 45,-178 41.8,-170.73 39.73,-162.48 38.38,-154.6"/>
<polygon fill="black" stroke="black" points="49.4,-186.37 56.09,-189.06 56.19,-196.27 49.49,-193.58 49.4,-186.37"/>
<polygon fill="black" stroke="black" points="41.83,-154.01 37.01,-144.57 34.9,-154.96 41.83,-154.01"/>
<text text-anchor="middle" x="72.5" y="-166.8" font-family="Times New Roman,serif" font-size="14.00">parameter</text>
</g>
<!-- 2187261569296 -->
<g id="node5" class="node">
<title>2187261569296</title>
<polygon fill="aliceblue" stroke="black" points="94.5,-98.5 94.5,-144.5 179.5,-144.5 179.5,-98.5 94.5,-98.5"/>
<text text-anchor="middle" x="137" y="-129.3" font-family="Times New Roman,serif" font-size="14.00">:Abstraction</text>
<polyline fill="none" stroke="black" points="94.5,-121.5 179.5,-121.5 "/>
<text text-anchor="middle" x="137" y="-106.3" font-family="Times New Roman,serif" font-size="14.00"> </text>
</g>
<!-- 2187261569872&#45;&gt;2187261569296 -->
<g id="edge4" class="edge">
<title>2187261569872&#45;&gt;2187261569296</title>
<path fill="none" stroke="black" d="M97.41,-185.84C103.98,-175.34 111.22,-163.75 117.7,-153.38"/>
<polygon fill="black" stroke="black" points="97.28,-186.06 97.49,-193.27 90.92,-196.23 90.7,-189.03 97.28,-186.06"/>
<polygon fill="black" stroke="black" points="120.83,-154.98 123.16,-144.64 114.89,-151.27 120.83,-154.98"/>
<text text-anchor="middle" x="141.5" y="-166.8" font-family="Times New Roman,serif" font-size="14.00">expression</text>
</g>
<!-- 2187261569104 -->
<g id="node6" class="node">
<title>2187261569104</title>
<polygon fill="aliceblue" stroke="black" points="54,-0.5 54,-46.5 126,-46.5 126,-0.5 54,-0.5"/>
<text text-anchor="middle" x="90" y="-31.3" font-family="Times New Roman,serif" font-size="14.00">y:Variable</text>
<polyline fill="none" stroke="black" points="54,-23.5 126,-23.5 "/>
<text text-anchor="middle" x="90" y="-8.3" font-family="Times New Roman,serif" font-size="14.00"> </text>
</g>
<!-- 2187261569296&#45;&gt;2187261569104 -->
<g id="edge5" class="edge">
<title>2187261569296&#45;&gt;2187261569104</title>
<path fill="none" stroke="black" d="M107.09,-88.65C105.2,-85.84 103.47,-82.94 102,-80 98.42,-72.82 95.9,-64.6 94.14,-56.73"/>
<polygon fill="black" stroke="black" points="107.22,-88.83 114.03,-91.2 114.46,-98.4 107.65,-96.03 107.22,-88.83"/>
<polygon fill="black" stroke="black" points="97.53,-55.86 92.22,-46.69 90.66,-57.17 97.53,-55.86"/>
<text text-anchor="middle" x="129.5" y="-68.8" font-family="Times New Roman,serif" font-size="14.00">parameter</text>
</g>
<!-- 2187261569248 -->
<g id="node7" class="node">
<title>2187261569248</title>
<polygon fill="aliceblue" stroke="black" points="148,-0.5 148,-46.5 220,-46.5 220,-0.5 148,-0.5"/>
<text text-anchor="middle" x="184" y="-31.3" font-family="Times New Roman,serif" font-size="14.00">x:Variable</text>
<polyline fill="none" stroke="black" points="148,-23.5 220,-23.5 "/>
<text text-anchor="middle" x="184" y="-8.3" font-family="Times New Roman,serif" font-size="14.00"> </text>
</g>
<!-- 2187261569296&#45;&gt;2187261569248 -->
<g id="edge6" class="edge">
<title>2187261569296&#45;&gt;2187261569248</title>
<path fill="none" stroke="black" d="M154.29,-87.43C155.55,-84.92 156.8,-82.42 158,-80 161.81,-72.27 165.82,-63.87 169.51,-56"/>
<polygon fill="black" stroke="black" points="154.19,-87.62 155.01,-94.78 148.72,-98.3 147.89,-91.14 154.19,-87.62"/>
<polygon fill="black" stroke="black" points="172.77,-57.29 173.83,-46.74 166.43,-54.33 172.77,-57.29"/>
<text text-anchor="middle" x="195.5" y="-68.8" font-family="Times New Roman,serif" font-size="14.00">expression</text>
</g>
</g>
</svg>
