<?xml version="1.0" encoding="UTF-8" standalone="no"?>
<!DOCTYPE svg PUBLIC "-//W3C//DTD SVG 1.1//EN"
 "http://www.w3.org/Graphics/SVG/1.1/DTD/svg11.dtd">
<!-- Generated by graphviz version 3.0.0 (20220226.1711)
 -->
<!-- Title: textX Pages: 1 -->
<svg width="224pt" height="221pt"
 viewBox="0.00 0.00 224.00 221.00" xmlns="http://www.w3.org/2000/svg" xmlns:xlink="http://www.w3.org/1999/xlink">
<g id="graph0" class="graph" transform="scale(1 1) rotate(0) translate(4 217)">
<title>textX</title>
<polygon fill="white" stroke="transparent" points="-4,4 -4,-217 220,-217 220,4 -4,4"/>
<!-- 2263863266480 -->
<g id="node1" class="node">
<title>2263863266480</title>
<polygon fill="aliceblue" stroke="black" points="80.5,-166.5 80.5,-212.5 166.5,-212.5 166.5,-166.5 80.5,-166.5"/>
<text text-anchor="middle" x="123.5" y="-197.3" font-family="Times New Roman,serif" font-size="14.00">*Expression</text>
<polyline fill="none" stroke="black" points="80.5,-189.5 166.5,-189.5 "/>
<text text-anchor="middle" x="123.5" y="-174.3" font-family="Times New Roman,serif" font-size="14.00"> </text>
</g>
<!-- 2263863243824 -->
<g id="node2" class="node">
<title>2263863243824</title>
<polygon fill="aliceblue" stroke="black" points="0,-0.5 0,-46.5 67,-46.5 67,-0.5 0,-0.5"/>
<text text-anchor="middle" x="33.5" y="-31.3" font-family="Times New Roman,serif" font-size="14.00">Variable</text>
<polyline fill="none" stroke="black" points="0,-23.5 67,-23.5 "/>
<text text-anchor="start" x="8" y="-8.3" font-family="Times New Roman,serif" font-size="14.00">name: ID</text>
</g>
<!-- 2263863266480&#45;&gt;2263863243824 -->
<g id="edge2" class="edge">
<title>2263863266480&#45;&gt;2263863243824</title>
<path fill="none" stroke="black" d="M71.16,-172.01C51.36,-162.93 30.88,-149.45 19.5,-130 4.48,-104.32 13.89,-69.21 22.94,-46.69"/>
<polygon fill="none" stroke="black" points="69.91,-175.28 80.48,-176 72.66,-168.84 69.91,-175.28"/>
</g>
<!-- 2263863249488 -->
<g id="node3" class="node">
<title>2263863249488</title>
<polygon fill="aliceblue" stroke="black" points="30.5,-83.5 30.5,-129.5 112.5,-129.5 112.5,-83.5 30.5,-83.5"/>
<text text-anchor="middle" x="71.5" y="-114.3" font-family="Times New Roman,serif" font-size="14.00">Abstraction</text>
<polyline fill="none" stroke="black" points="30.5,-106.5 112.5,-106.5 "/>
<text text-anchor="middle" x="71.5" y="-91.3" font-family="Times New Roman,serif" font-size="14.00"> </text>
</g>
<!-- 2263863266480&#45;&gt;2263863249488 -->
<g id="edge1" class="edge">
<title>2263863266480&#45;&gt;2263863249488</title>
<path fill="none" stroke="black" d="M95.89,-157.99C89.4,-148.56 83.04,-138.35 78.25,-129.61"/>
<polygon fill="none" stroke="black" points="93.2,-160.24 101.85,-166.37 98.9,-156.19 93.2,-160.24"/>
</g>
<!-- 2263863256096 -->
<g id="node4" class="node">
<title>2263863256096</title>
<polygon fill="aliceblue" stroke="black" points="135,-83.5 135,-129.5 216,-129.5 216,-83.5 135,-83.5"/>
<text text-anchor="middle" x="175.5" y="-114.3" font-family="Times New Roman,serif" font-size="14.00">Application</text>
<polyline fill="none" stroke="black" points="135,-106.5 216,-106.5 "/>
<text text-anchor="middle" x="175.5" y="-91.3" font-family="Times New Roman,serif" font-size="14.00"> </text>
</g>
<!-- 2263863266480&#45;&gt;2263863256096 -->
<g id="edge3" class="edge">
<title>2263863266480&#45;&gt;2263863256096</title>
<path fill="none" stroke="black" d="M127.36,-157.41C132.51,-148.14 139.31,-138.18 146.42,-129.61"/>
<polygon fill="none" stroke="black" points="124.22,-155.86 122.82,-166.37 130.46,-159.03 124.22,-155.86"/>
</g>
<!-- 2263863249488&#45;&gt;2263863266480 -->
<g id="edge5" class="edge">
<title>2263863249488&#45;&gt;2263863266480</title>
<path fill="none" stroke="black" d="M100.28,-139.73C104.24,-145.55 108.12,-151.62 111.59,-157.41"/>
<polygon fill="black" stroke="black" points="100.06,-139.41 93.33,-136.82 93.13,-129.61 99.86,-132.2 100.06,-139.41"/>
<polygon fill="black" stroke="black" points="108.72,-159.44 116.74,-166.37 114.79,-155.95 108.72,-159.44"/>
<text text-anchor="middle" x="84.74" y="-155.17" font-family="Times New Roman,serif" font-size="14.00">expression </text>
</g>
<!-- 2263863249488&#45;&gt;2263863243824 -->
<g id="edge4" class="edge">
<title>2263863249488&#45;&gt;2263863243824</title>
<path fill="none" stroke="black" d="M55.96,-72.37C53.41,-66.95 50.78,-61.34 48.26,-55.96"/>
<polygon fill="black" stroke="black" points="56.02,-72.5 62.19,-76.24 61.12,-83.37 54.95,-79.63 56.02,-72.5"/>
<polygon fill="black" stroke="black" points="51.29,-54.17 43.87,-46.61 44.95,-57.15 51.29,-54.17"/>
<text text-anchor="middle" x="73.37" y="-50.41" font-family="Times New Roman,serif" font-size="14.00">parameter </text>
</g>
<!-- 2263863256096&#45;&gt;2263863266480 -->
<g id="edge6" class="edge">
<title>2263863256096&#45;&gt;2263863266480</title>
<path fill="none" stroke="black" d="M154.74,-139.83C150.96,-145.72 147.03,-151.85 143.27,-157.7"/>
<polygon fill="black" stroke="black" points="154.83,-139.71 154.7,-132.5 161.31,-129.61 161.43,-136.82 154.83,-139.71"/>
<polygon fill="black" stroke="black" points="140.17,-156.06 137.71,-166.37 146.06,-159.84 140.17,-156.06"/>
<text text-anchor="middle" x="148.71" y="-155.17" font-family="Times New Roman,serif" font-size="14.00">left </text>
</g>
<!-- 2263863256096&#45;&gt;2263863266480 -->
<g id="edge7" class="edge">
<title>2263863256096&#45;&gt;2263863266480</title>
<path fill="none" stroke="black" d="M170.56,-140.5C167.19,-146.38 163.2,-152.48 158.92,-158.27"/>
<polygon fill="black" stroke="black" points="170.68,-140.27 169.88,-133.1 176.19,-129.61 176.99,-136.77 170.68,-140.27"/>
<polygon fill="black" stroke="black" points="156,-156.33 152.6,-166.37 161.51,-160.64 156,-156.33"/>
<text text-anchor="middle" x="167.1" y="-155.17" font-family="Times New Roman,serif" font-size="14.00">right </text>
</g>
</g>
</svg>
