<?xml version="1.0" encoding="UTF-8" standalone="no"?>
<!DOCTYPE svg PUBLIC "-//W3C//DTD SVG 1.1//EN"
 "http://www.w3.org/Graphics/SVG/1.1/DTD/svg11.dtd">
<!-- Generated by graphviz version 8.0.5 (20230430.1635)
 -->
<!-- Title: textX Pages: 1 -->
<svg width="284pt" height="395pt"
 viewBox="0.00 0.00 284.12 394.50" xmlns="http://www.w3.org/2000/svg" xmlns:xlink="http://www.w3.org/1999/xlink">
<g id="graph0" class="graph" transform="scale(1 1) rotate(0) translate(4 390.5)">
<title>textX</title>
<polygon fill="white" stroke="none" points="-4,4 -4,-390.5 280.12,-390.5 280.12,4 -4,4"/>
<!-- 1490238585000 -->
<g id="node1" class="node">
<title>1490238585000</title>
<polygon fill="aliceblue" stroke="black" points="102.12,-338.5 102.12,-386 179.62,-386 179.62,-338.5 102.12,-338.5"/>
<text text-anchor="middle" x="140.88" y="-368.7" font-family="Times New Roman,serif" font-size="14.00">*Statement</text>
<polyline fill="none" stroke="black" points="102.12,-362.25 179.62,-362.25"/>
<text text-anchor="middle" x="140.88" y="-344.95" font-family="Times New Roman,serif" font-size="14.00"> </text>
</g>
<!-- 1490236788664 -->
<g id="node2" class="node">
<title>1490236788664</title>
<polygon fill="aliceblue" stroke="black" points="46,-254 46,-301.5 149.75,-301.5 149.75,-254 46,-254"/>
<text text-anchor="middle" x="97.88" y="-284.2" font-family="Times New Roman,serif" font-size="14.00">Assignment</text>
<polyline fill="none" stroke="black" points="46,-277.75 149.75,-277.75"/>
<text text-anchor="start" x="54" y="-260.45" font-family="Times New Roman,serif" font-size="14.00">name: OBJECT</text>
</g>
<!-- 1490238585000&#45;&gt;1490236788664 -->
<g id="edge1" class="edge">
<title>1490238585000&#45;&gt;1490236788664</title>
<path fill="none" stroke="black" d="M124.06,-328.99C119.23,-319.72 114.06,-309.81 109.61,-301.27"/>
<polygon fill="none" stroke="black" points="121.4,-330.46 129.13,-337.71 127.61,-327.22 121.4,-330.46"/>
</g>
<!-- 1490236794328 -->
<g id="node3" class="node">
<title>1490236794328</title>
<polygon fill="aliceblue" stroke="black" points="98.38,-169.5 98.38,-217 183.38,-217 183.38,-169.5 98.38,-169.5"/>
<text text-anchor="middle" x="140.88" y="-199.7" font-family="Times New Roman,serif" font-size="14.00">*Expression</text>
<polyline fill="none" stroke="black" points="98.38,-193.25 183.38,-193.25"/>
<text text-anchor="middle" x="140.88" y="-175.95" font-family="Times New Roman,serif" font-size="14.00"> </text>
</g>
<!-- 1490238585000&#45;&gt;1490236794328 -->
<g id="edge2" class="edge">
<title>1490238585000&#45;&gt;1490236794328</title>
<path fill="none" stroke="black" d="M154.08,-328.38C156.89,-319.92 159.44,-310.74 160.88,-302 164.37,-280.73 164.37,-274.77 160.88,-253.5 158.83,-241.07 154.54,-227.74 150.45,-216.88"/>
<polygon fill="none" stroke="black" points="150.49,-327.03 150.45,-337.62 157.09,-329.37 150.49,-327.03"/>
</g>
<!-- 1490236788664&#45;&gt;1490236794328 -->
<g id="edge3" class="edge">
<title>1490236788664&#45;&gt;1490236794328</title>
<path fill="none" stroke="black" d="M115.62,-242.71C118.47,-237.24 121.41,-231.6 124.23,-226.18"/>
<polygon fill="black" stroke="black" points="115.59,-242.77 116.36,-249.94 110.04,-253.41 109.27,-246.24 115.59,-242.77"/>
<polygon fill="black" stroke="black" points="127.62,-228.25 129.14,-217.77 121.41,-225.02 127.62,-228.25"/>
<text text-anchor="middle" x="97.26" y="-219.22" font-family="Times New Roman,serif" font-size="14.00">expression </text>
</g>
<!-- 1490236791496 -->
<g id="node4" class="node">
<title>1490236791496</title>
<polygon fill="aliceblue" stroke="black" points="0,-0.5 0,-48 103.75,-48 103.75,-0.5 0,-0.5"/>
<text text-anchor="middle" x="51.88" y="-30.7" font-family="Times New Roman,serif" font-size="14.00">Variable</text>
<polyline fill="none" stroke="black" points="0,-24.25 103.75,-24.25"/>
<text text-anchor="start" x="8" y="-6.95" font-family="Times New Roman,serif" font-size="14.00">name: OBJECT</text>
</g>
<!-- 1490236794328&#45;&gt;1490236791496 -->
<g id="edge5" class="edge">
<title>1490236794328&#45;&gt;1490236791496</title>
<path fill="none" stroke="black" d="M88.44,-175C69,-165.78 49,-152.24 37.88,-133 22.67,-106.71 32.13,-70.87 41.24,-47.89"/>
<polygon fill="none" stroke="black" points="86.94,-178.61 97.5,-179.45 89.77,-172.21 86.94,-178.61"/>
</g>
<!-- 1490236766008 -->
<g id="node5" class="node">
<title>1490236766008</title>
<polygon fill="aliceblue" stroke="black" points="49.25,-85 49.25,-132.5 130.5,-132.5 130.5,-85 49.25,-85"/>
<text text-anchor="middle" x="89.88" y="-115.2" font-family="Times New Roman,serif" font-size="14.00">Abstraction</text>
<polyline fill="none" stroke="black" points="49.25,-108.75 130.5,-108.75"/>
<text text-anchor="middle" x="89.88" y="-91.45" font-family="Times New Roman,serif" font-size="14.00"> </text>
</g>
<!-- 1490236794328&#45;&gt;1490236766008 -->
<g id="edge4" class="edge">
<title>1490236794328&#45;&gt;1490236766008</title>
<path fill="none" stroke="black" d="M113.44,-160.88C107.14,-151.35 100.99,-141.08 96.35,-132.27"/>
<polygon fill="none" stroke="black" points="110.95,-162.44 119.49,-168.71 116.73,-158.48 110.95,-162.44"/>
</g>
<!-- 1490236787720 -->
<g id="node6" class="node">
<title>1490236787720</title>
<polygon fill="aliceblue" stroke="black" points="152.62,-85 152.62,-132.5 233.12,-132.5 233.12,-85 152.62,-85"/>
<text text-anchor="middle" x="192.88" y="-115.2" font-family="Times New Roman,serif" font-size="14.00">Application</text>
<polyline fill="none" stroke="black" points="152.62,-108.75 233.12,-108.75"/>
<text text-anchor="middle" x="192.88" y="-91.45" font-family="Times New Roman,serif" font-size="14.00"> </text>
</g>
<!-- 1490236794328&#45;&gt;1490236787720 -->
<g id="edge6" class="edge">
<title>1490236794328&#45;&gt;1490236787720</title>
<path fill="none" stroke="black" d="M145.06,-159.99C150.17,-150.72 156.83,-140.81 163.8,-132.27"/>
<polygon fill="none" stroke="black" points="141.54,-158.2 140.2,-168.71 147.8,-161.33 141.54,-158.2"/>
</g>
<!-- 1490236766008&#45;&gt;1490236794328 -->
<g id="edge8" class="edge">
<title>1490236766008&#45;&gt;1490236794328</title>
<path fill="none" stroke="black" d="M118.48,-142.9C122.22,-148.63 125.89,-154.59 129.18,-160.29"/>
<polygon fill="black" stroke="black" points="118.5,-142.93 111.81,-140.22 111.74,-133.01 118.43,-135.72 118.5,-142.93"/>
<polygon fill="black" stroke="black" points="126.48,-161.65 134.38,-168.71 132.61,-158.26 126.48,-161.65"/>
<text text-anchor="middle" x="102.51" y="-156.41" font-family="Times New Roman,serif" font-size="14.00">expression </text>
</g>
<!-- 1490236766008&#45;&gt;1490236791496 -->
<g id="edge7" class="edge">
<title>1490236766008&#45;&gt;1490236791496</title>
<path fill="none" stroke="black" d="M74.06,-73.41C71.63,-68.13 69.13,-62.7 66.72,-57.47"/>
<polygon fill="black" stroke="black" points="74.09,-73.49 80.24,-77.26 79.11,-84.39 72.97,-80.61 74.09,-73.49"/>
<polygon fill="black" stroke="black" points="69.61,-56.38 62.25,-48.77 63.25,-59.31 69.61,-56.38"/>
<text text-anchor="middle" x="91.5" y="-50.22" font-family="Times New Roman,serif" font-size="14.00">parameter </text>
</g>
<!-- 1490236787720&#45;&gt;1490236794328 -->
<g id="edge9" class="edge">
<title>1490236787720&#45;&gt;1490236794328</title>
<path fill="none" stroke="black" d="M171.91,-143.02C168.25,-148.81 164.46,-154.83 160.84,-160.58"/>
<polygon fill="black" stroke="black" points="171.8,-143.18 171.62,-135.97 178.2,-133.03 178.39,-140.24 171.8,-143.18"/>
<polygon fill="black" stroke="black" points="157.46,-158.38 155.08,-168.71 163.38,-162.11 157.46,-158.38"/>
<text text-anchor="middle" x="144.58" y="-156.41" font-family="Times New Roman,serif" font-size="14.00">left </text>
</g>
<!-- 1490236787720&#45;&gt;1490236794328 -->
<g id="edge10" class="edge">
<title>1490236787720&#45;&gt;1490236794328</title>
<path fill="none" stroke="black" d="M187.74,-143.71C184.47,-149.49 180.62,-155.47 176.51,-161.17"/>
<polygon fill="black" stroke="black" points="187.71,-143.76 186.87,-136.6 193.16,-133.07 194,-140.23 187.71,-143.76"/>
<polygon fill="black" stroke="black" points="173.27,-158.64 169.97,-168.71 178.83,-162.9 173.27,-158.64"/>
<text text-anchor="middle" x="184.22" y="-156.41" font-family="Times New Roman,serif" font-size="14.00">right </text>
</g>
<!-- 1490238589720 -->
<g id="node7" class="node">
<title>1490238589720</title>
<polygon fill="aliceblue" stroke="black" points="201.62,-338.5 201.62,-386 276.12,-386 276.12,-338.5 201.62,-338.5"/>
<text text-anchor="middle" x="238.88" y="-368.7" font-family="Times New Roman,serif" font-size="14.00">*OBJECT</text>
<polyline fill="none" stroke="black" points="201.62,-362.25 276.12,-362.25"/>
<text text-anchor="middle" x="238.88" y="-344.95" font-family="Times New Roman,serif" font-size="14.00"> </text>
</g>
</g>
</svg>
