<?xml version="1.0" encoding="UTF-8" standalone="no"?>
<!DOCTYPE svg PUBLIC "-//W3C//DTD SVG 1.1//EN"
 "http://www.w3.org/Graphics/SVG/1.1/DTD/svg11.dtd">
<!-- Generated by graphviz version 3.0.0 (20220226.1711)
 -->
<!-- Title: textX Pages: 1 -->
<svg width="239pt" height="251pt"
 viewBox="0.00 0.00 238.50 251.00" xmlns="http://www.w3.org/2000/svg" xmlns:xlink="http://www.w3.org/1999/xlink">
<g id="graph0" class="graph" transform="scale(1 1) rotate(0) translate(4 247)">
<title>textX</title>
<polygon fill="white" stroke="transparent" points="-4,4 -4,-247 234.5,-247 234.5,4 -4,4"/>
<!-- 2358446067664 -->
<g id="node1" class="node">
<title>2358446067664</title>
<polygon fill="aliceblue" stroke="black" points="95.5,-196.5 95.5,-242.5 179.5,-242.5 179.5,-196.5 95.5,-196.5"/>
<text text-anchor="middle" x="137.5" y="-227.3" font-family="Times New Roman,serif" font-size="14.00">:Application</text>
<polyline fill="none" stroke="black" points="95.5,-219.5 179.5,-219.5 "/>
<text text-anchor="middle" x="137.5" y="-204.3" font-family="Times New Roman,serif" font-size="14.00"> </text>
</g>
<!-- 2358446068048 -->
<g id="node2" class="node">
<title>2358446068048</title>
<polygon fill="aliceblue" stroke="black" points="43,-98.5 43,-144.5 128,-144.5 128,-98.5 43,-98.5"/>
<text text-anchor="middle" x="85.5" y="-129.3" font-family="Times New Roman,serif" font-size="14.00">:Abstraction</text>
<polyline fill="none" stroke="black" points="43,-121.5 128,-121.5 "/>
<text text-anchor="middle" x="85.5" y="-106.3" font-family="Times New Roman,serif" font-size="14.00"> </text>
</g>
<!-- 2358446067664&#45;&gt;2358446068048 -->
<g id="edge1" class="edge">
<title>2358446067664&#45;&gt;2358446068048</title>
<path fill="none" stroke="black" d="M119.59,-185.43C114,-175.12 107.86,-163.78 102.35,-153.6"/>
<polygon fill="black" stroke="black" points="119.72,-185.68 126.1,-189.05 125.44,-196.23 119.06,-192.86 119.72,-185.68"/>
<polygon fill="black" stroke="black" points="105.34,-151.77 97.5,-144.64 99.18,-155.1 105.34,-151.77"/>
<text text-anchor="middle" x="124.5" y="-166.8" font-family="Times New Roman,serif" font-size="14.00">left</text>
</g>
<!-- 2358446068480 -->
<g id="node5" class="node">
<title>2358446068480</title>
<polygon fill="aliceblue" stroke="black" points="150.5,-98.5 150.5,-144.5 230.5,-144.5 230.5,-98.5 150.5,-98.5"/>
<text text-anchor="middle" x="190.5" y="-129.3" font-family="Times New Roman,serif" font-size="14.00">p2:Variable</text>
<polyline fill="none" stroke="black" points="150.5,-121.5 230.5,-121.5 "/>
<text text-anchor="middle" x="190.5" y="-106.3" font-family="Times New Roman,serif" font-size="14.00"> </text>
</g>
<!-- 2358446067664&#45;&gt;2358446068480 -->
<g id="edge4" class="edge">
<title>2358446067664&#45;&gt;2358446068480</title>
<path fill="none" stroke="black" d="M155.76,-185.43C161.45,-175.12 167.71,-163.78 173.33,-153.6"/>
<polygon fill="black" stroke="black" points="155.59,-185.73 156.19,-192.91 149.79,-196.23 149.19,-189.05 155.59,-185.73"/>
<polygon fill="black" stroke="black" points="176.51,-155.09 178.27,-144.64 170.38,-151.71 176.51,-155.09"/>
<text text-anchor="middle" x="180" y="-166.8" font-family="Times New Roman,serif" font-size="14.00">right</text>
</g>
<!-- 2358446068432 -->
<g id="node3" class="node">
<title>2358446068432</title>
<polygon fill="aliceblue" stroke="black" points="0,-0.5 0,-46.5 73,-46.5 73,-0.5 0,-0.5"/>
<text text-anchor="middle" x="36.5" y="-31.3" font-family="Times New Roman,serif" font-size="14.00">b:Variable</text>
<polyline fill="none" stroke="black" points="0,-23.5 73,-23.5 "/>
<text text-anchor="middle" x="36.5" y="-8.3" font-family="Times New Roman,serif" font-size="14.00"> </text>
</g>
<!-- 2358446068048&#45;&gt;2358446068432 -->
<g id="edge2" class="edge">
<title>2358446068048&#45;&gt;2358446068432</title>
<path fill="none" stroke="black" d="M58.58,-88.57C56.73,-85.75 55.01,-82.88 53.5,-80 49.65,-72.66 46.52,-64.3 44.04,-56.35"/>
<polygon fill="black" stroke="black" points="58.64,-88.65 65.39,-91.19 65.64,-98.4 58.89,-95.86 58.64,-88.65"/>
<polygon fill="black" stroke="black" points="47.37,-55.24 41.25,-46.58 40.63,-57.16 47.37,-55.24"/>
<text text-anchor="middle" x="81" y="-68.8" font-family="Times New Roman,serif" font-size="14.00">parameter</text>
</g>
<!-- 2358445652816 -->
<g id="node4" class="node">
<title>2358445652816</title>
<polygon fill="aliceblue" stroke="black" points="95.5,-0.5 95.5,-46.5 175.5,-46.5 175.5,-0.5 95.5,-0.5"/>
<text text-anchor="middle" x="135.5" y="-31.3" font-family="Times New Roman,serif" font-size="14.00">p1:Variable</text>
<polyline fill="none" stroke="black" points="95.5,-23.5 175.5,-23.5 "/>
<text text-anchor="middle" x="135.5" y="-8.3" font-family="Times New Roman,serif" font-size="14.00"> </text>
</g>
<!-- 2358446068048&#45;&gt;2358445652816 -->
<g id="edge3" class="edge">
<title>2358446068048&#45;&gt;2358445652816</title>
<path fill="none" stroke="black" d="M105.23,-87.81C106.71,-85.19 108.15,-82.56 109.5,-80 113.57,-72.31 117.69,-63.87 121.41,-55.95"/>
<polygon fill="black" stroke="black" points="105.1,-88.05 105.56,-95.24 99.1,-98.44 98.63,-91.24 105.1,-88.05"/>
<polygon fill="black" stroke="black" points="124.71,-57.16 125.73,-46.62 118.36,-54.22 124.71,-57.16"/>
<text text-anchor="middle" x="147" y="-68.8" font-family="Times New Roman,serif" font-size="14.00">expression</text>
</g>
</g>
</svg>
