<?xml version="1.0" encoding="UTF-8" standalone="no"?>
<!DOCTYPE svg PUBLIC "-//W3C//DTD SVG 1.1//EN"
 "http://www.w3.org/Graphics/SVG/1.1/DTD/svg11.dtd">
<!-- Generated by graphviz version 3.0.0 (20220226.1711)
 -->
<!-- Title: textX Pages: 1 -->
<svg width="283pt" height="447pt"
 viewBox="0.00 0.00 283.00 447.00" xmlns="http://www.w3.org/2000/svg" xmlns:xlink="http://www.w3.org/1999/xlink">
<g id="graph0" class="graph" transform="scale(1 1) rotate(0) translate(4 443)">
<title>textX</title>
<polygon fill="white" stroke="transparent" points="-4,4 -4,-443 279,-443 279,4 -4,4"/>
<!-- 2145729739648 -->
<g id="node1" class="node">
<title>2145729739648</title>
<polygon fill="aliceblue" stroke="black" points="85,-392.5 85,-438.5 169,-438.5 169,-392.5 85,-392.5"/>
<text text-anchor="middle" x="127" y="-423.3" font-family="Times New Roman,serif" font-size="14.00">:Application</text>
<polyline fill="none" stroke="black" points="85,-415.5 169,-415.5 "/>
<text text-anchor="middle" x="127" y="-400.3" font-family="Times New Roman,serif" font-size="14.00"> </text>
</g>
<!-- 2145729739744 -->
<g id="node2" class="node">
<title>2145729739744</title>
<polygon fill="aliceblue" stroke="black" points="34.5,-294.5 34.5,-340.5 119.5,-340.5 119.5,-294.5 34.5,-294.5"/>
<text text-anchor="middle" x="77" y="-325.3" font-family="Times New Roman,serif" font-size="14.00">:Abstraction</text>
<polyline fill="none" stroke="black" points="34.5,-317.5 119.5,-317.5 "/>
<text text-anchor="middle" x="77" y="-302.3" font-family="Times New Roman,serif" font-size="14.00"> </text>
</g>
<!-- 2145729739648&#45;&gt;2145729739744 -->
<g id="edge1" class="edge">
<title>2145729739648&#45;&gt;2145729739744</title>
<path fill="none" stroke="black" d="M109.78,-381.43C104.4,-371.12 98.5,-359.78 93.2,-349.6"/>
<polygon fill="black" stroke="black" points="109.86,-381.59 116.18,-385.07 115.4,-392.23 109.08,-388.76 109.86,-381.59"/>
<polygon fill="black" stroke="black" points="96.26,-347.9 88.53,-340.64 90.05,-351.13 96.26,-347.9"/>
<text text-anchor="middle" x="114" y="-362.8" font-family="Times New Roman,serif" font-size="14.00">left</text>
</g>
<!-- 2145729739792 -->
<g id="node9" class="node">
<title>2145729739792</title>
<polygon fill="aliceblue" stroke="black" points="142,-294.5 142,-340.5 214,-340.5 214,-294.5 142,-294.5"/>
<text text-anchor="middle" x="178" y="-325.3" font-family="Times New Roman,serif" font-size="14.00">y:Variable</text>
<polyline fill="none" stroke="black" points="142,-317.5 214,-317.5 "/>
<text text-anchor="middle" x="178" y="-302.3" font-family="Times New Roman,serif" font-size="14.00"> </text>
</g>
<!-- 2145729739648&#45;&gt;2145729739792 -->
<g id="edge8" class="edge">
<title>2145729739648&#45;&gt;2145729739792</title>
<path fill="none" stroke="black" d="M144.57,-381.43C150.05,-371.12 156.07,-359.78 161.48,-349.6"/>
<polygon fill="black" stroke="black" points="144.46,-381.64 145.18,-388.81 138.83,-392.23 138.11,-385.06 144.46,-381.64"/>
<polygon fill="black" stroke="black" points="164.63,-351.12 166.24,-340.64 158.45,-347.83 164.63,-351.12"/>
<text text-anchor="middle" x="168.5" y="-362.8" font-family="Times New Roman,serif" font-size="14.00">right</text>
</g>
<!-- 2145729739600 -->
<g id="node3" class="node">
<title>2145729739600</title>
<polygon fill="aliceblue" stroke="black" points="0,-196.5 0,-242.5 72,-242.5 72,-196.5 0,-196.5"/>
<text text-anchor="middle" x="36" y="-227.3" font-family="Times New Roman,serif" font-size="14.00">x:Variable</text>
<polyline fill="none" stroke="black" points="0,-219.5 72,-219.5 "/>
<text text-anchor="middle" x="36" y="-204.3" font-family="Times New Roman,serif" font-size="14.00"> </text>
</g>
<!-- 2145729739744&#45;&gt;2145729739600 -->
<g id="edge2" class="edge">
<title>2145729739744&#45;&gt;2145729739600</title>
<path fill="none" stroke="black" d="M49.33,-284.27C47.7,-281.57 46.23,-278.8 45,-276 41.8,-268.73 39.73,-260.48 38.38,-252.6"/>
<polygon fill="black" stroke="black" points="49.4,-284.37 56.09,-287.06 56.19,-294.27 49.49,-291.58 49.4,-284.37"/>
<polygon fill="black" stroke="black" points="41.83,-252.01 37.01,-242.57 34.9,-252.96 41.83,-252.01"/>
<text text-anchor="middle" x="72.5" y="-264.8" font-family="Times New Roman,serif" font-size="14.00">parameter</text>
</g>
<!-- 2145729740032 -->
<g id="node4" class="node">
<title>2145729740032</title>
<polygon fill="aliceblue" stroke="black" points="94.5,-196.5 94.5,-242.5 179.5,-242.5 179.5,-196.5 94.5,-196.5"/>
<text text-anchor="middle" x="137" y="-227.3" font-family="Times New Roman,serif" font-size="14.00">:Abstraction</text>
<polyline fill="none" stroke="black" points="94.5,-219.5 179.5,-219.5 "/>
<text text-anchor="middle" x="137" y="-204.3" font-family="Times New Roman,serif" font-size="14.00"> </text>
</g>
<!-- 2145729739744&#45;&gt;2145729740032 -->
<g id="edge3" class="edge">
<title>2145729739744&#45;&gt;2145729740032</title>
<path fill="none" stroke="black" d="M97.41,-283.84C103.98,-273.34 111.22,-261.75 117.7,-251.38"/>
<polygon fill="black" stroke="black" points="97.28,-284.06 97.49,-291.27 90.92,-294.23 90.7,-287.03 97.28,-284.06"/>
<polygon fill="black" stroke="black" points="120.83,-252.98 123.16,-242.64 114.89,-249.27 120.83,-252.98"/>
<text text-anchor="middle" x="141.5" y="-264.8" font-family="Times New Roman,serif" font-size="14.00">expression</text>
</g>
<!-- 2145729739984 -->
<g id="node5" class="node">
<title>2145729739984</title>
<polygon fill="aliceblue" stroke="black" points="56,-98.5 56,-144.5 128,-144.5 128,-98.5 56,-98.5"/>
<text text-anchor="middle" x="92" y="-129.3" font-family="Times New Roman,serif" font-size="14.00">y:Variable</text>
<polyline fill="none" stroke="black" points="56,-121.5 128,-121.5 "/>
<text text-anchor="middle" x="92" y="-106.3" font-family="Times New Roman,serif" font-size="14.00"> </text>
</g>
<!-- 2145729740032&#45;&gt;2145729739984 -->
<g id="edge4" class="edge">
<title>2145729740032&#45;&gt;2145729739984</title>
<path fill="none" stroke="black" d="M105.9,-186.58C104.06,-183.8 102.39,-180.93 101,-178 97.59,-170.83 95.44,-162.61 94.09,-154.73"/>
<polygon fill="black" stroke="black" points="105.93,-186.61 112.74,-188.97 113.19,-196.17 106.37,-193.81 105.93,-186.61"/>
<polygon fill="black" stroke="black" points="97.54,-154.14 92.74,-144.7 90.61,-155.07 97.54,-154.14"/>
<text text-anchor="middle" x="128.5" y="-166.8" font-family="Times New Roman,serif" font-size="14.00">parameter</text>
</g>
<!-- 2145729739888 -->
<g id="node6" class="node">
<title>2145729739888</title>
<polygon fill="aliceblue" stroke="black" points="150,-98.5 150,-144.5 234,-144.5 234,-98.5 150,-98.5"/>
<text text-anchor="middle" x="192" y="-129.3" font-family="Times New Roman,serif" font-size="14.00">:Application</text>
<polyline fill="none" stroke="black" points="150,-121.5 234,-121.5 "/>
<text text-anchor="middle" x="192" y="-106.3" font-family="Times New Roman,serif" font-size="14.00"> </text>
</g>
<!-- 2145729740032&#45;&gt;2145729739888 -->
<g id="edge5" class="edge">
<title>2145729740032&#45;&gt;2145729739888</title>
<path fill="none" stroke="black" d="M155.94,-185.43C161.86,-175.12 168.35,-163.78 174.18,-153.6"/>
<polygon fill="black" stroke="black" points="155.72,-185.82 156.21,-193.02 149.76,-196.23 149.27,-189.04 155.72,-185.82"/>
<polygon fill="black" stroke="black" points="177.38,-155.06 179.31,-144.64 171.3,-151.58 177.38,-155.06"/>
<text text-anchor="middle" x="198.5" y="-166.8" font-family="Times New Roman,serif" font-size="14.00">expression</text>
</g>
<!-- 2145730689248 -->
<g id="node7" class="node">
<title>2145730689248</title>
<polygon fill="aliceblue" stroke="black" points="109,-0.5 109,-46.5 181,-46.5 181,-0.5 109,-0.5"/>
<text text-anchor="middle" x="145" y="-31.3" font-family="Times New Roman,serif" font-size="14.00">x:Variable</text>
<polyline fill="none" stroke="black" points="109,-23.5 181,-23.5 "/>
<text text-anchor="middle" x="145" y="-8.3" font-family="Times New Roman,serif" font-size="14.00"> </text>
</g>
<!-- 2145729739888&#45;&gt;2145730689248 -->
<g id="edge6" class="edge">
<title>2145729739888&#45;&gt;2145730689248</title>
<path fill="none" stroke="black" d="M175.81,-87.43C170.81,-77.22 165.32,-66.01 160.38,-55.91"/>
<polygon fill="black" stroke="black" points="175.82,-87.46 182.05,-91.09 181.1,-98.23 174.87,-94.6 175.82,-87.46"/>
<polygon fill="black" stroke="black" points="163.38,-54.09 155.84,-46.64 157.1,-57.17 163.38,-54.09"/>
<text text-anchor="middle" x="181" y="-68.8" font-family="Times New Roman,serif" font-size="14.00">left</text>
</g>
<!-- 2145730689968 -->
<g id="node8" class="node">
<title>2145730689968</title>
<polygon fill="aliceblue" stroke="black" points="203,-0.5 203,-46.5 275,-46.5 275,-0.5 203,-0.5"/>
<text text-anchor="middle" x="239" y="-31.3" font-family="Times New Roman,serif" font-size="14.00">y:Variable</text>
<polyline fill="none" stroke="black" points="203,-23.5 275,-23.5 "/>
<text text-anchor="middle" x="239" y="-8.3" font-family="Times New Roman,serif" font-size="14.00"> </text>
</g>
<!-- 2145729739888&#45;&gt;2145730689968 -->
<g id="edge7" class="edge">
<title>2145729739888&#45;&gt;2145730689968</title>
<path fill="none" stroke="black" d="M208.19,-87.43C213.19,-77.22 218.68,-66.01 223.62,-55.91"/>
<polygon fill="black" stroke="black" points="208.18,-87.46 209.13,-94.6 202.9,-98.23 201.95,-91.09 208.18,-87.46"/>
<polygon fill="black" stroke="black" points="226.9,-57.17 228.16,-46.64 220.62,-54.09 226.9,-57.17"/>
<text text-anchor="middle" x="231.5" y="-68.8" font-family="Times New Roman,serif" font-size="14.00">right</text>
</g>
</g>
</svg>
