<?xml version="1.0" encoding="UTF-8" standalone="no"?>
<!DOCTYPE svg PUBLIC "-//W3C//DTD SVG 1.1//EN"
 "http://www.w3.org/Graphics/SVG/1.1/DTD/svg11.dtd">
<!-- Generated by graphviz version 3.0.0 (20220226.1711)
 -->
<!-- Title: textX Pages: 1 -->
<svg width="193pt" height="251pt"
 viewBox="0.00 0.00 192.50 251.00" xmlns="http://www.w3.org/2000/svg" xmlns:xlink="http://www.w3.org/1999/xlink">
<g id="graph0" class="graph" transform="scale(1 1) rotate(0) translate(4 247)">
<title>textX</title>
<polygon fill="white" stroke="transparent" points="-4,4 -4,-247 188.5,-247 188.5,4 -4,4"/>
<!-- 2145730690976 -->
<g id="node1" class="node">
<title>2145730690976</title>
<polygon fill="aliceblue" stroke="black" points="0,-196.5 0,-242.5 85,-242.5 85,-196.5 0,-196.5"/>
<text text-anchor="middle" x="42.5" y="-227.3" font-family="Times New Roman,serif" font-size="14.00">:Abstraction</text>
<polyline fill="none" stroke="black" points="0,-219.5 85,-219.5 "/>
<text text-anchor="middle" x="42.5" y="-204.3" font-family="Times New Roman,serif" font-size="14.00"> </text>
</g>
<!-- 2145730687184 -->
<g id="node2" class="node">
<title>2145730687184</title>
<polygon fill="aliceblue" stroke="black" points="1,-0.5 1,-46.5 72,-46.5 72,-0.5 1,-0.5"/>
<text text-anchor="middle" x="36.5" y="-31.3" font-family="Times New Roman,serif" font-size="14.00">a:Variable</text>
<polyline fill="none" stroke="black" points="1,-23.5 72,-23.5 "/>
<text text-anchor="middle" x="36.5" y="-8.3" font-family="Times New Roman,serif" font-size="14.00"> </text>
</g>
<!-- 2145730690976&#45;&gt;2145730687184 -->
<g id="edge1" class="edge">
<title>2145730690976&#45;&gt;2145730687184</title>
<path fill="none" stroke="black" d="M37.99,-184.23C36.57,-171.89 35.2,-157.84 34.5,-145 32.88,-115.15 33.69,-81.09 34.72,-56.82"/>
<polygon fill="black" stroke="black" points="38.02,-184.44 42.71,-189.92 39.46,-196.36 34.77,-190.88 38.02,-184.44"/>
<polygon fill="black" stroke="black" points="38.23,-56.88 35.19,-46.73 31.23,-56.55 38.23,-56.88"/>
<text text-anchor="middle" x="62" y="-117.8" font-family="Times New Roman,serif" font-size="14.00">parameter</text>
</g>
<!-- 2145730689776 -->
<g id="node3" class="node">
<title>2145730689776</title>
<polygon fill="aliceblue" stroke="black" points="100.5,-98.5 100.5,-144.5 184.5,-144.5 184.5,-98.5 100.5,-98.5"/>
<text text-anchor="middle" x="142.5" y="-129.3" font-family="Times New Roman,serif" font-size="14.00">:Application</text>
<polyline fill="none" stroke="black" points="100.5,-121.5 184.5,-121.5 "/>
<text text-anchor="middle" x="142.5" y="-106.3" font-family="Times New Roman,serif" font-size="14.00"> </text>
</g>
<!-- 2145730690976&#45;&gt;2145730689776 -->
<g id="edge2" class="edge">
<title>2145730690976&#45;&gt;2145730689776</title>
<path fill="none" stroke="black" d="M74.44,-187.84C86.44,-176.32 100.04,-163.26 111.91,-151.86"/>
<polygon fill="black" stroke="black" points="74.35,-187.92 72.79,-194.96 65.69,-196.23 67.25,-189.19 74.35,-187.92"/>
<polygon fill="black" stroke="black" points="114.64,-154.1 119.43,-144.64 109.79,-149.05 114.64,-154.1"/>
<text text-anchor="middle" x="129" y="-166.8" font-family="Times New Roman,serif" font-size="14.00">expression</text>
</g>
<!-- 2145730689776&#45;&gt;2145730687184 -->
<g id="edge4" class="edge">
<title>2145730689776&#45;&gt;2145730687184</title>
<path fill="none" stroke="black" d="M108.91,-90.08C96.06,-78.44 81.44,-65.2 68.72,-53.68"/>
<polygon fill="black" stroke="black" points="109.29,-90.42 116.42,-91.48 118.18,-98.48 111.05,-97.41 109.29,-90.42"/>
<polygon fill="black" stroke="black" points="70.83,-50.87 61.07,-46.75 66.14,-56.06 70.83,-50.87"/>
<text text-anchor="middle" x="109" y="-68.8" font-family="Times New Roman,serif" font-size="14.00">right</text>
</g>
<!-- 2145730689872 -->
<g id="node4" class="node">
<title>2145730689872</title>
<polygon fill="aliceblue" stroke="black" points="106.5,-0.5 106.5,-46.5 178.5,-46.5 178.5,-0.5 106.5,-0.5"/>
<text text-anchor="middle" x="142.5" y="-31.3" font-family="Times New Roman,serif" font-size="14.00">x:Variable</text>
<polyline fill="none" stroke="black" points="106.5,-23.5 178.5,-23.5 "/>
<text text-anchor="middle" x="142.5" y="-8.3" font-family="Times New Roman,serif" font-size="14.00"> </text>
</g>
<!-- 2145730689776&#45;&gt;2145730689872 -->
<g id="edge3" class="edge">
<title>2145730689776&#45;&gt;2145730689872</title>
<path fill="none" stroke="black" d="M142.5,-86.22C142.5,-76.65 142.5,-66.29 142.5,-56.84"/>
<polygon fill="black" stroke="black" points="142.5,-86.23 146.5,-92.23 142.5,-98.23 138.5,-92.23 142.5,-86.23"/>
<polygon fill="black" stroke="black" points="146,-56.64 142.5,-46.64 139,-56.64 146,-56.64"/>
<text text-anchor="middle" x="151.5" y="-68.8" font-family="Times New Roman,serif" font-size="14.00">left</text>
</g>
</g>
</svg>
