<?xml version="1.0" encoding="UTF-8" standalone="no"?>
<!DOCTYPE svg PUBLIC "-//W3C//DTD SVG 1.1//EN"
 "http://www.w3.org/Graphics/SVG/1.1/DTD/svg11.dtd">
<!-- Generated by graphviz version 3.0.0 (20220226.1711)
 -->
<!-- Title: textX Pages: 1 -->
<svg width="376pt" height="545pt"
 viewBox="0.00 0.00 376.21 545.00" xmlns="http://www.w3.org/2000/svg" xmlns:xlink="http://www.w3.org/1999/xlink">
<g id="graph0" class="graph" transform="scale(1 1) rotate(0) translate(4 541)">
<title>textX</title>
<polygon fill="white" stroke="transparent" points="-4,4 -4,-541 372.21,-541 372.21,4 -4,4"/>
<!-- 2358444580944 -->
<g id="node1" class="node">
<title>2358444580944</title>
<polygon fill="aliceblue" stroke="black" points="138.21,-490.5 138.21,-536.5 222.21,-536.5 222.21,-490.5 138.21,-490.5"/>
<text text-anchor="middle" x="180.21" y="-521.3" font-family="Times New Roman,serif" font-size="14.00">:Application</text>
<polyline fill="none" stroke="black" points="138.21,-513.5 222.21,-513.5 "/>
<text text-anchor="middle" x="180.21" y="-498.3" font-family="Times New Roman,serif" font-size="14.00"> </text>
</g>
<!-- 2358444581328 -->
<g id="node2" class="node">
<title>2358444581328</title>
<polygon fill="aliceblue" stroke="black" points="86.21,-392.5 86.21,-438.5 170.21,-438.5 170.21,-392.5 86.21,-392.5"/>
<text text-anchor="middle" x="128.21" y="-423.3" font-family="Times New Roman,serif" font-size="14.00">:Application</text>
<polyline fill="none" stroke="black" points="86.21,-415.5 170.21,-415.5 "/>
<text text-anchor="middle" x="128.21" y="-400.3" font-family="Times New Roman,serif" font-size="14.00"> </text>
</g>
<!-- 2358444580944&#45;&gt;2358444581328 -->
<g id="edge1" class="edge">
<title>2358444580944&#45;&gt;2358444581328</title>
<path fill="none" stroke="black" d="M162.3,-479.43C156.71,-469.12 150.57,-457.78 145.06,-447.6"/>
<polygon fill="black" stroke="black" points="162.44,-479.68 168.81,-483.05 168.15,-490.23 161.78,-486.86 162.44,-479.68"/>
<polygon fill="black" stroke="black" points="148.05,-445.77 140.21,-438.64 141.89,-449.1 148.05,-445.77"/>
<text text-anchor="middle" x="167.21" y="-460.8" font-family="Times New Roman,serif" font-size="14.00">left</text>
</g>
<!-- 2358444581472 -->
<g id="node11" class="node">
<title>2358444581472</title>
<polygon fill="aliceblue" stroke="black" points="192.21,-392.5 192.21,-438.5 272.21,-438.5 272.21,-392.5 192.21,-392.5"/>
<text text-anchor="middle" x="232.21" y="-423.3" font-family="Times New Roman,serif" font-size="14.00">p2:Variable</text>
<polyline fill="none" stroke="black" points="192.21,-415.5 272.21,-415.5 "/>
<text text-anchor="middle" x="232.21" y="-400.3" font-family="Times New Roman,serif" font-size="14.00"> </text>
</g>
<!-- 2358444580944&#45;&gt;2358444581472 -->
<g id="edge12" class="edge">
<title>2358444580944&#45;&gt;2358444581472</title>
<path fill="none" stroke="black" d="M198.12,-479.43C203.71,-469.12 209.85,-457.78 215.37,-447.6"/>
<polygon fill="black" stroke="black" points="197.99,-479.68 198.65,-486.86 192.27,-490.23 191.61,-483.05 197.99,-479.68"/>
<polygon fill="black" stroke="black" points="218.53,-449.1 220.22,-438.64 212.38,-445.77 218.53,-449.1"/>
<text text-anchor="middle" x="222.71" y="-460.8" font-family="Times New Roman,serif" font-size="14.00">right</text>
</g>
<!-- 2358444581712 -->
<g id="node3" class="node">
<title>2358444581712</title>
<polygon fill="aliceblue" stroke="black" points="32.71,-294.5 32.71,-340.5 117.71,-340.5 117.71,-294.5 32.71,-294.5"/>
<text text-anchor="middle" x="75.21" y="-325.3" font-family="Times New Roman,serif" font-size="14.00">:Abstraction</text>
<polyline fill="none" stroke="black" points="32.71,-317.5 117.71,-317.5 "/>
<text text-anchor="middle" x="75.21" y="-302.3" font-family="Times New Roman,serif" font-size="14.00"> </text>
</g>
<!-- 2358444581328&#45;&gt;2358444581712 -->
<g id="edge2" class="edge">
<title>2358444581328&#45;&gt;2358444581712</title>
<path fill="none" stroke="black" d="M109.96,-381.43C104.26,-371.12 98,-359.78 92.38,-349.6"/>
<polygon fill="black" stroke="black" points="110.12,-381.73 116.52,-385.05 115.92,-392.23 109.52,-388.91 110.12,-381.73"/>
<polygon fill="black" stroke="black" points="95.34,-347.71 87.44,-340.64 89.21,-351.09 95.34,-347.71"/>
<text text-anchor="middle" x="114.21" y="-362.8" font-family="Times New Roman,serif" font-size="14.00">left</text>
</g>
<!-- 2358444581760 -->
<g id="node5" class="node">
<title>2358444581760</title>
<polygon fill="aliceblue" stroke="black" points="140.21,-294.5 140.21,-340.5 224.21,-340.5 224.21,-294.5 140.21,-294.5"/>
<text text-anchor="middle" x="182.21" y="-325.3" font-family="Times New Roman,serif" font-size="14.00">:Application</text>
<polyline fill="none" stroke="black" points="140.21,-317.5 224.21,-317.5 "/>
<text text-anchor="middle" x="182.21" y="-302.3" font-family="Times New Roman,serif" font-size="14.00"> </text>
</g>
<!-- 2358444581328&#45;&gt;2358444581760 -->
<g id="edge5" class="edge">
<title>2358444581328&#45;&gt;2358444581760</title>
<path fill="none" stroke="black" d="M146.81,-381.43C152.62,-371.12 158.99,-359.78 164.72,-349.6"/>
<polygon fill="black" stroke="black" points="146.62,-381.78 147.17,-388.97 140.74,-392.23 140.19,-385.04 146.62,-381.78"/>
<polygon fill="black" stroke="black" points="167.9,-351.08 169.76,-340.64 161.8,-347.64 167.9,-351.08"/>
<text text-anchor="middle" x="171.71" y="-362.8" font-family="Times New Roman,serif" font-size="14.00">right</text>
</g>
<!-- 2358445652816 -->
<g id="node4" class="node">
<title>2358445652816</title>
<polygon fill="aliceblue" stroke="black" points="45.21,-196.5 45.21,-242.5 125.21,-242.5 125.21,-196.5 45.21,-196.5"/>
<text text-anchor="middle" x="85.21" y="-227.3" font-family="Times New Roman,serif" font-size="14.00">p1:Variable</text>
<polyline fill="none" stroke="black" points="45.21,-219.5 125.21,-219.5 "/>
<text text-anchor="middle" x="85.21" y="-204.3" font-family="Times New Roman,serif" font-size="14.00"> </text>
</g>
<!-- 2358444581712&#45;&gt;2358445652816 -->
<g id="edge3" class="edge">
<title>2358444581712&#45;&gt;2358445652816</title>
<path fill="none" stroke="black" d="M21.58,-296.68C5.51,-287.5 -5.74,-275.41 3.21,-261 10.7,-248.95 22.94,-240.38 35.71,-234.33"/>
<polygon fill="black" stroke="black" points="21.96,-296.87 29.12,-296.01 32.67,-302.29 25.51,-303.15 21.96,-296.87"/>
<polygon fill="black" stroke="black" points="37.22,-237.49 45.05,-230.35 34.47,-231.05 37.22,-237.49"/>
<text text-anchor="middle" x="30.71" y="-264.8" font-family="Times New Roman,serif" font-size="14.00">parameter</text>
</g>
<!-- 2358444581712&#45;&gt;2358445652816 -->
<g id="edge4" class="edge">
<title>2358444581712&#45;&gt;2358445652816</title>
<path fill="none" stroke="black" d="M78.78,-282.22C79.78,-272.65 80.86,-262.29 81.84,-252.84"/>
<polygon fill="black" stroke="black" points="78.78,-282.3 82.13,-288.68 77.53,-294.23 74.18,-287.85 78.78,-282.3"/>
<polygon fill="black" stroke="black" points="85.35,-252.95 82.91,-242.64 78.39,-252.23 85.35,-252.95"/>
<text text-anchor="middle" x="111.71" y="-264.8" font-family="Times New Roman,serif" font-size="14.00">expression</text>
</g>
<!-- 2358444581760&#45;&gt;2358445652816 -->
<g id="edge11" class="edge">
<title>2358444581760&#45;&gt;2358445652816</title>
<path fill="none" stroke="black" d="M165.03,-284.08C159.92,-276.03 153.88,-267.77 147.21,-261 142.83,-256.55 137.88,-252.33 132.74,-248.42"/>
<polygon fill="black" stroke="black" points="165.04,-284.1 171.55,-287.2 171.19,-294.4 164.68,-291.3 165.04,-284.1"/>
<polygon fill="black" stroke="black" points="134.71,-245.52 124.55,-242.52 130.62,-251.2 134.71,-245.52"/>
<text text-anchor="middle" x="171.71" y="-264.8" font-family="Times New Roman,serif" font-size="14.00">right</text>
</g>
<!-- 2358444581808 -->
<g id="node6" class="node">
<title>2358444581808</title>
<polygon fill="aliceblue" stroke="black" points="182.71,-196.5 182.71,-242.5 267.71,-242.5 267.71,-196.5 182.71,-196.5"/>
<text text-anchor="middle" x="225.21" y="-227.3" font-family="Times New Roman,serif" font-size="14.00">:Abstraction</text>
<polyline fill="none" stroke="black" points="182.71,-219.5 267.71,-219.5 "/>
<text text-anchor="middle" x="225.21" y="-204.3" font-family="Times New Roman,serif" font-size="14.00"> </text>
</g>
<!-- 2358444581760&#45;&gt;2358444581808 -->
<g id="edge6" class="edge">
<title>2358444581760&#45;&gt;2358444581808</title>
<path fill="none" stroke="black" d="M197.21,-283.03C201.75,-272.89 206.71,-261.8 211.19,-251.82"/>
<polygon fill="black" stroke="black" points="197.09,-283.28 198.29,-290.39 192.19,-294.23 190.99,-287.12 197.09,-283.28"/>
<polygon fill="black" stroke="black" points="214.4,-253.2 215.29,-242.64 208.01,-250.34 214.4,-253.2"/>
<text text-anchor="middle" x="216.21" y="-264.8" font-family="Times New Roman,serif" font-size="14.00">left</text>
</g>
<!-- 2358444581856 -->
<g id="node7" class="node">
<title>2358444581856</title>
<polygon fill="aliceblue" stroke="black" points="143.71,-98.5 143.71,-144.5 214.71,-144.5 214.71,-98.5 143.71,-98.5"/>
<text text-anchor="middle" x="179.21" y="-129.3" font-family="Times New Roman,serif" font-size="14.00">a:Variable</text>
<polyline fill="none" stroke="black" points="143.71,-121.5 214.71,-121.5 "/>
<text text-anchor="middle" x="179.21" y="-106.3" font-family="Times New Roman,serif" font-size="14.00"> </text>
</g>
<!-- 2358444581808&#45;&gt;2358444581856 -->
<g id="edge7" class="edge">
<title>2358444581808&#45;&gt;2358444581856</title>
<path fill="none" stroke="black" d="M193.25,-186.64C191.35,-183.84 189.64,-180.95 188.21,-178 184.76,-170.85 182.59,-162.64 181.24,-154.77"/>
<polygon fill="black" stroke="black" points="193.36,-186.78 200.21,-189.06 200.73,-196.25 193.89,-193.97 193.36,-186.78"/>
<polygon fill="black" stroke="black" points="184.69,-154.17 179.89,-144.73 177.75,-155.1 184.69,-154.17"/>
<text text-anchor="middle" x="215.71" y="-166.8" font-family="Times New Roman,serif" font-size="14.00">parameter</text>
</g>
<!-- 2358444581904 -->
<g id="node8" class="node">
<title>2358444581904</title>
<polygon fill="aliceblue" stroke="black" points="236.71,-98.5 236.71,-144.5 321.71,-144.5 321.71,-98.5 236.71,-98.5"/>
<text text-anchor="middle" x="279.21" y="-129.3" font-family="Times New Roman,serif" font-size="14.00">:Abstraction</text>
<polyline fill="none" stroke="black" points="236.71,-121.5 321.71,-121.5 "/>
<text text-anchor="middle" x="279.21" y="-106.3" font-family="Times New Roman,serif" font-size="14.00"> </text>
</g>
<!-- 2358444581808&#45;&gt;2358444581904 -->
<g id="edge8" class="edge">
<title>2358444581808&#45;&gt;2358444581904</title>
<path fill="none" stroke="black" d="M243.81,-185.43C249.62,-175.12 255.99,-163.78 261.72,-153.6"/>
<polygon fill="black" stroke="black" points="243.62,-185.78 244.17,-192.97 237.74,-196.23 237.19,-189.04 243.62,-185.78"/>
<polygon fill="black" stroke="black" points="264.9,-155.08 266.76,-144.64 258.8,-151.64 264.9,-155.08"/>
<text text-anchor="middle" x="286.71" y="-166.8" font-family="Times New Roman,serif" font-size="14.00">expression</text>
</g>
<!-- 2358444581424 -->
<g id="node9" class="node">
<title>2358444581424</title>
<polygon fill="aliceblue" stroke="black" points="195.71,-0.5 195.71,-46.5 268.71,-46.5 268.71,-0.5 195.71,-0.5"/>
<text text-anchor="middle" x="232.21" y="-31.3" font-family="Times New Roman,serif" font-size="14.00">b:Variable</text>
<polyline fill="none" stroke="black" points="195.71,-23.5 268.71,-23.5 "/>
<text text-anchor="middle" x="232.21" y="-8.3" font-family="Times New Roman,serif" font-size="14.00"> </text>
</g>
<!-- 2358444581904&#45;&gt;2358444581424 -->
<g id="edge9" class="edge">
<title>2358444581904&#45;&gt;2358444581424</title>
<path fill="none" stroke="black" d="M249.3,-88.65C247.41,-85.84 245.68,-82.94 244.21,-80 240.63,-72.82 238.12,-64.6 236.35,-56.73"/>
<polygon fill="black" stroke="black" points="249.43,-88.83 256.24,-91.2 256.67,-98.4 249.86,-96.03 249.43,-88.83"/>
<polygon fill="black" stroke="black" points="239.75,-55.86 234.43,-46.69 232.87,-57.17 239.75,-55.86"/>
<text text-anchor="middle" x="271.71" y="-68.8" font-family="Times New Roman,serif" font-size="14.00">parameter</text>
</g>
<!-- 2358444581664 -->
<g id="node10" class="node">
<title>2358444581664</title>
<polygon fill="aliceblue" stroke="black" points="290.71,-0.5 290.71,-46.5 361.71,-46.5 361.71,-0.5 290.71,-0.5"/>
<text text-anchor="middle" x="326.21" y="-31.3" font-family="Times New Roman,serif" font-size="14.00">a:Variable</text>
<polyline fill="none" stroke="black" points="290.71,-23.5 361.71,-23.5 "/>
<text text-anchor="middle" x="326.21" y="-8.3" font-family="Times New Roman,serif" font-size="14.00"> </text>
</g>
<!-- 2358444581904&#45;&gt;2358444581664 -->
<g id="edge10" class="edge">
<title>2358444581904&#45;&gt;2358444581664</title>
<path fill="none" stroke="black" d="M296.5,-87.43C297.77,-84.92 299.02,-82.42 300.21,-80 304.03,-72.27 308.03,-63.87 311.73,-56"/>
<polygon fill="black" stroke="black" points="296.4,-87.62 297.22,-94.78 290.93,-98.3 290.1,-91.14 296.4,-87.62"/>
<polygon fill="black" stroke="black" points="314.99,-57.29 316.04,-46.74 308.64,-54.33 314.99,-57.29"/>
<text text-anchor="middle" x="337.71" y="-68.8" font-family="Times New Roman,serif" font-size="14.00">expression</text>
</g>
</g>
</svg>
