<?xml version="1.0" encoding="UTF-8" standalone="no"?>
<!DOCTYPE svg PUBLIC "-//W3C//DTD SVG 1.1//EN"
 "http://www.w3.org/Graphics/SVG/1.1/DTD/svg11.dtd">
<!-- Generated by graphviz version 3.0.0 (20220226.1711)
 -->
<!-- Title: textX Pages: 1 -->
<svg width="281pt" height="447pt"
 viewBox="0.00 0.00 280.50 447.00" xmlns="http://www.w3.org/2000/svg" xmlns:xlink="http://www.w3.org/1999/xlink">
<g id="graph0" class="graph" transform="scale(1 1) rotate(0) translate(4 443)">
<title>textX</title>
<polygon fill="white" stroke="transparent" points="-4,4 -4,-443 276.5,-443 276.5,4 -4,4"/>
<!-- 2358446948304 -->
<g id="node1" class="node">
<title>2358446948304</title>
<polygon fill="aliceblue" stroke="black" points="138.5,-392.5 138.5,-438.5 222.5,-438.5 222.5,-392.5 138.5,-392.5"/>
<text text-anchor="middle" x="180.5" y="-423.3" font-family="Times New Roman,serif" font-size="14.00">:Application</text>
<polyline fill="none" stroke="black" points="138.5,-415.5 222.5,-415.5 "/>
<text text-anchor="middle" x="180.5" y="-400.3" font-family="Times New Roman,serif" font-size="14.00"> </text>
</g>
<!-- 2358444581760 -->
<g id="node2" class="node">
<title>2358444581760</title>
<polygon fill="aliceblue" stroke="black" points="86.5,-294.5 86.5,-340.5 170.5,-340.5 170.5,-294.5 86.5,-294.5"/>
<text text-anchor="middle" x="128.5" y="-325.3" font-family="Times New Roman,serif" font-size="14.00">:Application</text>
<polyline fill="none" stroke="black" points="86.5,-317.5 170.5,-317.5 "/>
<text text-anchor="middle" x="128.5" y="-302.3" font-family="Times New Roman,serif" font-size="14.00"> </text>
</g>
<!-- 2358446948304&#45;&gt;2358444581760 -->
<g id="edge1" class="edge">
<title>2358446948304&#45;&gt;2358444581760</title>
<path fill="none" stroke="black" d="M162.59,-381.43C157,-371.12 150.86,-359.78 145.35,-349.6"/>
<polygon fill="black" stroke="black" points="162.72,-381.68 169.1,-385.05 168.44,-392.23 162.06,-388.86 162.72,-381.68"/>
<polygon fill="black" stroke="black" points="148.34,-347.77 140.5,-340.64 142.18,-351.1 148.34,-347.77"/>
<text text-anchor="middle" x="167.5" y="-362.8" font-family="Times New Roman,serif" font-size="14.00">left</text>
</g>
<!-- 2358446948256 -->
<g id="node9" class="node">
<title>2358446948256</title>
<polygon fill="aliceblue" stroke="black" points="192.5,-294.5 192.5,-340.5 272.5,-340.5 272.5,-294.5 192.5,-294.5"/>
<text text-anchor="middle" x="232.5" y="-325.3" font-family="Times New Roman,serif" font-size="14.00">p2:Variable</text>
<polyline fill="none" stroke="black" points="192.5,-317.5 272.5,-317.5 "/>
<text text-anchor="middle" x="232.5" y="-302.3" font-family="Times New Roman,serif" font-size="14.00"> </text>
</g>
<!-- 2358446948304&#45;&gt;2358446948256 -->
<g id="edge8" class="edge">
<title>2358446948304&#45;&gt;2358446948256</title>
<path fill="none" stroke="black" d="M198.41,-381.43C204,-371.12 210.14,-359.78 215.65,-349.6"/>
<polygon fill="black" stroke="black" points="198.28,-381.68 198.94,-388.86 192.56,-392.23 191.9,-385.05 198.28,-381.68"/>
<polygon fill="black" stroke="black" points="218.82,-351.1 220.5,-340.64 212.66,-347.77 218.82,-351.1"/>
<text text-anchor="middle" x="223" y="-362.8" font-family="Times New Roman,serif" font-size="14.00">right</text>
</g>
<!-- 2358444581808 -->
<g id="node3" class="node">
<title>2358444581808</title>
<polygon fill="aliceblue" stroke="black" points="34,-196.5 34,-242.5 119,-242.5 119,-196.5 34,-196.5"/>
<text text-anchor="middle" x="76.5" y="-227.3" font-family="Times New Roman,serif" font-size="14.00">:Abstraction</text>
<polyline fill="none" stroke="black" points="34,-219.5 119,-219.5 "/>
<text text-anchor="middle" x="76.5" y="-204.3" font-family="Times New Roman,serif" font-size="14.00"> </text>
</g>
<!-- 2358444581760&#45;&gt;2358444581808 -->
<g id="edge2" class="edge">
<title>2358444581760&#45;&gt;2358444581808</title>
<path fill="none" stroke="black" d="M110.59,-283.43C105,-273.12 98.86,-261.78 93.35,-251.6"/>
<polygon fill="black" stroke="black" points="110.72,-283.68 117.1,-287.05 116.44,-294.23 110.06,-290.86 110.72,-283.68"/>
<polygon fill="black" stroke="black" points="96.34,-249.77 88.5,-242.64 90.18,-253.1 96.34,-249.77"/>
<text text-anchor="middle" x="115.5" y="-264.8" font-family="Times New Roman,serif" font-size="14.00">left</text>
</g>
<!-- 2358445652816 -->
<g id="node8" class="node">
<title>2358445652816</title>
<polygon fill="aliceblue" stroke="black" points="141.5,-196.5 141.5,-242.5 221.5,-242.5 221.5,-196.5 141.5,-196.5"/>
<text text-anchor="middle" x="181.5" y="-227.3" font-family="Times New Roman,serif" font-size="14.00">p1:Variable</text>
<polyline fill="none" stroke="black" points="141.5,-219.5 221.5,-219.5 "/>
<text text-anchor="middle" x="181.5" y="-204.3" font-family="Times New Roman,serif" font-size="14.00"> </text>
</g>
<!-- 2358444581760&#45;&gt;2358445652816 -->
<g id="edge7" class="edge">
<title>2358444581760&#45;&gt;2358445652816</title>
<path fill="none" stroke="black" d="M146.76,-283.43C152.45,-273.12 158.71,-261.78 164.33,-251.6"/>
<polygon fill="black" stroke="black" points="146.59,-283.73 147.19,-290.91 140.79,-294.23 140.19,-287.05 146.59,-283.73"/>
<polygon fill="black" stroke="black" points="167.51,-253.09 169.27,-242.64 161.38,-249.71 167.51,-253.09"/>
<text text-anchor="middle" x="171" y="-264.8" font-family="Times New Roman,serif" font-size="14.00">right</text>
</g>
<!-- 2358444581856 -->
<g id="node4" class="node">
<title>2358444581856</title>
<polygon fill="aliceblue" stroke="black" points="0,-98.5 0,-144.5 71,-144.5 71,-98.5 0,-98.5"/>
<text text-anchor="middle" x="35.5" y="-129.3" font-family="Times New Roman,serif" font-size="14.00">a:Variable</text>
<polyline fill="none" stroke="black" points="0,-121.5 71,-121.5 "/>
<text text-anchor="middle" x="35.5" y="-106.3" font-family="Times New Roman,serif" font-size="14.00"> </text>
</g>
<!-- 2358444581808&#45;&gt;2358444581856 -->
<g id="edge3" class="edge">
<title>2358444581808&#45;&gt;2358444581856</title>
<path fill="none" stroke="black" d="M48.83,-186.27C47.2,-183.57 45.73,-180.8 44.5,-178 41.3,-170.73 39.23,-162.48 37.88,-154.6"/>
<polygon fill="black" stroke="black" points="48.9,-186.37 55.59,-189.06 55.69,-196.27 48.99,-193.58 48.9,-186.37"/>
<polygon fill="black" stroke="black" points="41.33,-154.01 36.51,-144.57 34.4,-154.96 41.33,-154.01"/>
<text text-anchor="middle" x="72" y="-166.8" font-family="Times New Roman,serif" font-size="14.00">parameter</text>
</g>
<!-- 2358444581904 -->
<g id="node5" class="node">
<title>2358444581904</title>
<polygon fill="aliceblue" stroke="black" points="93,-98.5 93,-144.5 178,-144.5 178,-98.5 93,-98.5"/>
<text text-anchor="middle" x="135.5" y="-129.3" font-family="Times New Roman,serif" font-size="14.00">:Abstraction</text>
<polyline fill="none" stroke="black" points="93,-121.5 178,-121.5 "/>
<text text-anchor="middle" x="135.5" y="-106.3" font-family="Times New Roman,serif" font-size="14.00"> </text>
</g>
<!-- 2358444581808&#45;&gt;2358444581904 -->
<g id="edge4" class="edge">
<title>2358444581808&#45;&gt;2358444581904</title>
<path fill="none" stroke="black" d="M96.57,-185.84C103.03,-175.34 110.15,-163.75 116.52,-153.38"/>
<polygon fill="black" stroke="black" points="96.47,-186.01 96.73,-193.22 90.18,-196.23 89.92,-189.03 96.47,-186.01"/>
<polygon fill="black" stroke="black" points="119.64,-155 121.89,-144.64 113.67,-151.33 119.64,-155"/>
<text text-anchor="middle" x="141" y="-166.8" font-family="Times New Roman,serif" font-size="14.00">expression</text>
</g>
<!-- 2358444581424 -->
<g id="node6" class="node">
<title>2358444581424</title>
<polygon fill="aliceblue" stroke="black" points="52,-0.5 52,-46.5 125,-46.5 125,-0.5 52,-0.5"/>
<text text-anchor="middle" x="88.5" y="-31.3" font-family="Times New Roman,serif" font-size="14.00">b:Variable</text>
<polyline fill="none" stroke="black" points="52,-23.5 125,-23.5 "/>
<text text-anchor="middle" x="88.5" y="-8.3" font-family="Times New Roman,serif" font-size="14.00"> </text>
</g>
<!-- 2358444581904&#45;&gt;2358444581424 -->
<g id="edge5" class="edge">
<title>2358444581904&#45;&gt;2358444581424</title>
<path fill="none" stroke="black" d="M105.59,-88.65C103.7,-85.84 101.97,-82.94 100.5,-80 96.92,-72.82 94.4,-64.6 92.64,-56.73"/>
<polygon fill="black" stroke="black" points="105.72,-88.83 112.53,-91.2 112.96,-98.4 106.15,-96.03 105.72,-88.83"/>
<polygon fill="black" stroke="black" points="96.03,-55.86 90.72,-46.69 89.16,-57.17 96.03,-55.86"/>
<text text-anchor="middle" x="128" y="-68.8" font-family="Times New Roman,serif" font-size="14.00">parameter</text>
</g>
<!-- 2358444581664 -->
<g id="node7" class="node">
<title>2358444581664</title>
<polygon fill="aliceblue" stroke="black" points="147,-0.5 147,-46.5 218,-46.5 218,-0.5 147,-0.5"/>
<text text-anchor="middle" x="182.5" y="-31.3" font-family="Times New Roman,serif" font-size="14.00">a:Variable</text>
<polyline fill="none" stroke="black" points="147,-23.5 218,-23.5 "/>
<text text-anchor="middle" x="182.5" y="-8.3" font-family="Times New Roman,serif" font-size="14.00"> </text>
</g>
<!-- 2358444581904&#45;&gt;2358444581664 -->
<g id="edge6" class="edge">
<title>2358444581904&#45;&gt;2358444581664</title>
<path fill="none" stroke="black" d="M152.79,-87.43C154.05,-84.92 155.3,-82.42 156.5,-80 160.31,-72.27 164.32,-63.87 168.01,-56"/>
<polygon fill="black" stroke="black" points="152.69,-87.62 153.51,-94.78 147.22,-98.3 146.39,-91.14 152.69,-87.62"/>
<polygon fill="black" stroke="black" points="171.27,-57.29 172.33,-46.74 164.93,-54.33 171.27,-57.29"/>
<text text-anchor="middle" x="194" y="-68.8" font-family="Times New Roman,serif" font-size="14.00">expression</text>
</g>
</g>
</svg>
