<?xml version="1.0" encoding="UTF-8" standalone="no"?>
<!DOCTYPE svg PUBLIC "-//W3C//DTD SVG 1.1//EN"
 "http://www.w3.org/Graphics/SVG/1.1/DTD/svg11.dtd">
<!-- Generated by graphviz version 3.0.0 (20220226.1711)
 -->
<!-- Title: textX Pages: 1 -->
<svg width="229pt" height="251pt"
 viewBox="0.00 0.00 228.50 251.00" xmlns="http://www.w3.org/2000/svg" xmlns:xlink="http://www.w3.org/1999/xlink">
<g id="graph0" class="graph" transform="scale(1 1) rotate(0) translate(4 247)">
<title>textX</title>
<polygon fill="white" stroke="transparent" points="-4,4 -4,-247 224.5,-247 224.5,4 -4,4"/>
<!-- 1953380660848 -->
<g id="node1" class="node">
<title>1953380660848</title>
<polygon fill="aliceblue" stroke="black" points="33,-196.5 33,-242.5 118,-242.5 118,-196.5 33,-196.5"/>
<text text-anchor="middle" x="75.5" y="-227.3" font-family="Times New Roman,serif" font-size="14.00">:Abstraction</text>
<polyline fill="none" stroke="black" points="33,-219.5 118,-219.5 "/>
<text text-anchor="middle" x="75.5" y="-204.3" font-family="Times New Roman,serif" font-size="14.00"> </text>
</g>
<!-- 1953380153568 -->
<g id="node2" class="node">
<title>1953380153568</title>
<polygon fill="aliceblue" stroke="black" points="0,-98.5 0,-144.5 69,-144.5 69,-98.5 0,-98.5"/>
<text text-anchor="middle" x="34.5" y="-129.3" font-family="Times New Roman,serif" font-size="14.00">t:Variable</text>
<polyline fill="none" stroke="black" points="0,-121.5 69,-121.5 "/>
<text text-anchor="middle" x="34.5" y="-106.3" font-family="Times New Roman,serif" font-size="14.00"> </text>
</g>
<!-- 1953380660848&#45;&gt;1953380153568 -->
<g id="edge1" class="edge">
<title>1953380660848&#45;&gt;1953380153568</title>
<path fill="none" stroke="black" d="M46.9,-186.35C45.24,-183.63 43.74,-180.83 42.5,-178 39.32,-170.75 37.35,-162.5 36.15,-154.62"/>
<polygon fill="black" stroke="black" points="47.05,-186.56 53.77,-189.18 53.95,-196.38 47.22,-193.77 47.05,-186.56"/>
<polygon fill="black" stroke="black" points="39.61,-154.12 34.97,-144.59 32.66,-154.93 39.61,-154.12"/>
<text text-anchor="middle" x="70" y="-166.8" font-family="Times New Roman,serif" font-size="14.00">parameter</text>
</g>
<!-- 1953380153520 -->
<g id="node3" class="node">
<title>1953380153520</title>
<polygon fill="aliceblue" stroke="black" points="91,-98.5 91,-144.5 176,-144.5 176,-98.5 91,-98.5"/>
<text text-anchor="middle" x="133.5" y="-129.3" font-family="Times New Roman,serif" font-size="14.00">:Abstraction</text>
<polyline fill="none" stroke="black" points="91,-121.5 176,-121.5 "/>
<text text-anchor="middle" x="133.5" y="-106.3" font-family="Times New Roman,serif" font-size="14.00"> </text>
</g>
<!-- 1953380660848&#45;&gt;1953380153520 -->
<g id="edge2" class="edge">
<title>1953380660848&#45;&gt;1953380153520</title>
<path fill="none" stroke="black" d="M95.23,-185.84C101.58,-175.34 108.58,-163.75 114.84,-153.38"/>
<polygon fill="black" stroke="black" points="95.16,-185.96 95.48,-193.17 88.95,-196.23 88.63,-189.03 95.16,-185.96"/>
<polygon fill="black" stroke="black" points="117.95,-155.01 120.12,-144.64 111.95,-151.39 117.95,-155.01"/>
<text text-anchor="middle" x="138" y="-166.8" font-family="Times New Roman,serif" font-size="14.00">expression</text>
</g>
<!-- 1953380397120 -->
<g id="node4" class="node">
<title>1953380397120</title>
<polygon fill="aliceblue" stroke="black" points="52.5,-0.5 52.5,-46.5 122.5,-46.5 122.5,-0.5 52.5,-0.5"/>
<text text-anchor="middle" x="87.5" y="-31.3" font-family="Times New Roman,serif" font-size="14.00">f:Variable</text>
<polyline fill="none" stroke="black" points="52.5,-23.5 122.5,-23.5 "/>
<text text-anchor="middle" x="87.5" y="-8.3" font-family="Times New Roman,serif" font-size="14.00"> </text>
</g>
<!-- 1953380153520&#45;&gt;1953380397120 -->
<g id="edge3" class="edge">
<title>1953380153520&#45;&gt;1953380397120</title>
<path fill="none" stroke="black" d="M102.46,-88.55C100.6,-85.78 98.92,-82.91 97.5,-80 94.02,-72.84 91.74,-64.62 90.25,-56.75"/>
<polygon fill="black" stroke="black" points="102.49,-88.59 109.31,-90.93 109.77,-98.13 102.95,-95.78 102.49,-88.59"/>
<polygon fill="black" stroke="black" points="93.69,-56.06 88.71,-46.71 86.77,-57.12 93.69,-56.06"/>
<text text-anchor="middle" x="125" y="-68.8" font-family="Times New Roman,serif" font-size="14.00">parameter</text>
</g>
<!-- 1953380397216 -->
<g id="node5" class="node">
<title>1953380397216</title>
<polygon fill="aliceblue" stroke="black" points="145,-0.5 145,-46.5 214,-46.5 214,-0.5 145,-0.5"/>
<text text-anchor="middle" x="179.5" y="-31.3" font-family="Times New Roman,serif" font-size="14.00">t:Variable</text>
<polyline fill="none" stroke="black" points="145,-23.5 214,-23.5 "/>
<text text-anchor="middle" x="179.5" y="-8.3" font-family="Times New Roman,serif" font-size="14.00"> </text>
</g>
<!-- 1953380153520&#45;&gt;1953380397216 -->
<g id="edge4" class="edge">
<title>1953380153520&#45;&gt;1953380397216</title>
<path fill="none" stroke="black" d="M149.91,-87.4C151.13,-84.9 152.34,-82.41 153.5,-80 157.24,-72.23 161.22,-63.82 164.91,-55.95"/>
<polygon fill="black" stroke="black" points="149.87,-87.49 150.82,-94.63 144.59,-98.26 143.64,-91.11 149.87,-87.49"/>
<polygon fill="black" stroke="black" points="168.17,-57.24 169.23,-46.7 161.82,-54.27 168.17,-57.24"/>
<text text-anchor="middle" x="190" y="-68.8" font-family="Times New Roman,serif" font-size="14.00">expression</text>
</g>
</g>
</svg>
