<?xml version="1.0" encoding="UTF-8" standalone="no"?>
<!DOCTYPE svg PUBLIC "-//W3C//DTD SVG 1.1//EN"
 "http://www.w3.org/Graphics/SVG/1.1/DTD/svg11.dtd">
<!-- Generated by graphviz version 3.0.0 (20220226.1711)
 -->
<!-- Title: textX Pages: 1 -->
<svg width="233pt" height="251pt"
 viewBox="0.00 0.00 232.50 251.00" xmlns="http://www.w3.org/2000/svg" xmlns:xlink="http://www.w3.org/1999/xlink">
<g id="graph0" class="graph" transform="scale(1 1) rotate(0) translate(4 247)">
<title>textX</title>
<polygon fill="white" stroke="transparent" points="-4,4 -4,-247 228.5,-247 228.5,4 -4,4"/>
<!-- 2196318992320 -->
<g id="node1" class="node">
<title>2196318992320</title>
<polygon fill="aliceblue" stroke="black" points="39,-196.5 39,-242.5 124,-242.5 124,-196.5 39,-196.5"/>
<text text-anchor="middle" x="81.5" y="-227.3" font-family="Times New Roman,serif" font-size="14.00">:Abstraction</text>
<polyline fill="none" stroke="black" points="39,-219.5 124,-219.5 "/>
<text text-anchor="middle" x="81.5" y="-204.3" font-family="Times New Roman,serif" font-size="14.00"> </text>
</g>
<!-- 2196318992848 -->
<g id="node2" class="node">
<title>2196318992848</title>
<polygon fill="aliceblue" stroke="black" points="0,-98.5 0,-144.5 73,-144.5 73,-98.5 0,-98.5"/>
<text text-anchor="middle" x="36.5" y="-129.3" font-family="Times New Roman,serif" font-size="14.00">o:Variable</text>
<polyline fill="none" stroke="black" points="0,-121.5 73,-121.5 "/>
<text text-anchor="middle" x="36.5" y="-106.3" font-family="Times New Roman,serif" font-size="14.00"> </text>
</g>
<!-- 2196318992320&#45;&gt;2196318992848 -->
<g id="edge1" class="edge">
<title>2196318992320&#45;&gt;2196318992848</title>
<path fill="none" stroke="black" d="M50.4,-186.58C48.56,-183.8 46.89,-180.93 45.5,-178 42.09,-170.83 39.94,-162.61 38.59,-154.73"/>
<polygon fill="black" stroke="black" points="50.43,-186.61 57.24,-188.97 57.69,-196.17 50.87,-193.81 50.43,-186.61"/>
<polygon fill="black" stroke="black" points="42.04,-154.14 37.24,-144.7 35.11,-155.07 42.04,-154.14"/>
<text text-anchor="middle" x="73" y="-166.8" font-family="Times New Roman,serif" font-size="14.00">parameter</text>
</g>
<!-- 2196318993280 -->
<g id="node3" class="node">
<title>2196318993280</title>
<polygon fill="aliceblue" stroke="black" points="95,-98.5 95,-144.5 180,-144.5 180,-98.5 95,-98.5"/>
<text text-anchor="middle" x="137.5" y="-129.3" font-family="Times New Roman,serif" font-size="14.00">:Abstraction</text>
<polyline fill="none" stroke="black" points="95,-121.5 180,-121.5 "/>
<text text-anchor="middle" x="137.5" y="-106.3" font-family="Times New Roman,serif" font-size="14.00"> </text>
</g>
<!-- 2196318992320&#45;&gt;2196318993280 -->
<g id="edge2" class="edge">
<title>2196318992320&#45;&gt;2196318993280</title>
<path fill="none" stroke="black" d="M100.55,-185.84C106.68,-175.34 113.44,-163.75 119.49,-153.38"/>
<polygon fill="black" stroke="black" points="100.53,-185.87 100.97,-193.07 94.49,-196.23 94.06,-189.04 100.53,-185.87"/>
<polygon fill="black" stroke="black" points="122.57,-155.05 124.58,-144.64 116.52,-151.52 122.57,-155.05"/>
<text text-anchor="middle" x="143" y="-166.8" font-family="Times New Roman,serif" font-size="14.00">expression</text>
</g>
<!-- 2196318993328 -->
<g id="node4" class="node">
<title>2196318993328</title>
<polygon fill="aliceblue" stroke="black" points="53,-0.5 53,-46.5 126,-46.5 126,-0.5 53,-0.5"/>
<text text-anchor="middle" x="89.5" y="-31.3" font-family="Times New Roman,serif" font-size="14.00">p:Variable</text>
<polyline fill="none" stroke="black" points="53,-23.5 126,-23.5 "/>
<text text-anchor="middle" x="89.5" y="-8.3" font-family="Times New Roman,serif" font-size="14.00"> </text>
</g>
<!-- 2196318993280&#45;&gt;2196318993328 -->
<g id="edge3" class="edge">
<title>2196318993280&#45;&gt;2196318993328</title>
<path fill="none" stroke="black" d="M102.72,-88.63C100.75,-85.85 98.97,-82.97 97.5,-80 93.95,-72.85 91.85,-64.58 90.64,-56.64"/>
<polygon fill="black" stroke="black" points="102.91,-88.86 109.81,-90.95 110.53,-98.13 103.63,-96.03 102.91,-88.86"/>
<polygon fill="black" stroke="black" points="94.1,-56.08 89.51,-46.53 87.14,-56.85 94.1,-56.08"/>
<text text-anchor="middle" x="125" y="-68.8" font-family="Times New Roman,serif" font-size="14.00">parameter</text>
</g>
<!-- 2196318993376 -->
<g id="node5" class="node">
<title>2196318993376</title>
<polygon fill="aliceblue" stroke="black" points="148,-0.5 148,-46.5 221,-46.5 221,-0.5 148,-0.5"/>
<text text-anchor="middle" x="184.5" y="-31.3" font-family="Times New Roman,serif" font-size="14.00">o:Variable</text>
<polyline fill="none" stroke="black" points="148,-23.5 221,-23.5 "/>
<text text-anchor="middle" x="184.5" y="-8.3" font-family="Times New Roman,serif" font-size="14.00"> </text>
</g>
<!-- 2196318993280&#45;&gt;2196318993376 -->
<g id="edge4" class="edge">
<title>2196318993280&#45;&gt;2196318993376</title>
<path fill="none" stroke="black" d="M153.69,-87.43C158.69,-77.22 164.18,-66.01 169.12,-55.91"/>
<polygon fill="black" stroke="black" points="153.68,-87.46 154.63,-94.6 148.4,-98.23 147.45,-91.09 153.68,-87.46"/>
<polygon fill="black" stroke="black" points="172.4,-57.17 173.66,-46.64 166.12,-54.09 172.4,-57.17"/>
<text text-anchor="middle" x="194" y="-68.8" font-family="Times New Roman,serif" font-size="14.00">expression</text>
</g>
</g>
</svg>
