<?xml version="1.0" encoding="UTF-8" standalone="no"?>
<!DOCTYPE svg PUBLIC "-//W3C//DTD SVG 1.1//EN"
 "http://www.w3.org/Graphics/SVG/1.1/DTD/svg11.dtd">
<!-- Generated by graphviz version 3.0.0 (20220226.1711)
 -->
<!-- Title: textX Pages: 1 -->
<svg width="586pt" height="447pt"
 viewBox="0.00 0.00 586.00 447.00" xmlns="http://www.w3.org/2000/svg" xmlns:xlink="http://www.w3.org/1999/xlink">
<g id="graph0" class="graph" transform="scale(1 1) rotate(0) translate(4 443)">
<title>textX</title>
<polygon fill="white" stroke="transparent" points="-4,4 -4,-443 582,-443 582,4 -4,4"/>
<!-- 2196318385200 -->
<g id="node1" class="node">
<title>2196318385200</title>
<polygon fill="aliceblue" stroke="black" points="250,-392.5 250,-438.5 334,-438.5 334,-392.5 250,-392.5"/>
<text text-anchor="middle" x="292" y="-423.3" font-family="Times New Roman,serif" font-size="14.00">:Application</text>
<polyline fill="none" stroke="black" points="250,-415.5 334,-415.5 "/>
<text text-anchor="middle" x="292" y="-400.3" font-family="Times New Roman,serif" font-size="14.00"> </text>
</g>
<!-- 2196318776864 -->
<g id="node2" class="node">
<title>2196318776864</title>
<polygon fill="aliceblue" stroke="black" points="197,-294.5 197,-340.5 281,-340.5 281,-294.5 197,-294.5"/>
<text text-anchor="middle" x="239" y="-325.3" font-family="Times New Roman,serif" font-size="14.00">:Application</text>
<polyline fill="none" stroke="black" points="197,-317.5 281,-317.5 "/>
<text text-anchor="middle" x="239" y="-302.3" font-family="Times New Roman,serif" font-size="14.00"> </text>
</g>
<!-- 2196318385200&#45;&gt;2196318776864 -->
<g id="edge1" class="edge">
<title>2196318385200&#45;&gt;2196318776864</title>
<path fill="none" stroke="black" d="M273.74,-381.43C268.05,-371.12 261.79,-359.78 256.17,-349.6"/>
<polygon fill="black" stroke="black" points="273.91,-381.73 280.31,-385.05 279.71,-392.23 273.31,-388.91 273.91,-381.73"/>
<polygon fill="black" stroke="black" points="259.12,-347.71 251.23,-340.64 252.99,-351.09 259.12,-347.71"/>
<text text-anchor="middle" x="278" y="-362.8" font-family="Times New Roman,serif" font-size="14.00">left</text>
</g>
<!-- 2196317557472 -->
<g id="node13" class="node">
<title>2196317557472</title>
<polygon fill="aliceblue" stroke="black" points="303.5,-294.5 303.5,-340.5 388.5,-340.5 388.5,-294.5 303.5,-294.5"/>
<text text-anchor="middle" x="346" y="-325.3" font-family="Times New Roman,serif" font-size="14.00">:Abstraction</text>
<polyline fill="none" stroke="black" points="303.5,-317.5 388.5,-317.5 "/>
<text text-anchor="middle" x="346" y="-302.3" font-family="Times New Roman,serif" font-size="14.00"> </text>
</g>
<!-- 2196318385200&#45;&gt;2196317557472 -->
<g id="edge12" class="edge">
<title>2196318385200&#45;&gt;2196317557472</title>
<path fill="none" stroke="black" d="M310.6,-381.43C316.4,-371.12 322.78,-359.78 328.51,-349.6"/>
<polygon fill="black" stroke="black" points="310.41,-381.78 310.95,-388.97 304.52,-392.23 303.98,-385.04 310.41,-381.78"/>
<polygon fill="black" stroke="black" points="331.69,-351.08 333.54,-340.64 325.59,-347.64 331.69,-351.08"/>
<text text-anchor="middle" x="335.5" y="-362.8" font-family="Times New Roman,serif" font-size="14.00">right</text>
</g>
<!-- 2196318776816 -->
<g id="node3" class="node">
<title>2196318776816</title>
<polygon fill="aliceblue" stroke="black" points="93.5,-196.5 93.5,-242.5 178.5,-242.5 178.5,-196.5 93.5,-196.5"/>
<text text-anchor="middle" x="136" y="-227.3" font-family="Times New Roman,serif" font-size="14.00">:Abstraction</text>
<polyline fill="none" stroke="black" points="93.5,-219.5 178.5,-219.5 "/>
<text text-anchor="middle" x="136" y="-204.3" font-family="Times New Roman,serif" font-size="14.00"> </text>
</g>
<!-- 2196318776864&#45;&gt;2196318776816 -->
<g id="edge2" class="edge">
<title>2196318776864&#45;&gt;2196318776816</title>
<path fill="none" stroke="black" d="M206.36,-286.08C193.87,-274.44 179.66,-261.2 167.3,-249.68"/>
<polygon fill="black" stroke="black" points="206.59,-286.29 213.71,-287.46 215.37,-294.48 208.25,-293.31 206.59,-286.29"/>
<polygon fill="black" stroke="black" points="169.58,-247.01 159.88,-242.75 164.81,-252.13 169.58,-247.01"/>
<text text-anchor="middle" x="203" y="-264.8" font-family="Times New Roman,serif" font-size="14.00">left</text>
</g>
<!-- 2196317842544 -->
<g id="node8" class="node">
<title>2196317842544</title>
<polygon fill="aliceblue" stroke="black" points="200.5,-196.5 200.5,-242.5 285.5,-242.5 285.5,-196.5 200.5,-196.5"/>
<text text-anchor="middle" x="243" y="-227.3" font-family="Times New Roman,serif" font-size="14.00">:Abstraction</text>
<polyline fill="none" stroke="black" points="200.5,-219.5 285.5,-219.5 "/>
<text text-anchor="middle" x="243" y="-204.3" font-family="Times New Roman,serif" font-size="14.00"> </text>
</g>
<!-- 2196318776864&#45;&gt;2196317842544 -->
<g id="edge7" class="edge">
<title>2196318776864&#45;&gt;2196317842544</title>
<path fill="none" stroke="black" d="M240.43,-282.22C240.83,-272.65 241.26,-262.29 241.65,-252.84"/>
<polygon fill="black" stroke="black" points="240.43,-282.24 244.17,-288.41 239.93,-294.23 236.18,-288.07 240.43,-282.24"/>
<polygon fill="black" stroke="black" points="245.16,-252.78 242.08,-242.64 238.16,-252.49 245.16,-252.78"/>
<text text-anchor="middle" x="254.5" y="-264.8" font-family="Times New Roman,serif" font-size="14.00">right</text>
</g>
<!-- 2196317842112 -->
<g id="node4" class="node">
<title>2196317842112</title>
<polygon fill="aliceblue" stroke="black" points="0,-98.5 0,-144.5 76,-144.5 76,-98.5 0,-98.5"/>
<text text-anchor="middle" x="38" y="-129.3" font-family="Times New Roman,serif" font-size="14.00">m:Variable</text>
<polyline fill="none" stroke="black" points="0,-121.5 76,-121.5 "/>
<text text-anchor="middle" x="38" y="-106.3" font-family="Times New Roman,serif" font-size="14.00"> </text>
</g>
<!-- 2196318776816&#45;&gt;2196317842112 -->
<g id="edge3" class="edge">
<title>2196318776816&#45;&gt;2196317842112</title>
<path fill="none" stroke="black" d="M91.47,-189C87.1,-185.48 82.86,-181.79 79,-178 71.37,-170.51 64.08,-161.5 57.81,-152.93"/>
<polygon fill="black" stroke="black" points="91.61,-189.11 98.81,-189.57 101.15,-196.39 93.96,-195.93 91.61,-189.11"/>
<polygon fill="black" stroke="black" points="60.55,-150.74 51.92,-144.59 54.83,-154.78 60.55,-150.74"/>
<text text-anchor="middle" x="106.5" y="-166.8" font-family="Times New Roman,serif" font-size="14.00">parameter</text>
</g>
<!-- 2196317842688 -->
<g id="node5" class="node">
<title>2196317842688</title>
<polygon fill="aliceblue" stroke="black" points="98.5,-98.5 98.5,-144.5 183.5,-144.5 183.5,-98.5 98.5,-98.5"/>
<text text-anchor="middle" x="141" y="-129.3" font-family="Times New Roman,serif" font-size="14.00">:Abstraction</text>
<polyline fill="none" stroke="black" points="98.5,-121.5 183.5,-121.5 "/>
<text text-anchor="middle" x="141" y="-106.3" font-family="Times New Roman,serif" font-size="14.00"> </text>
</g>
<!-- 2196318776816&#45;&gt;2196317842688 -->
<g id="edge4" class="edge">
<title>2196318776816&#45;&gt;2196317842688</title>
<path fill="none" stroke="black" d="M137.79,-184.22C138.28,-174.65 138.82,-164.29 139.32,-154.84"/>
<polygon fill="black" stroke="black" points="137.78,-184.25 141.47,-190.45 137.16,-196.23 133.48,-190.03 137.78,-184.25"/>
<polygon fill="black" stroke="black" points="142.82,-154.81 139.85,-144.64 135.83,-154.45 142.82,-154.81"/>
<text text-anchor="middle" x="169.5" y="-166.8" font-family="Times New Roman,serif" font-size="14.00">expression</text>
</g>
<!-- 2196317842640 -->
<g id="node6" class="node">
<title>2196317842640</title>
<polygon fill="aliceblue" stroke="black" points="14,-0.5 14,-46.5 86,-46.5 86,-0.5 14,-0.5"/>
<text text-anchor="middle" x="50" y="-31.3" font-family="Times New Roman,serif" font-size="14.00">n:Variable</text>
<polyline fill="none" stroke="black" points="14,-23.5 86,-23.5 "/>
<text text-anchor="middle" x="50" y="-8.3" font-family="Times New Roman,serif" font-size="14.00"> </text>
</g>
<!-- 2196317842688&#45;&gt;2196317842640 -->
<g id="edge5" class="edge">
<title>2196317842688&#45;&gt;2196317842640</title>
<path fill="none" stroke="black" d="M95.45,-90.77C91.39,-87.35 87.5,-83.74 84,-80 77.26,-72.78 71.16,-64.03 66.05,-55.62"/>
<polygon fill="black" stroke="black" points="95.69,-90.96 102.88,-91.52 105.13,-98.37 97.94,-97.81 95.69,-90.96"/>
<polygon fill="black" stroke="black" points="68.94,-53.63 60.9,-46.73 62.88,-57.14 68.94,-53.63"/>
<text text-anchor="middle" x="111.5" y="-68.8" font-family="Times New Roman,serif" font-size="14.00">parameter</text>
</g>
<!-- 2196317842304 -->
<g id="node7" class="node">
<title>2196317842304</title>
<polygon fill="aliceblue" stroke="black" points="108,-0.5 108,-46.5 184,-46.5 184,-0.5 108,-0.5"/>
<text text-anchor="middle" x="146" y="-31.3" font-family="Times New Roman,serif" font-size="14.00">m:Variable</text>
<polyline fill="none" stroke="black" points="108,-23.5 184,-23.5 "/>
<text text-anchor="middle" x="146" y="-8.3" font-family="Times New Roman,serif" font-size="14.00"> </text>
</g>
<!-- 2196317842688&#45;&gt;2196317842304 -->
<g id="edge6" class="edge">
<title>2196317842688&#45;&gt;2196317842304</title>
<path fill="none" stroke="black" d="M142.79,-86.22C143.28,-76.65 143.82,-66.29 144.32,-56.84"/>
<polygon fill="black" stroke="black" points="142.78,-86.25 146.47,-92.45 142.16,-98.23 138.48,-92.03 142.78,-86.25"/>
<polygon fill="black" stroke="black" points="147.82,-56.81 144.85,-46.64 140.83,-56.45 147.82,-56.81"/>
<text text-anchor="middle" x="174.5" y="-68.8" font-family="Times New Roman,serif" font-size="14.00">expression</text>
</g>
<!-- 2196317842592 -->
<g id="node9" class="node">
<title>2196317842592</title>
<polygon fill="aliceblue" stroke="black" points="206.5,-98.5 206.5,-144.5 279.5,-144.5 279.5,-98.5 206.5,-98.5"/>
<text text-anchor="middle" x="243" y="-129.3" font-family="Times New Roman,serif" font-size="14.00">o:Variable</text>
<polyline fill="none" stroke="black" points="206.5,-121.5 279.5,-121.5 "/>
<text text-anchor="middle" x="243" y="-106.3" font-family="Times New Roman,serif" font-size="14.00"> </text>
</g>
<!-- 2196317842544&#45;&gt;2196317842592 -->
<g id="edge8" class="edge">
<title>2196317842544&#45;&gt;2196317842592</title>
<path fill="none" stroke="black" d="M243,-184.22C243,-174.65 243,-164.29 243,-154.84"/>
<polygon fill="black" stroke="black" points="243,-184.23 247,-190.23 243,-196.23 239,-190.23 243,-184.23"/>
<polygon fill="black" stroke="black" points="246.5,-154.64 243,-144.64 239.5,-154.64 246.5,-154.64"/>
<text text-anchor="middle" x="270.5" y="-166.8" font-family="Times New Roman,serif" font-size="14.00">parameter</text>
</g>
<!-- 2196317842448 -->
<g id="node10" class="node">
<title>2196317842448</title>
<polygon fill="aliceblue" stroke="black" points="301.5,-98.5 301.5,-144.5 386.5,-144.5 386.5,-98.5 301.5,-98.5"/>
<text text-anchor="middle" x="344" y="-129.3" font-family="Times New Roman,serif" font-size="14.00">:Abstraction</text>
<polyline fill="none" stroke="black" points="301.5,-121.5 386.5,-121.5 "/>
<text text-anchor="middle" x="344" y="-106.3" font-family="Times New Roman,serif" font-size="14.00"> </text>
</g>
<!-- 2196317842544&#45;&gt;2196317842448 -->
<g id="edge9" class="edge">
<title>2196317842544&#45;&gt;2196317842448</title>
<path fill="none" stroke="black" d="M290.1,-189.03C294.63,-185.52 299.01,-181.82 303,-178 310.72,-170.6 318.04,-161.62 324.3,-153.05"/>
<polygon fill="black" stroke="black" points="289.73,-189.3 287.25,-196.07 280.05,-196.39 282.53,-189.62 289.73,-189.3"/>
<polygon fill="black" stroke="black" points="327.29,-154.89 330.18,-144.7 321.56,-150.86 327.29,-154.89"/>
<text text-anchor="middle" x="346.5" y="-166.8" font-family="Times New Roman,serif" font-size="14.00">expression</text>
</g>
<!-- 2196317842496 -->
<g id="node11" class="node">
<title>2196317842496</title>
<polygon fill="aliceblue" stroke="black" points="259.5,-0.5 259.5,-46.5 332.5,-46.5 332.5,-0.5 259.5,-0.5"/>
<text text-anchor="middle" x="296" y="-31.3" font-family="Times New Roman,serif" font-size="14.00">p:Variable</text>
<polyline fill="none" stroke="black" points="259.5,-23.5 332.5,-23.5 "/>
<text text-anchor="middle" x="296" y="-8.3" font-family="Times New Roman,serif" font-size="14.00"> </text>
</g>
<!-- 2196317842448&#45;&gt;2196317842496 -->
<g id="edge10" class="edge">
<title>2196317842448&#45;&gt;2196317842496</title>
<path fill="none" stroke="black" d="M310.51,-89.05C308.43,-86.14 306.56,-83.11 305,-80 301.42,-72.84 299.21,-64.56 297.86,-56.63"/>
<polygon fill="black" stroke="black" points="310.59,-89.14 317.49,-91.25 318.19,-98.43 311.3,-96.32 310.59,-89.14"/>
<polygon fill="black" stroke="black" points="301.3,-55.98 296.54,-46.51 294.36,-56.88 301.3,-55.98"/>
<text text-anchor="middle" x="332.5" y="-68.8" font-family="Times New Roman,serif" font-size="14.00">parameter</text>
</g>
<!-- 2196317842208 -->
<g id="node12" class="node">
<title>2196317842208</title>
<polygon fill="aliceblue" stroke="black" points="354.5,-0.5 354.5,-46.5 427.5,-46.5 427.5,-0.5 354.5,-0.5"/>
<text text-anchor="middle" x="391" y="-31.3" font-family="Times New Roman,serif" font-size="14.00">o:Variable</text>
<polyline fill="none" stroke="black" points="354.5,-23.5 427.5,-23.5 "/>
<text text-anchor="middle" x="391" y="-8.3" font-family="Times New Roman,serif" font-size="14.00"> </text>
</g>
<!-- 2196317842448&#45;&gt;2196317842208 -->
<g id="edge11" class="edge">
<title>2196317842448&#45;&gt;2196317842208</title>
<path fill="none" stroke="black" d="M360.19,-87.43C365.19,-77.22 370.68,-66.01 375.62,-55.91"/>
<polygon fill="black" stroke="black" points="360.18,-87.46 361.13,-94.6 354.9,-98.23 353.95,-91.09 360.18,-87.46"/>
<polygon fill="black" stroke="black" points="378.9,-57.17 380.16,-46.64 372.62,-54.09 378.9,-57.17"/>
<text text-anchor="middle" x="401.5" y="-68.8" font-family="Times New Roman,serif" font-size="14.00">expression</text>
</g>
<!-- 2196317559728 -->
<g id="node14" class="node">
<title>2196317559728</title>
<polygon fill="aliceblue" stroke="black" points="309,-196.5 309,-242.5 381,-242.5 381,-196.5 309,-196.5"/>
<text text-anchor="middle" x="345" y="-227.3" font-family="Times New Roman,serif" font-size="14.00">x:Variable</text>
<polyline fill="none" stroke="black" points="309,-219.5 381,-219.5 "/>
<text text-anchor="middle" x="345" y="-204.3" font-family="Times New Roman,serif" font-size="14.00"> </text>
</g>
<!-- 2196317557472&#45;&gt;2196317559728 -->
<g id="edge13" class="edge">
<title>2196317557472&#45;&gt;2196317559728</title>
<path fill="none" stroke="black" d="M345.64,-282.22C345.54,-272.65 345.44,-262.29 345.34,-252.84"/>
<polygon fill="black" stroke="black" points="345.64,-282.24 349.71,-288.19 345.77,-294.23 341.71,-288.28 345.64,-282.24"/>
<polygon fill="black" stroke="black" points="348.83,-252.61 345.23,-242.64 341.84,-252.68 348.83,-252.61"/>
<text text-anchor="middle" x="373.5" y="-264.8" font-family="Times New Roman,serif" font-size="14.00">parameter</text>
</g>
<!-- 2196317559344 -->
<g id="node15" class="node">
<title>2196317559344</title>
<polygon fill="aliceblue" stroke="black" points="403.5,-196.5 403.5,-242.5 488.5,-242.5 488.5,-196.5 403.5,-196.5"/>
<text text-anchor="middle" x="446" y="-227.3" font-family="Times New Roman,serif" font-size="14.00">:Abstraction</text>
<polyline fill="none" stroke="black" points="403.5,-219.5 488.5,-219.5 "/>
<text text-anchor="middle" x="446" y="-204.3" font-family="Times New Roman,serif" font-size="14.00"> </text>
</g>
<!-- 2196317557472&#45;&gt;2196317559344 -->
<g id="edge14" class="edge">
<title>2196317557472&#45;&gt;2196317559344</title>
<path fill="none" stroke="black" d="M393.14,-287.08C397.67,-283.56 402.04,-279.84 406,-276 413.61,-268.62 420.78,-259.64 426.88,-251.07"/>
<polygon fill="black" stroke="black" points="392.78,-287.35 390.31,-294.13 383.11,-294.45 385.58,-287.68 392.78,-287.35"/>
<polygon fill="black" stroke="black" points="429.84,-252.94 432.61,-242.72 424.07,-248.99 429.84,-252.94"/>
<text text-anchor="middle" x="449.5" y="-264.8" font-family="Times New Roman,serif" font-size="14.00">expression</text>
</g>
<!-- 2196317557760 -->
<g id="node16" class="node">
<title>2196317557760</title>
<polygon fill="aliceblue" stroke="black" points="410,-98.5 410,-144.5 482,-144.5 482,-98.5 410,-98.5"/>
<text text-anchor="middle" x="446" y="-129.3" font-family="Times New Roman,serif" font-size="14.00">y:Variable</text>
<polyline fill="none" stroke="black" points="410,-121.5 482,-121.5 "/>
<text text-anchor="middle" x="446" y="-106.3" font-family="Times New Roman,serif" font-size="14.00"> </text>
</g>
<!-- 2196317559344&#45;&gt;2196317557760 -->
<g id="edge15" class="edge">
<title>2196317559344&#45;&gt;2196317557760</title>
<path fill="none" stroke="black" d="M446,-184.22C446,-174.65 446,-164.29 446,-154.84"/>
<polygon fill="black" stroke="black" points="446,-184.23 450,-190.23 446,-196.23 442,-190.23 446,-184.23"/>
<polygon fill="black" stroke="black" points="449.5,-154.64 446,-144.64 442.5,-154.64 449.5,-154.64"/>
<text text-anchor="middle" x="473.5" y="-166.8" font-family="Times New Roman,serif" font-size="14.00">parameter</text>
</g>
<!-- 2196317560592 -->
<g id="node17" class="node">
<title>2196317560592</title>
<polygon fill="aliceblue" stroke="black" points="504,-98.5 504,-144.5 576,-144.5 576,-98.5 504,-98.5"/>
<text text-anchor="middle" x="540" y="-129.3" font-family="Times New Roman,serif" font-size="14.00">y:Variable</text>
<polyline fill="none" stroke="black" points="504,-121.5 576,-121.5 "/>
<text text-anchor="middle" x="540" y="-106.3" font-family="Times New Roman,serif" font-size="14.00"> </text>
</g>
<!-- 2196317559344&#45;&gt;2196317560592 -->
<g id="edge16" class="edge">
<title>2196317559344&#45;&gt;2196317560592</title>
<path fill="none" stroke="black" d="M493.8,-189.1C498.13,-185.6 502.28,-181.88 506,-178 512.96,-170.73 519.19,-161.8 524.36,-153.25"/>
<polygon fill="black" stroke="black" points="493.7,-189.17 491.31,-195.98 484.11,-196.38 486.5,-189.58 493.7,-189.17"/>
<polygon fill="black" stroke="black" points="527.4,-154.97 529.35,-144.55 521.33,-151.48 527.4,-154.97"/>
<text text-anchor="middle" x="547.5" y="-166.8" font-family="Times New Roman,serif" font-size="14.00">expression</text>
</g>
</g>
</svg>
