<?xml version="1.0" encoding="UTF-8" standalone="no"?>
<!DOCTYPE svg PUBLIC "-//W3C//DTD SVG 1.1//EN"
 "http://www.w3.org/Graphics/SVG/1.1/DTD/svg11.dtd">
<!-- Generated by graphviz version 3.0.0 (20220226.1711)
 -->
<!-- Title: textX Pages: 1 -->
<svg width="275pt" height="643pt"
 viewBox="0.00 0.00 274.50 643.00" xmlns="http://www.w3.org/2000/svg" xmlns:xlink="http://www.w3.org/1999/xlink">
<g id="graph0" class="graph" transform="scale(1 1) rotate(0) translate(4 639)">
<title>textX</title>
<polygon fill="white" stroke="transparent" points="-4,4 -4,-639 270.5,-639 270.5,4 -4,4"/>
<!-- 2196313705392 -->
<g id="node1" class="node">
<title>2196313705392</title>
<polygon fill="aliceblue" stroke="black" points="136.5,-588.5 136.5,-634.5 220.5,-634.5 220.5,-588.5 136.5,-588.5"/>
<text text-anchor="middle" x="178.5" y="-619.3" font-family="Times New Roman,serif" font-size="14.00">:Application</text>
<polyline fill="none" stroke="black" points="136.5,-611.5 220.5,-611.5 "/>
<text text-anchor="middle" x="178.5" y="-596.3" font-family="Times New Roman,serif" font-size="14.00"> </text>
</g>
<!-- 2196313704528 -->
<g id="node2" class="node">
<title>2196313704528</title>
<polygon fill="aliceblue" stroke="black" points="86.5,-490.5 86.5,-536.5 170.5,-536.5 170.5,-490.5 86.5,-490.5"/>
<text text-anchor="middle" x="128.5" y="-521.3" font-family="Times New Roman,serif" font-size="14.00">:Application</text>
<polyline fill="none" stroke="black" points="86.5,-513.5 170.5,-513.5 "/>
<text text-anchor="middle" x="128.5" y="-498.3" font-family="Times New Roman,serif" font-size="14.00"> </text>
</g>
<!-- 2196313705392&#45;&gt;2196313704528 -->
<g id="edge1" class="edge">
<title>2196313705392&#45;&gt;2196313704528</title>
<path fill="none" stroke="black" d="M161.28,-577.43C155.9,-567.12 150,-555.78 144.7,-545.6"/>
<polygon fill="black" stroke="black" points="161.36,-577.59 167.68,-581.07 166.9,-588.23 160.58,-584.76 161.36,-577.59"/>
<polygon fill="black" stroke="black" points="147.76,-543.9 140.03,-536.64 141.55,-547.13 147.76,-543.9"/>
<text text-anchor="middle" x="165.5" y="-558.8" font-family="Times New Roman,serif" font-size="14.00">left</text>
</g>
<!-- 2196313704432 -->
<g id="node13" class="node">
<title>2196313704432</title>
<polygon fill="aliceblue" stroke="black" points="192.5,-490.5 192.5,-536.5 266.5,-536.5 266.5,-490.5 192.5,-490.5"/>
<text text-anchor="middle" x="229.5" y="-521.3" font-family="Times New Roman,serif" font-size="14.00">F:Variable</text>
<polyline fill="none" stroke="black" points="192.5,-513.5 266.5,-513.5 "/>
<text text-anchor="middle" x="229.5" y="-498.3" font-family="Times New Roman,serif" font-size="14.00"> </text>
</g>
<!-- 2196313705392&#45;&gt;2196313704432 -->
<g id="edge12" class="edge">
<title>2196313705392&#45;&gt;2196313704432</title>
<path fill="none" stroke="black" d="M196.07,-577.43C201.55,-567.12 207.57,-555.78 212.98,-545.6"/>
<polygon fill="black" stroke="black" points="195.96,-577.64 196.68,-584.81 190.33,-588.23 189.61,-581.06 195.96,-577.64"/>
<polygon fill="black" stroke="black" points="216.13,-547.12 217.74,-536.64 209.95,-543.83 216.13,-547.12"/>
<text text-anchor="middle" x="220" y="-558.8" font-family="Times New Roman,serif" font-size="14.00">right</text>
</g>
<!-- 2196313703952 -->
<g id="node3" class="node">
<title>2196313703952</title>
<polygon fill="aliceblue" stroke="black" points="35,-392.5 35,-438.5 120,-438.5 120,-392.5 35,-392.5"/>
<text text-anchor="middle" x="77.5" y="-423.3" font-family="Times New Roman,serif" font-size="14.00">:Abstraction</text>
<polyline fill="none" stroke="black" points="35,-415.5 120,-415.5 "/>
<text text-anchor="middle" x="77.5" y="-400.3" font-family="Times New Roman,serif" font-size="14.00"> </text>
</g>
<!-- 2196313704528&#45;&gt;2196313703952 -->
<g id="edge2" class="edge">
<title>2196313704528&#45;&gt;2196313703952</title>
<path fill="none" stroke="black" d="M110.93,-479.43C105.45,-469.12 99.43,-457.78 94.02,-447.6"/>
<polygon fill="black" stroke="black" points="111.04,-479.64 117.39,-483.06 116.67,-490.23 110.32,-486.81 111.04,-479.64"/>
<polygon fill="black" stroke="black" points="97.05,-445.83 89.26,-438.64 90.87,-449.12 97.05,-445.83"/>
<text text-anchor="middle" x="115.5" y="-460.8" font-family="Times New Roman,serif" font-size="14.00">left</text>
</g>
<!-- 2196313706064 -->
<g id="node12" class="node">
<title>2196313706064</title>
<polygon fill="aliceblue" stroke="black" points="142.5,-392.5 142.5,-438.5 216.5,-438.5 216.5,-392.5 142.5,-392.5"/>
<text text-anchor="middle" x="179.5" y="-423.3" font-family="Times New Roman,serif" font-size="14.00">T:Variable</text>
<polyline fill="none" stroke="black" points="142.5,-415.5 216.5,-415.5 "/>
<text text-anchor="middle" x="179.5" y="-400.3" font-family="Times New Roman,serif" font-size="14.00"> </text>
</g>
<!-- 2196313704528&#45;&gt;2196313706064 -->
<g id="edge11" class="edge">
<title>2196313704528&#45;&gt;2196313706064</title>
<path fill="none" stroke="black" d="M146.07,-479.43C151.55,-469.12 157.57,-457.78 162.98,-447.6"/>
<polygon fill="black" stroke="black" points="145.96,-479.64 146.68,-486.81 140.33,-490.23 139.61,-483.06 145.96,-479.64"/>
<polygon fill="black" stroke="black" points="166.13,-449.12 167.74,-438.64 159.95,-445.83 166.13,-449.12"/>
<text text-anchor="middle" x="170" y="-460.8" font-family="Times New Roman,serif" font-size="14.00">right</text>
</g>
<!-- 2196304420576 -->
<g id="node4" class="node">
<title>2196304420576</title>
<polygon fill="aliceblue" stroke="black" points="0,-294.5 0,-340.5 73,-340.5 73,-294.5 0,-294.5"/>
<text text-anchor="middle" x="36.5" y="-325.3" font-family="Times New Roman,serif" font-size="14.00">p:Variable</text>
<polyline fill="none" stroke="black" points="0,-317.5 73,-317.5 "/>
<text text-anchor="middle" x="36.5" y="-302.3" font-family="Times New Roman,serif" font-size="14.00"> </text>
</g>
<!-- 2196313703952&#45;&gt;2196304420576 -->
<g id="edge3" class="edge">
<title>2196313703952&#45;&gt;2196304420576</title>
<path fill="none" stroke="black" d="M49.83,-382.27C48.2,-379.57 46.73,-376.8 45.5,-374 42.3,-366.73 40.23,-358.48 38.88,-350.6"/>
<polygon fill="black" stroke="black" points="49.9,-382.37 56.59,-385.06 56.69,-392.27 49.99,-389.58 49.9,-382.37"/>
<polygon fill="black" stroke="black" points="42.33,-350.01 37.51,-340.57 35.4,-350.96 42.33,-350.01"/>
<text text-anchor="middle" x="73" y="-362.8" font-family="Times New Roman,serif" font-size="14.00">parameter</text>
</g>
<!-- 2196304416928 -->
<g id="node5" class="node">
<title>2196304416928</title>
<polygon fill="aliceblue" stroke="black" points="95,-294.5 95,-340.5 180,-340.5 180,-294.5 95,-294.5"/>
<text text-anchor="middle" x="137.5" y="-325.3" font-family="Times New Roman,serif" font-size="14.00">:Abstraction</text>
<polyline fill="none" stroke="black" points="95,-317.5 180,-317.5 "/>
<text text-anchor="middle" x="137.5" y="-302.3" font-family="Times New Roman,serif" font-size="14.00"> </text>
</g>
<!-- 2196313703952&#45;&gt;2196304416928 -->
<g id="edge4" class="edge">
<title>2196313703952&#45;&gt;2196304416928</title>
<path fill="none" stroke="black" d="M97.91,-381.84C104.48,-371.34 111.72,-359.75 118.2,-349.38"/>
<polygon fill="black" stroke="black" points="97.78,-382.06 97.99,-389.27 91.42,-392.23 91.2,-385.03 97.78,-382.06"/>
<polygon fill="black" stroke="black" points="121.33,-350.98 123.66,-340.64 115.39,-347.27 121.33,-350.98"/>
<text text-anchor="middle" x="142" y="-362.8" font-family="Times New Roman,serif" font-size="14.00">expression</text>
</g>
<!-- 2196304418608 -->
<g id="node6" class="node">
<title>2196304418608</title>
<polygon fill="aliceblue" stroke="black" points="55,-196.5 55,-242.5 128,-242.5 128,-196.5 55,-196.5"/>
<text text-anchor="middle" x="91.5" y="-227.3" font-family="Times New Roman,serif" font-size="14.00">q:Variable</text>
<polyline fill="none" stroke="black" points="55,-219.5 128,-219.5 "/>
<text text-anchor="middle" x="91.5" y="-204.3" font-family="Times New Roman,serif" font-size="14.00"> </text>
</g>
<!-- 2196304416928&#45;&gt;2196304418608 -->
<g id="edge5" class="edge">
<title>2196304416928&#45;&gt;2196304418608</title>
<path fill="none" stroke="black" d="M105.54,-284.64C103.64,-281.84 101.93,-278.95 100.5,-276 97.04,-268.85 94.87,-260.64 93.52,-252.77"/>
<polygon fill="black" stroke="black" points="105.65,-284.78 112.49,-287.06 113.02,-294.25 106.18,-291.97 105.65,-284.78"/>
<polygon fill="black" stroke="black" points="96.97,-252.17 92.18,-242.73 90.04,-253.1 96.97,-252.17"/>
<text text-anchor="middle" x="128" y="-264.8" font-family="Times New Roman,serif" font-size="14.00">parameter</text>
</g>
<!-- 2196304417024 -->
<g id="node7" class="node">
<title>2196304417024</title>
<polygon fill="aliceblue" stroke="black" points="150.5,-196.5 150.5,-242.5 234.5,-242.5 234.5,-196.5 150.5,-196.5"/>
<text text-anchor="middle" x="192.5" y="-227.3" font-family="Times New Roman,serif" font-size="14.00">:Application</text>
<polyline fill="none" stroke="black" points="150.5,-219.5 234.5,-219.5 "/>
<text text-anchor="middle" x="192.5" y="-204.3" font-family="Times New Roman,serif" font-size="14.00"> </text>
</g>
<!-- 2196304416928&#45;&gt;2196304417024 -->
<g id="edge6" class="edge">
<title>2196304416928&#45;&gt;2196304417024</title>
<path fill="none" stroke="black" d="M156.44,-283.43C162.36,-273.12 168.85,-261.78 174.68,-251.6"/>
<polygon fill="black" stroke="black" points="156.22,-283.82 156.71,-291.02 150.26,-294.23 149.77,-287.04 156.22,-283.82"/>
<polygon fill="black" stroke="black" points="177.88,-253.06 179.81,-242.64 171.8,-249.58 177.88,-253.06"/>
<text text-anchor="middle" x="199" y="-264.8" font-family="Times New Roman,serif" font-size="14.00">expression</text>
</g>
<!-- 2196304418560 -->
<g id="node8" class="node">
<title>2196304418560</title>
<polygon fill="aliceblue" stroke="black" points="85.5,-98.5 85.5,-144.5 169.5,-144.5 169.5,-98.5 85.5,-98.5"/>
<text text-anchor="middle" x="127.5" y="-129.3" font-family="Times New Roman,serif" font-size="14.00">:Application</text>
<polyline fill="none" stroke="black" points="85.5,-121.5 169.5,-121.5 "/>
<text text-anchor="middle" x="127.5" y="-106.3" font-family="Times New Roman,serif" font-size="14.00"> </text>
</g>
<!-- 2196304417024&#45;&gt;2196304418560 -->
<g id="edge7" class="edge">
<title>2196304417024&#45;&gt;2196304418560</title>
<path fill="none" stroke="black" d="M170.66,-186.24C163.43,-175.56 155.4,-163.71 148.26,-153.15"/>
<polygon fill="black" stroke="black" points="170.7,-186.3 177.37,-189.02 177.42,-196.23 170.75,-193.51 170.7,-186.3"/>
<polygon fill="black" stroke="black" points="151,-150.96 142.49,-144.64 145.2,-154.89 151,-150.96"/>
<text text-anchor="middle" x="173.5" y="-166.8" font-family="Times New Roman,serif" font-size="14.00">left</text>
</g>
<!-- 2196304420336 -->
<g id="node11" class="node">
<title>2196304420336</title>
<polygon fill="aliceblue" stroke="black" points="192,-98.5 192,-144.5 265,-144.5 265,-98.5 192,-98.5"/>
<text text-anchor="middle" x="228.5" y="-129.3" font-family="Times New Roman,serif" font-size="14.00">q:Variable</text>
<polyline fill="none" stroke="black" points="192,-121.5 265,-121.5 "/>
<text text-anchor="middle" x="228.5" y="-106.3" font-family="Times New Roman,serif" font-size="14.00"> </text>
</g>
<!-- 2196304417024&#45;&gt;2196304420336 -->
<g id="edge10" class="edge">
<title>2196304417024&#45;&gt;2196304420336</title>
<path fill="none" stroke="black" d="M205.2,-184.62C208.94,-174.67 213,-163.83 216.68,-154.03"/>
<polygon fill="black" stroke="black" points="205.06,-185 206.7,-192.02 200.85,-196.23 199.21,-189.21 205.06,-185"/>
<polygon fill="black" stroke="black" points="219.96,-155.24 220.2,-144.64 213.41,-152.78 219.96,-155.24"/>
<text text-anchor="middle" x="226" y="-166.8" font-family="Times New Roman,serif" font-size="14.00">right</text>
</g>
<!-- 2196304420720 -->
<g id="node9" class="node">
<title>2196304420720</title>
<polygon fill="aliceblue" stroke="black" points="44,-0.5 44,-46.5 117,-46.5 117,-0.5 44,-0.5"/>
<text text-anchor="middle" x="80.5" y="-31.3" font-family="Times New Roman,serif" font-size="14.00">p:Variable</text>
<polyline fill="none" stroke="black" points="44,-23.5 117,-23.5 "/>
<text text-anchor="middle" x="80.5" y="-8.3" font-family="Times New Roman,serif" font-size="14.00"> </text>
</g>
<!-- 2196304418560&#45;&gt;2196304420720 -->
<g id="edge8" class="edge">
<title>2196304418560&#45;&gt;2196304420720</title>
<path fill="none" stroke="black" d="M111.31,-87.43C106.31,-77.22 100.82,-66.01 95.88,-55.91"/>
<polygon fill="black" stroke="black" points="111.32,-87.46 117.55,-91.09 116.6,-98.23 110.37,-94.6 111.32,-87.46"/>
<polygon fill="black" stroke="black" points="98.88,-54.09 91.34,-46.64 92.6,-57.17 98.88,-54.09"/>
<text text-anchor="middle" x="116.5" y="-68.8" font-family="Times New Roman,serif" font-size="14.00">left</text>
</g>
<!-- 2196304420624 -->
<g id="node10" class="node">
<title>2196304420624</title>
<polygon fill="aliceblue" stroke="black" points="139,-0.5 139,-46.5 212,-46.5 212,-0.5 139,-0.5"/>
<text text-anchor="middle" x="175.5" y="-31.3" font-family="Times New Roman,serif" font-size="14.00">p:Variable</text>
<polyline fill="none" stroke="black" points="139,-23.5 212,-23.5 "/>
<text text-anchor="middle" x="175.5" y="-8.3" font-family="Times New Roman,serif" font-size="14.00"> </text>
</g>
<!-- 2196304418560&#45;&gt;2196304420624 -->
<g id="edge9" class="edge">
<title>2196304418560&#45;&gt;2196304420624</title>
<path fill="none" stroke="black" d="M144.03,-87.43C149.19,-77.12 154.86,-65.78 159.95,-55.6"/>
<polygon fill="black" stroke="black" points="144,-87.5 144.89,-94.66 138.63,-98.23 137.74,-91.08 144,-87.5"/>
<polygon fill="black" stroke="black" points="163.09,-57.15 164.43,-46.64 156.82,-54.02 163.09,-57.15"/>
<text text-anchor="middle" x="167" y="-68.8" font-family="Times New Roman,serif" font-size="14.00">right</text>
</g>
</g>
</svg>
