<?xml version="1.0" encoding="UTF-8" standalone="no"?>
<!DOCTYPE svg PUBLIC "-//W3C//DTD SVG 1.1//EN"
 "http://www.w3.org/Graphics/SVG/1.1/DTD/svg11.dtd">
<!-- Generated by graphviz version 3.0.0 (20220226.1711)
 -->
<!-- Title: textX Pages: 1 -->
<svg width="413pt" height="447pt"
 viewBox="0.00 0.00 413.00 447.00" xmlns="http://www.w3.org/2000/svg" xmlns:xlink="http://www.w3.org/1999/xlink">
<g id="graph0" class="graph" transform="scale(1 1) rotate(0) translate(4 443)">
<title>textX</title>
<polygon fill="white" stroke="transparent" points="-4,4 -4,-443 409,-443 409,4 -4,4"/>
<!-- 2196313881808 -->
<g id="node1" class="node">
<title>2196313881808</title>
<polygon fill="aliceblue" stroke="black" points="144,-392.5 144,-438.5 228,-438.5 228,-392.5 144,-392.5"/>
<text text-anchor="middle" x="186" y="-423.3" font-family="Times New Roman,serif" font-size="14.00">:Application</text>
<polyline fill="none" stroke="black" points="144,-415.5 228,-415.5 "/>
<text text-anchor="middle" x="186" y="-400.3" font-family="Times New Roman,serif" font-size="14.00"> </text>
</g>
<!-- 2196318707776 -->
<g id="node2" class="node">
<title>2196318707776</title>
<polygon fill="aliceblue" stroke="black" points="90.5,-294.5 90.5,-340.5 175.5,-340.5 175.5,-294.5 90.5,-294.5"/>
<text text-anchor="middle" x="133" y="-325.3" font-family="Times New Roman,serif" font-size="14.00">:Abstraction</text>
<polyline fill="none" stroke="black" points="90.5,-317.5 175.5,-317.5 "/>
<text text-anchor="middle" x="133" y="-302.3" font-family="Times New Roman,serif" font-size="14.00"> </text>
</g>
<!-- 2196313881808&#45;&gt;2196318707776 -->
<g id="edge1" class="edge">
<title>2196313881808&#45;&gt;2196318707776</title>
<path fill="none" stroke="black" d="M167.74,-381.43C162.05,-371.12 155.79,-359.78 150.17,-349.6"/>
<polygon fill="black" stroke="black" points="167.91,-381.73 174.31,-385.05 173.71,-392.23 167.31,-388.91 167.91,-381.73"/>
<polygon fill="black" stroke="black" points="153.12,-347.71 145.23,-340.64 146.99,-351.09 153.12,-347.71"/>
<text text-anchor="middle" x="172" y="-362.8" font-family="Times New Roman,serif" font-size="14.00">left</text>
</g>
<!-- 2196318589088 -->
<g id="node9" class="node">
<title>2196318589088</title>
<polygon fill="aliceblue" stroke="black" points="197.5,-294.5 197.5,-340.5 282.5,-340.5 282.5,-294.5 197.5,-294.5"/>
<text text-anchor="middle" x="240" y="-325.3" font-family="Times New Roman,serif" font-size="14.00">:Abstraction</text>
<polyline fill="none" stroke="black" points="197.5,-317.5 282.5,-317.5 "/>
<text text-anchor="middle" x="240" y="-302.3" font-family="Times New Roman,serif" font-size="14.00"> </text>
</g>
<!-- 2196313881808&#45;&gt;2196318589088 -->
<g id="edge8" class="edge">
<title>2196313881808&#45;&gt;2196318589088</title>
<path fill="none" stroke="black" d="M204.6,-381.43C210.4,-371.12 216.78,-359.78 222.51,-349.6"/>
<polygon fill="black" stroke="black" points="204.41,-381.78 204.95,-388.97 198.52,-392.23 197.98,-385.04 204.41,-381.78"/>
<polygon fill="black" stroke="black" points="225.69,-351.08 227.54,-340.64 219.59,-347.64 225.69,-351.08"/>
<text text-anchor="middle" x="229.5" y="-362.8" font-family="Times New Roman,serif" font-size="14.00">right</text>
</g>
<!-- 2196318707824 -->
<g id="node3" class="node">
<title>2196318707824</title>
<polygon fill="aliceblue" stroke="black" points="0,-196.5 0,-242.5 72,-242.5 72,-196.5 0,-196.5"/>
<text text-anchor="middle" x="36" y="-227.3" font-family="Times New Roman,serif" font-size="14.00">n:Variable</text>
<polyline fill="none" stroke="black" points="0,-219.5 72,-219.5 "/>
<text text-anchor="middle" x="36" y="-204.3" font-family="Times New Roman,serif" font-size="14.00"> </text>
</g>
<!-- 2196318707776&#45;&gt;2196318707824 -->
<g id="edge2" class="edge">
<title>2196318707776&#45;&gt;2196318707824</title>
<path fill="none" stroke="black" d="M87.41,-287.01C83.04,-283.51 78.82,-279.81 75,-276 67.56,-268.58 60.56,-259.59 54.61,-251.02"/>
<polygon fill="black" stroke="black" points="87.54,-287.11 94.74,-287.55 97.1,-294.36 89.91,-293.93 87.54,-287.11"/>
<polygon fill="black" stroke="black" points="57.5,-249.04 49.03,-242.67 51.68,-252.93 57.5,-249.04"/>
<text text-anchor="middle" x="102.5" y="-264.8" font-family="Times New Roman,serif" font-size="14.00">parameter</text>
</g>
<!-- 2196317842544 -->
<g id="node4" class="node">
<title>2196317842544</title>
<polygon fill="aliceblue" stroke="black" points="94.5,-196.5 94.5,-242.5 179.5,-242.5 179.5,-196.5 94.5,-196.5"/>
<text text-anchor="middle" x="137" y="-227.3" font-family="Times New Roman,serif" font-size="14.00">:Abstraction</text>
<polyline fill="none" stroke="black" points="94.5,-219.5 179.5,-219.5 "/>
<text text-anchor="middle" x="137" y="-204.3" font-family="Times New Roman,serif" font-size="14.00"> </text>
</g>
<!-- 2196318707776&#45;&gt;2196317842544 -->
<g id="edge3" class="edge">
<title>2196318707776&#45;&gt;2196317842544</title>
<path fill="none" stroke="black" d="M134.43,-282.22C134.83,-272.65 135.26,-262.29 135.65,-252.84"/>
<polygon fill="black" stroke="black" points="134.43,-282.24 138.17,-288.41 133.93,-294.23 130.18,-288.07 134.43,-282.24"/>
<polygon fill="black" stroke="black" points="139.16,-252.78 136.08,-242.64 132.16,-252.49 139.16,-252.78"/>
<text text-anchor="middle" x="166.5" y="-264.8" font-family="Times New Roman,serif" font-size="14.00">expression</text>
</g>
<!-- 2196317842592 -->
<g id="node5" class="node">
<title>2196317842592</title>
<polygon fill="aliceblue" stroke="black" points="12.5,-98.5 12.5,-144.5 85.5,-144.5 85.5,-98.5 12.5,-98.5"/>
<text text-anchor="middle" x="49" y="-129.3" font-family="Times New Roman,serif" font-size="14.00">o:Variable</text>
<polyline fill="none" stroke="black" points="12.5,-121.5 85.5,-121.5 "/>
<text text-anchor="middle" x="49" y="-106.3" font-family="Times New Roman,serif" font-size="14.00"> </text>
</g>
<!-- 2196317842544&#45;&gt;2196317842592 -->
<g id="edge4" class="edge">
<title>2196317842544&#45;&gt;2196317842592</title>
<path fill="none" stroke="black" d="M94.03,-188.72C90.12,-185.3 86.37,-181.7 83,-178 76.35,-170.7 70.28,-161.91 65.17,-153.51"/>
<polygon fill="black" stroke="black" points="94.07,-188.75 101.24,-189.46 103.34,-196.36 96.17,-195.65 94.07,-188.75"/>
<polygon fill="black" stroke="black" points="68.06,-151.52 60.01,-144.63 62.01,-155.03 68.06,-151.52"/>
<text text-anchor="middle" x="110.5" y="-166.8" font-family="Times New Roman,serif" font-size="14.00">parameter</text>
</g>
<!-- 2196317842448 -->
<g id="node6" class="node">
<title>2196317842448</title>
<polygon fill="aliceblue" stroke="black" points="107.5,-98.5 107.5,-144.5 192.5,-144.5 192.5,-98.5 107.5,-98.5"/>
<text text-anchor="middle" x="150" y="-129.3" font-family="Times New Roman,serif" font-size="14.00">:Abstraction</text>
<polyline fill="none" stroke="black" points="107.5,-121.5 192.5,-121.5 "/>
<text text-anchor="middle" x="150" y="-106.3" font-family="Times New Roman,serif" font-size="14.00"> </text>
</g>
<!-- 2196317842544&#45;&gt;2196317842448 -->
<g id="edge5" class="edge">
<title>2196317842544&#45;&gt;2196317842448</title>
<path fill="none" stroke="black" d="M141.64,-184.22C142.94,-174.65 144.34,-164.29 145.62,-154.84"/>
<polygon fill="black" stroke="black" points="141.63,-184.34 144.78,-190.83 140.02,-196.23 136.86,-189.75 141.63,-184.34"/>
<polygon fill="black" stroke="black" points="149.13,-155.02 147,-144.64 142.19,-154.08 149.13,-155.02"/>
<text text-anchor="middle" x="175.5" y="-166.8" font-family="Times New Roman,serif" font-size="14.00">expression</text>
</g>
<!-- 2196317842496 -->
<g id="node7" class="node">
<title>2196317842496</title>
<polygon fill="aliceblue" stroke="black" points="65.5,-0.5 65.5,-46.5 138.5,-46.5 138.5,-0.5 65.5,-0.5"/>
<text text-anchor="middle" x="102" y="-31.3" font-family="Times New Roman,serif" font-size="14.00">p:Variable</text>
<polyline fill="none" stroke="black" points="65.5,-23.5 138.5,-23.5 "/>
<text text-anchor="middle" x="102" y="-8.3" font-family="Times New Roman,serif" font-size="14.00"> </text>
</g>
<!-- 2196317842448&#45;&gt;2196317842496 -->
<g id="edge6" class="edge">
<title>2196317842448&#45;&gt;2196317842496</title>
<path fill="none" stroke="black" d="M116.51,-89.05C114.43,-86.14 112.56,-83.11 111,-80 107.42,-72.84 105.21,-64.56 103.86,-56.63"/>
<polygon fill="black" stroke="black" points="116.59,-89.14 123.49,-91.25 124.19,-98.43 117.3,-96.32 116.59,-89.14"/>
<polygon fill="black" stroke="black" points="107.3,-55.98 102.54,-46.51 100.36,-56.88 107.3,-55.98"/>
<text text-anchor="middle" x="138.5" y="-68.8" font-family="Times New Roman,serif" font-size="14.00">parameter</text>
</g>
<!-- 2196317842208 -->
<g id="node8" class="node">
<title>2196317842208</title>
<polygon fill="aliceblue" stroke="black" points="160.5,-0.5 160.5,-46.5 233.5,-46.5 233.5,-0.5 160.5,-0.5"/>
<text text-anchor="middle" x="197" y="-31.3" font-family="Times New Roman,serif" font-size="14.00">o:Variable</text>
<polyline fill="none" stroke="black" points="160.5,-23.5 233.5,-23.5 "/>
<text text-anchor="middle" x="197" y="-8.3" font-family="Times New Roman,serif" font-size="14.00"> </text>
</g>
<!-- 2196317842448&#45;&gt;2196317842208 -->
<g id="edge7" class="edge">
<title>2196317842448&#45;&gt;2196317842208</title>
<path fill="none" stroke="black" d="M166.19,-87.43C171.19,-77.22 176.68,-66.01 181.62,-55.91"/>
<polygon fill="black" stroke="black" points="166.18,-87.46 167.13,-94.6 160.9,-98.23 159.95,-91.09 166.18,-87.46"/>
<polygon fill="black" stroke="black" points="184.9,-57.17 186.16,-46.64 178.62,-54.09 184.9,-57.17"/>
<text text-anchor="middle" x="207.5" y="-68.8" font-family="Times New Roman,serif" font-size="14.00">expression</text>
</g>
<!-- 2196318589136 -->
<g id="node10" class="node">
<title>2196318589136</title>
<polygon fill="aliceblue" stroke="black" points="203,-196.5 203,-242.5 275,-242.5 275,-196.5 203,-196.5"/>
<text text-anchor="middle" x="239" y="-227.3" font-family="Times New Roman,serif" font-size="14.00">x:Variable</text>
<polyline fill="none" stroke="black" points="203,-219.5 275,-219.5 "/>
<text text-anchor="middle" x="239" y="-204.3" font-family="Times New Roman,serif" font-size="14.00"> </text>
</g>
<!-- 2196318589088&#45;&gt;2196318589136 -->
<g id="edge9" class="edge">
<title>2196318589088&#45;&gt;2196318589136</title>
<path fill="none" stroke="black" d="M239.64,-282.22C239.54,-272.65 239.44,-262.29 239.34,-252.84"/>
<polygon fill="black" stroke="black" points="239.64,-282.24 243.71,-288.19 239.77,-294.23 235.71,-288.28 239.64,-282.24"/>
<polygon fill="black" stroke="black" points="242.83,-252.61 239.23,-242.64 235.84,-252.68 242.83,-252.61"/>
<text text-anchor="middle" x="267.5" y="-264.8" font-family="Times New Roman,serif" font-size="14.00">parameter</text>
</g>
<!-- 2196318763616 -->
<g id="node11" class="node">
<title>2196318763616</title>
<polygon fill="aliceblue" stroke="black" points="297.5,-196.5 297.5,-242.5 382.5,-242.5 382.5,-196.5 297.5,-196.5"/>
<text text-anchor="middle" x="340" y="-227.3" font-family="Times New Roman,serif" font-size="14.00">:Abstraction</text>
<polyline fill="none" stroke="black" points="297.5,-219.5 382.5,-219.5 "/>
<text text-anchor="middle" x="340" y="-204.3" font-family="Times New Roman,serif" font-size="14.00"> </text>
</g>
<!-- 2196318589088&#45;&gt;2196318763616 -->
<g id="edge10" class="edge">
<title>2196318589088&#45;&gt;2196318763616</title>
<path fill="none" stroke="black" d="M287.14,-287.08C291.67,-283.56 296.04,-279.84 300,-276 307.61,-268.62 314.78,-259.64 320.88,-251.07"/>
<polygon fill="black" stroke="black" points="286.78,-287.35 284.31,-294.13 277.11,-294.45 279.58,-287.68 286.78,-287.35"/>
<polygon fill="black" stroke="black" points="323.84,-252.94 326.61,-242.72 318.07,-248.99 323.84,-252.94"/>
<text text-anchor="middle" x="342.5" y="-264.8" font-family="Times New Roman,serif" font-size="14.00">expression</text>
</g>
<!-- 2196318763184 -->
<g id="node12" class="node">
<title>2196318763184</title>
<polygon fill="aliceblue" stroke="black" points="218,-98.5 218,-144.5 290,-144.5 290,-98.5 218,-98.5"/>
<text text-anchor="middle" x="254" y="-129.3" font-family="Times New Roman,serif" font-size="14.00">y:Variable</text>
<polyline fill="none" stroke="black" points="218,-121.5 290,-121.5 "/>
<text text-anchor="middle" x="254" y="-106.3" font-family="Times New Roman,serif" font-size="14.00"> </text>
</g>
<!-- 2196318763616&#45;&gt;2196318763184 -->
<g id="edge11" class="edge">
<title>2196318763616&#45;&gt;2196318763184</title>
<path fill="none" stroke="black" d="M294.02,-188.87C290.07,-185.45 286.32,-181.81 283,-178 276.77,-170.86 271.42,-162.14 267.07,-153.75"/>
<polygon fill="black" stroke="black" points="294.12,-188.96 301.31,-189.59 303.49,-196.46 296.3,-195.83 294.12,-188.96"/>
<polygon fill="black" stroke="black" points="270.11,-152 262.6,-144.52 263.81,-155.05 270.11,-152"/>
<text text-anchor="middle" x="310.5" y="-166.8" font-family="Times New Roman,serif" font-size="14.00">parameter</text>
</g>
<!-- 2196318763136 -->
<g id="node13" class="node">
<title>2196318763136</title>
<polygon fill="aliceblue" stroke="black" points="312,-98.5 312,-144.5 384,-144.5 384,-98.5 312,-98.5"/>
<text text-anchor="middle" x="348" y="-129.3" font-family="Times New Roman,serif" font-size="14.00">y:Variable</text>
<polyline fill="none" stroke="black" points="312,-121.5 384,-121.5 "/>
<text text-anchor="middle" x="348" y="-106.3" font-family="Times New Roman,serif" font-size="14.00"> </text>
</g>
<!-- 2196318763616&#45;&gt;2196318763136 -->
<g id="edge12" class="edge">
<title>2196318763616&#45;&gt;2196318763136</title>
<path fill="none" stroke="black" d="M342.86,-184.22C343.65,-174.65 344.52,-164.29 345.31,-154.84"/>
<polygon fill="black" stroke="black" points="342.85,-184.28 346.34,-190.59 341.86,-196.23 338.37,-189.92 342.85,-184.28"/>
<polygon fill="black" stroke="black" points="348.81,-154.9 346.15,-144.64 341.84,-154.32 348.81,-154.9"/>
<text text-anchor="middle" x="374.5" y="-166.8" font-family="Times New Roman,serif" font-size="14.00">expression</text>
</g>
</g>
</svg>
