<?xml version="1.0" encoding="UTF-8" standalone="no"?>
<!DOCTYPE svg PUBLIC "-//W3C//DTD SVG 1.1//EN"
 "http://www.w3.org/Graphics/SVG/1.1/DTD/svg11.dtd">
<!-- Generated by graphviz version 3.0.0 (20220226.1711)
 -->
<!-- Title: textX Pages: 1 -->
<svg width="470pt" height="643pt"
 viewBox="0.00 0.00 470.00 643.00" xmlns="http://www.w3.org/2000/svg" xmlns:xlink="http://www.w3.org/1999/xlink">
<g id="graph0" class="graph" transform="scale(1 1) rotate(0) translate(4 639)">
<title>textX</title>
<polygon fill="white" stroke="transparent" points="-4,4 -4,-639 466,-639 466,4 -4,4"/>
<!-- 2196313704240 -->
<g id="node1" class="node">
<title>2196313704240</title>
<polygon fill="aliceblue" stroke="black" points="178,-588.5 178,-634.5 262,-634.5 262,-588.5 178,-588.5"/>
<text text-anchor="middle" x="220" y="-619.3" font-family="Times New Roman,serif" font-size="14.00">:Application</text>
<polyline fill="none" stroke="black" points="178,-611.5 262,-611.5 "/>
<text text-anchor="middle" x="220" y="-596.3" font-family="Times New Roman,serif" font-size="14.00"> </text>
</g>
<!-- 2196317559392 -->
<g id="node2" class="node">
<title>2196317559392</title>
<polygon fill="aliceblue" stroke="black" points="124.5,-490.5 124.5,-536.5 209.5,-536.5 209.5,-490.5 124.5,-490.5"/>
<text text-anchor="middle" x="167" y="-521.3" font-family="Times New Roman,serif" font-size="14.00">:Abstraction</text>
<polyline fill="none" stroke="black" points="124.5,-513.5 209.5,-513.5 "/>
<text text-anchor="middle" x="167" y="-498.3" font-family="Times New Roman,serif" font-size="14.00"> </text>
</g>
<!-- 2196313704240&#45;&gt;2196317559392 -->
<g id="edge1" class="edge">
<title>2196313704240&#45;&gt;2196317559392</title>
<path fill="none" stroke="black" d="M201.74,-577.43C196.05,-567.12 189.79,-555.78 184.17,-545.6"/>
<polygon fill="black" stroke="black" points="201.91,-577.73 208.31,-581.05 207.71,-588.23 201.31,-584.91 201.91,-577.73"/>
<polygon fill="black" stroke="black" points="187.12,-543.71 179.23,-536.64 180.99,-547.09 187.12,-543.71"/>
<text text-anchor="middle" x="206" y="-558.8" font-family="Times New Roman,serif" font-size="14.00">left</text>
</g>
<!-- 2196317557472 -->
<g id="node12" class="node">
<title>2196317557472</title>
<polygon fill="aliceblue" stroke="black" points="231.5,-490.5 231.5,-536.5 316.5,-536.5 316.5,-490.5 231.5,-490.5"/>
<text text-anchor="middle" x="274" y="-521.3" font-family="Times New Roman,serif" font-size="14.00">:Abstraction</text>
<polyline fill="none" stroke="black" points="231.5,-513.5 316.5,-513.5 "/>
<text text-anchor="middle" x="274" y="-498.3" font-family="Times New Roman,serif" font-size="14.00"> </text>
</g>
<!-- 2196313704240&#45;&gt;2196317557472 -->
<g id="edge12" class="edge">
<title>2196313704240&#45;&gt;2196317557472</title>
<path fill="none" stroke="black" d="M238.6,-577.43C244.4,-567.12 250.78,-555.78 256.51,-545.6"/>
<polygon fill="black" stroke="black" points="238.41,-577.78 238.95,-584.97 232.52,-588.23 231.98,-581.04 238.41,-577.78"/>
<polygon fill="black" stroke="black" points="259.69,-547.08 261.54,-536.64 253.59,-543.64 259.69,-547.08"/>
<text text-anchor="middle" x="263.5" y="-558.8" font-family="Times New Roman,serif" font-size="14.00">right</text>
</g>
<!-- 2196317560064 -->
<g id="node3" class="node">
<title>2196317560064</title>
<polygon fill="aliceblue" stroke="black" points="33.5,-392.5 33.5,-438.5 106.5,-438.5 106.5,-392.5 33.5,-392.5"/>
<text text-anchor="middle" x="70" y="-423.3" font-family="Times New Roman,serif" font-size="14.00">q:Variable</text>
<polyline fill="none" stroke="black" points="33.5,-415.5 106.5,-415.5 "/>
<text text-anchor="middle" x="70" y="-400.3" font-family="Times New Roman,serif" font-size="14.00"> </text>
</g>
<!-- 2196317559392&#45;&gt;2196317560064 -->
<g id="edge2" class="edge">
<title>2196317559392&#45;&gt;2196317560064</title>
<path fill="none" stroke="black" d="M121.41,-483.01C117.04,-479.51 112.82,-475.81 109,-472 101.56,-464.58 94.56,-455.59 88.61,-447.02"/>
<polygon fill="black" stroke="black" points="121.54,-483.11 128.74,-483.55 131.1,-490.36 123.91,-489.93 121.54,-483.11"/>
<polygon fill="black" stroke="black" points="91.5,-445.04 83.03,-438.67 85.68,-448.93 91.5,-445.04"/>
<text text-anchor="middle" x="136.5" y="-460.8" font-family="Times New Roman,serif" font-size="14.00">parameter</text>
</g>
<!-- 2196317557184 -->
<g id="node4" class="node">
<title>2196317557184</title>
<polygon fill="aliceblue" stroke="black" points="129,-392.5 129,-438.5 213,-438.5 213,-392.5 129,-392.5"/>
<text text-anchor="middle" x="171" y="-423.3" font-family="Times New Roman,serif" font-size="14.00">:Application</text>
<polyline fill="none" stroke="black" points="129,-415.5 213,-415.5 "/>
<text text-anchor="middle" x="171" y="-400.3" font-family="Times New Roman,serif" font-size="14.00"> </text>
</g>
<!-- 2196317559392&#45;&gt;2196317557184 -->
<g id="edge3" class="edge">
<title>2196317559392&#45;&gt;2196317557184</title>
<path fill="none" stroke="black" d="M168.43,-478.22C168.83,-468.65 169.26,-458.29 169.65,-448.84"/>
<polygon fill="black" stroke="black" points="168.43,-478.24 172.17,-484.41 167.93,-490.23 164.18,-484.07 168.43,-478.24"/>
<polygon fill="black" stroke="black" points="173.16,-448.78 170.08,-438.64 166.16,-448.49 173.16,-448.78"/>
<text text-anchor="middle" x="200.5" y="-460.8" font-family="Times New Roman,serif" font-size="14.00">expression</text>
</g>
<!-- 2196317557232 -->
<g id="node5" class="node">
<title>2196317557232</title>
<polygon fill="aliceblue" stroke="black" points="35,-294.5 35,-340.5 119,-340.5 119,-294.5 35,-294.5"/>
<text text-anchor="middle" x="77" y="-325.3" font-family="Times New Roman,serif" font-size="14.00">:Application</text>
<polyline fill="none" stroke="black" points="35,-317.5 119,-317.5 "/>
<text text-anchor="middle" x="77" y="-302.3" font-family="Times New Roman,serif" font-size="14.00"> </text>
</g>
<!-- 2196317557184&#45;&gt;2196317557232 -->
<g id="edge4" class="edge">
<title>2196317557184&#45;&gt;2196317557232</title>
<path fill="none" stroke="black" d="M140.59,-383.44C129.38,-372 116.73,-359.08 105.68,-347.79"/>
<polygon fill="black" stroke="black" points="140.8,-383.66 147.86,-385.15 149.2,-392.23 142.14,-390.75 140.8,-383.66"/>
<polygon fill="black" stroke="black" points="108.18,-345.34 98.68,-340.64 103.18,-350.24 108.18,-345.34"/>
<text text-anchor="middle" x="139" y="-362.8" font-family="Times New Roman,serif" font-size="14.00">left</text>
</g>
<!-- 2196317558384 -->
<g id="node11" class="node">
<title>2196317558384</title>
<polygon fill="aliceblue" stroke="black" points="141.5,-294.5 141.5,-340.5 214.5,-340.5 214.5,-294.5 141.5,-294.5"/>
<text text-anchor="middle" x="178" y="-325.3" font-family="Times New Roman,serif" font-size="14.00">q:Variable</text>
<polyline fill="none" stroke="black" points="141.5,-317.5 214.5,-317.5 "/>
<text text-anchor="middle" x="178" y="-302.3" font-family="Times New Roman,serif" font-size="14.00"> </text>
</g>
<!-- 2196317557184&#45;&gt;2196317558384 -->
<g id="edge11" class="edge">
<title>2196317557184&#45;&gt;2196317558384</title>
<path fill="none" stroke="black" d="M173.5,-380.22C174.2,-370.65 174.95,-360.29 175.64,-350.84"/>
<polygon fill="black" stroke="black" points="173.5,-380.27 177.05,-386.54 172.62,-392.23 169.07,-385.96 173.5,-380.27"/>
<polygon fill="black" stroke="black" points="179.15,-350.87 176.39,-340.64 172.17,-350.36 179.15,-350.87"/>
<text text-anchor="middle" x="187.5" y="-362.8" font-family="Times New Roman,serif" font-size="14.00">right</text>
</g>
<!-- 2196304419088 -->
<g id="node6" class="node">
<title>2196304419088</title>
<polygon fill="aliceblue" stroke="black" points="34.5,-196.5 34.5,-242.5 119.5,-242.5 119.5,-196.5 34.5,-196.5"/>
<text text-anchor="middle" x="77" y="-227.3" font-family="Times New Roman,serif" font-size="14.00">:Abstraction</text>
<polyline fill="none" stroke="black" points="34.5,-219.5 119.5,-219.5 "/>
<text text-anchor="middle" x="77" y="-204.3" font-family="Times New Roman,serif" font-size="14.00"> </text>
</g>
<!-- 2196317557232&#45;&gt;2196304419088 -->
<g id="edge5" class="edge">
<title>2196317557232&#45;&gt;2196304419088</title>
<path fill="none" stroke="black" d="M57.33,-283.27C56.41,-280.86 55.62,-278.42 55,-276 52.99,-268.09 54.3,-259.79 57.07,-252.1"/>
<polygon fill="black" stroke="black" points="57.33,-283.28 63.47,-287.07 62.34,-294.19 56.2,-290.4 57.33,-283.28"/>
<polygon fill="black" stroke="black" points="60.37,-253.31 61.23,-242.75 53.97,-250.46 60.37,-253.31"/>
<text text-anchor="middle" x="64" y="-264.8" font-family="Times New Roman,serif" font-size="14.00">left</text>
</g>
<!-- 2196317557232&#45;&gt;2196304419088 -->
<g id="edge10" class="edge">
<title>2196317557232&#45;&gt;2196304419088</title>
<path fill="none" stroke="black" d="M77,-282.22C77,-272.65 77,-262.29 77,-252.84"/>
<polygon fill="black" stroke="black" points="77,-282.23 81,-288.23 77,-294.23 73,-288.23 77,-282.23"/>
<polygon fill="black" stroke="black" points="80.5,-252.64 77,-242.64 73.5,-252.64 80.5,-252.64"/>
<text text-anchor="middle" x="89.5" y="-264.8" font-family="Times New Roman,serif" font-size="14.00">right</text>
</g>
<!-- 2196317559920 -->
<g id="node7" class="node">
<title>2196317559920</title>
<polygon fill="aliceblue" stroke="black" points="0,-98.5 0,-144.5 72,-144.5 72,-98.5 0,-98.5"/>
<text text-anchor="middle" x="36" y="-129.3" font-family="Times New Roman,serif" font-size="14.00">x:Variable</text>
<polyline fill="none" stroke="black" points="0,-121.5 72,-121.5 "/>
<text text-anchor="middle" x="36" y="-106.3" font-family="Times New Roman,serif" font-size="14.00"> </text>
</g>
<!-- 2196304419088&#45;&gt;2196317559920 -->
<g id="edge6" class="edge">
<title>2196304419088&#45;&gt;2196317559920</title>
<path fill="none" stroke="black" d="M49.33,-186.27C47.7,-183.57 46.23,-180.8 45,-178 41.8,-170.73 39.73,-162.48 38.38,-154.6"/>
<polygon fill="black" stroke="black" points="49.4,-186.37 56.09,-189.06 56.19,-196.27 49.49,-193.58 49.4,-186.37"/>
<polygon fill="black" stroke="black" points="41.83,-154.01 37.01,-144.57 34.9,-154.96 41.83,-154.01"/>
<text text-anchor="middle" x="72.5" y="-166.8" font-family="Times New Roman,serif" font-size="14.00">parameter</text>
</g>
<!-- 2196317557664 -->
<g id="node8" class="node">
<title>2196317557664</title>
<polygon fill="aliceblue" stroke="black" points="94.5,-98.5 94.5,-144.5 179.5,-144.5 179.5,-98.5 94.5,-98.5"/>
<text text-anchor="middle" x="137" y="-129.3" font-family="Times New Roman,serif" font-size="14.00">:Abstraction</text>
<polyline fill="none" stroke="black" points="94.5,-121.5 179.5,-121.5 "/>
<text text-anchor="middle" x="137" y="-106.3" font-family="Times New Roman,serif" font-size="14.00"> </text>
</g>
<!-- 2196304419088&#45;&gt;2196317557664 -->
<g id="edge7" class="edge">
<title>2196304419088&#45;&gt;2196317557664</title>
<path fill="none" stroke="black" d="M97.41,-185.84C103.98,-175.34 111.22,-163.75 117.7,-153.38"/>
<polygon fill="black" stroke="black" points="97.28,-186.06 97.49,-193.27 90.92,-196.23 90.7,-189.03 97.28,-186.06"/>
<polygon fill="black" stroke="black" points="120.83,-154.98 123.16,-144.64 114.89,-151.27 120.83,-154.98"/>
<text text-anchor="middle" x="141.5" y="-166.8" font-family="Times New Roman,serif" font-size="14.00">expression</text>
</g>
<!-- 2196317558096 -->
<g id="node9" class="node">
<title>2196317558096</title>
<polygon fill="aliceblue" stroke="black" points="54,-0.5 54,-46.5 126,-46.5 126,-0.5 54,-0.5"/>
<text text-anchor="middle" x="90" y="-31.3" font-family="Times New Roman,serif" font-size="14.00">y:Variable</text>
<polyline fill="none" stroke="black" points="54,-23.5 126,-23.5 "/>
<text text-anchor="middle" x="90" y="-8.3" font-family="Times New Roman,serif" font-size="14.00"> </text>
</g>
<!-- 2196317557664&#45;&gt;2196317558096 -->
<g id="edge8" class="edge">
<title>2196317557664&#45;&gt;2196317558096</title>
<path fill="none" stroke="black" d="M107.09,-88.65C105.2,-85.84 103.47,-82.94 102,-80 98.42,-72.82 95.9,-64.6 94.14,-56.73"/>
<polygon fill="black" stroke="black" points="107.22,-88.83 114.03,-91.2 114.46,-98.4 107.65,-96.03 107.22,-88.83"/>
<polygon fill="black" stroke="black" points="97.53,-55.86 92.22,-46.69 90.66,-57.17 97.53,-55.86"/>
<text text-anchor="middle" x="129.5" y="-68.8" font-family="Times New Roman,serif" font-size="14.00">parameter</text>
</g>
<!-- 2196317559008 -->
<g id="node10" class="node">
<title>2196317559008</title>
<polygon fill="aliceblue" stroke="black" points="148,-0.5 148,-46.5 220,-46.5 220,-0.5 148,-0.5"/>
<text text-anchor="middle" x="184" y="-31.3" font-family="Times New Roman,serif" font-size="14.00">x:Variable</text>
<polyline fill="none" stroke="black" points="148,-23.5 220,-23.5 "/>
<text text-anchor="middle" x="184" y="-8.3" font-family="Times New Roman,serif" font-size="14.00"> </text>
</g>
<!-- 2196317557664&#45;&gt;2196317559008 -->
<g id="edge9" class="edge">
<title>2196317557664&#45;&gt;2196317559008</title>
<path fill="none" stroke="black" d="M154.29,-87.43C155.55,-84.92 156.8,-82.42 158,-80 161.81,-72.27 165.82,-63.87 169.51,-56"/>
<polygon fill="black" stroke="black" points="154.19,-87.62 155.01,-94.78 148.72,-98.3 147.89,-91.14 154.19,-87.62"/>
<polygon fill="black" stroke="black" points="172.77,-57.29 173.83,-46.74 166.43,-54.33 172.77,-57.29"/>
<text text-anchor="middle" x="195.5" y="-68.8" font-family="Times New Roman,serif" font-size="14.00">expression</text>
</g>
<!-- 2196317559728 -->
<g id="node13" class="node">
<title>2196317559728</title>
<polygon fill="aliceblue" stroke="black" points="237,-392.5 237,-438.5 309,-438.5 309,-392.5 237,-392.5"/>
<text text-anchor="middle" x="273" y="-423.3" font-family="Times New Roman,serif" font-size="14.00">x:Variable</text>
<polyline fill="none" stroke="black" points="237,-415.5 309,-415.5 "/>
<text text-anchor="middle" x="273" y="-400.3" font-family="Times New Roman,serif" font-size="14.00"> </text>
</g>
<!-- 2196317557472&#45;&gt;2196317559728 -->
<g id="edge13" class="edge">
<title>2196317557472&#45;&gt;2196317559728</title>
<path fill="none" stroke="black" d="M273.64,-478.22C273.54,-468.65 273.44,-458.29 273.34,-448.84"/>
<polygon fill="black" stroke="black" points="273.64,-478.24 277.71,-484.19 273.77,-490.23 269.71,-484.28 273.64,-478.24"/>
<polygon fill="black" stroke="black" points="276.83,-448.61 273.23,-438.64 269.84,-448.68 276.83,-448.61"/>
<text text-anchor="middle" x="301.5" y="-460.8" font-family="Times New Roman,serif" font-size="14.00">parameter</text>
</g>
<!-- 2196317559344 -->
<g id="node14" class="node">
<title>2196317559344</title>
<polygon fill="aliceblue" stroke="black" points="331.5,-392.5 331.5,-438.5 416.5,-438.5 416.5,-392.5 331.5,-392.5"/>
<text text-anchor="middle" x="374" y="-423.3" font-family="Times New Roman,serif" font-size="14.00">:Abstraction</text>
<polyline fill="none" stroke="black" points="331.5,-415.5 416.5,-415.5 "/>
<text text-anchor="middle" x="374" y="-400.3" font-family="Times New Roman,serif" font-size="14.00"> </text>
</g>
<!-- 2196317557472&#45;&gt;2196317559344 -->
<g id="edge14" class="edge">
<title>2196317557472&#45;&gt;2196317559344</title>
<path fill="none" stroke="black" d="M321.14,-483.08C325.67,-479.56 330.04,-475.84 334,-472 341.61,-464.62 348.78,-455.64 354.88,-447.07"/>
<polygon fill="black" stroke="black" points="320.78,-483.35 318.31,-490.13 311.11,-490.45 313.58,-483.68 320.78,-483.35"/>
<polygon fill="black" stroke="black" points="357.84,-448.94 360.61,-438.72 352.07,-444.99 357.84,-448.94"/>
<text text-anchor="middle" x="376.5" y="-460.8" font-family="Times New Roman,serif" font-size="14.00">expression</text>
</g>
<!-- 2196317557760 -->
<g id="node15" class="node">
<title>2196317557760</title>
<polygon fill="aliceblue" stroke="black" points="291,-294.5 291,-340.5 363,-340.5 363,-294.5 291,-294.5"/>
<text text-anchor="middle" x="327" y="-325.3" font-family="Times New Roman,serif" font-size="14.00">y:Variable</text>
<polyline fill="none" stroke="black" points="291,-317.5 363,-317.5 "/>
<text text-anchor="middle" x="327" y="-302.3" font-family="Times New Roman,serif" font-size="14.00"> </text>
</g>
<!-- 2196317559344&#45;&gt;2196317557760 -->
<g id="edge15" class="edge">
<title>2196317559344&#45;&gt;2196317557760</title>
<path fill="none" stroke="black" d="M344.09,-382.65C342.2,-379.84 340.47,-376.94 339,-374 335.42,-366.82 332.9,-358.6 331.14,-350.73"/>
<polygon fill="black" stroke="black" points="344.22,-382.83 351.03,-385.2 351.46,-392.4 344.65,-390.03 344.22,-382.83"/>
<polygon fill="black" stroke="black" points="334.53,-349.86 329.22,-340.69 327.66,-351.17 334.53,-349.86"/>
<text text-anchor="middle" x="366.5" y="-362.8" font-family="Times New Roman,serif" font-size="14.00">parameter</text>
</g>
<!-- 2196317560592 -->
<g id="node16" class="node">
<title>2196317560592</title>
<polygon fill="aliceblue" stroke="black" points="385,-294.5 385,-340.5 457,-340.5 457,-294.5 385,-294.5"/>
<text text-anchor="middle" x="421" y="-325.3" font-family="Times New Roman,serif" font-size="14.00">y:Variable</text>
<polyline fill="none" stroke="black" points="385,-317.5 457,-317.5 "/>
<text text-anchor="middle" x="421" y="-302.3" font-family="Times New Roman,serif" font-size="14.00"> </text>
</g>
<!-- 2196317559344&#45;&gt;2196317560592 -->
<g id="edge16" class="edge">
<title>2196317559344&#45;&gt;2196317560592</title>
<path fill="none" stroke="black" d="M391.29,-381.43C392.55,-378.92 393.8,-376.42 395,-374 398.81,-366.27 402.82,-357.87 406.51,-350"/>
<polygon fill="black" stroke="black" points="391.19,-381.62 392.01,-388.78 385.72,-392.3 384.89,-385.14 391.19,-381.62"/>
<polygon fill="black" stroke="black" points="409.77,-351.29 410.83,-340.74 403.43,-348.33 409.77,-351.29"/>
<text text-anchor="middle" x="431.5" y="-362.8" font-family="Times New Roman,serif" font-size="14.00">expression</text>
</g>
</g>
</svg>
