<?xml version="1.0" encoding="UTF-8" standalone="no"?>
<!DOCTYPE svg PUBLIC "-//W3C//DTD SVG 1.1//EN"
 "http://www.w3.org/Graphics/SVG/1.1/DTD/svg11.dtd">
<!-- Generated by graphviz version 8.0.5 (20230430.1635)
 -->
<!-- Title: textX Pages: 1 -->
<svg width="232pt" height="257pt"
 viewBox="0.00 0.00 232.38 257.00" xmlns="http://www.w3.org/2000/svg" xmlns:xlink="http://www.w3.org/1999/xlink">
<g id="graph0" class="graph" transform="scale(1 1) rotate(0) translate(4 253)">
<title>textX</title>
<polygon fill="white" stroke="none" points="-4,4 -4,-253 228.38,-253 228.38,4 -4,4"/>
<!-- 2133899157832 -->
<g id="node1" class="node">
<title>2133899157832</title>
<polygon fill="aliceblue" stroke="black" points="91.12,-201 91.12,-248.5 174.62,-248.5 174.62,-201 91.12,-201"/>
<text text-anchor="middle" x="132.88" y="-231.2" font-family="Times New Roman,serif" font-size="14.00">:Application</text>
<polyline fill="none" stroke="black" points="91.12,-224.75 174.62,-224.75"/>
<text text-anchor="middle" x="132.88" y="-207.45" font-family="Times New Roman,serif" font-size="14.00"> </text>
</g>
<!-- 2133909192008 -->
<g id="node2" class="node">
<title>2133909192008</title>
<polygon fill="aliceblue" stroke="black" points="38.75,-100.75 38.75,-148.25 123,-148.25 123,-100.75 38.75,-100.75"/>
<text text-anchor="middle" x="80.88" y="-130.95" font-family="Times New Roman,serif" font-size="14.00">:Abstraction</text>
<polyline fill="none" stroke="black" points="38.75,-124.5 123,-124.5"/>
<text text-anchor="middle" x="80.88" y="-107.2" font-family="Times New Roman,serif" font-size="14.00"> </text>
</g>
<!-- 2133899157832&#45;&gt;2133909192008 -->
<g id="edge1" class="edge">
<title>2133899157832&#45;&gt;2133909192008</title>
<path fill="none" stroke="black" d="M115.18,-190.31C109.59,-179.75 103.43,-168.11 97.89,-157.65"/>
<polygon fill="black" stroke="black" points="115.04,-190.05 121.38,-193.48 120.65,-200.66 114.31,-197.23 115.04,-190.05"/>
<polygon fill="black" stroke="black" points="100.58,-156.25 92.81,-149.05 94.39,-159.52 100.58,-156.25"/>
<text text-anchor="middle" x="119.5" y="-169.2" font-family="Times New Roman,serif" font-size="14.00">left</text>
</g>
<!-- 2133910699400 -->
<g id="node5" class="node">
<title>2133910699400</title>
<polygon fill="aliceblue" stroke="black" points="145.38,-100.75 145.38,-148.25 224.38,-148.25 224.38,-100.75 145.38,-100.75"/>
<text text-anchor="middle" x="184.88" y="-130.95" font-family="Times New Roman,serif" font-size="14.00">p2:Variable</text>
<polyline fill="none" stroke="black" points="145.38,-124.5 224.38,-124.5"/>
<text text-anchor="middle" x="184.88" y="-107.2" font-family="Times New Roman,serif" font-size="14.00"> </text>
</g>
<!-- 2133899157832&#45;&gt;2133910699400 -->
<g id="edge4" class="edge">
<title>2133899157832&#45;&gt;2133910699400</title>
<path fill="none" stroke="black" d="M150.57,-190.31C156.16,-179.75 162.32,-168.11 167.86,-157.65"/>
<polygon fill="black" stroke="black" points="150.71,-190.05 151.44,-197.23 145.1,-200.66 144.37,-193.48 150.71,-190.05"/>
<polygon fill="black" stroke="black" points="171.36,-159.52 172.94,-149.05 165.17,-156.25 171.36,-159.52"/>
<text text-anchor="middle" x="175.25" y="-169.2" font-family="Times New Roman,serif" font-size="14.00">right</text>
</g>
<!-- 2133910294728 -->
<g id="node3" class="node">
<title>2133910294728</title>
<polygon fill="aliceblue" stroke="black" points="0,-0.5 0,-48 67.75,-48 67.75,-0.5 0,-0.5"/>
<text text-anchor="middle" x="33.88" y="-30.7" font-family="Times New Roman,serif" font-size="14.00">j:Variable</text>
<polyline fill="none" stroke="black" points="0,-24.25 67.75,-24.25"/>
<text text-anchor="middle" x="33.88" y="-6.95" font-family="Times New Roman,serif" font-size="14.00"> </text>
</g>
<!-- 2133909192008&#45;&gt;2133910294728 -->
<g id="edge2" class="edge">
<title>2133909192008&#45;&gt;2133910294728</title>
<path fill="none" stroke="black" d="M51.72,-90.34C50.02,-87.69 48.47,-84.98 47.12,-82.25 43.52,-74.92 40.87,-66.56 38.93,-58.56"/>
<polygon fill="black" stroke="black" points="51.7,-90.32 58.45,-92.86 58.71,-100.07 51.96,-97.53 51.7,-90.32"/>
<polygon fill="black" stroke="black" points="42.19,-58.05 36.71,-48.98 35.34,-59.49 42.19,-58.05"/>
<text text-anchor="middle" x="75.25" y="-68.95" font-family="Times New Roman,serif" font-size="14.00">parameter</text>
</g>
<!-- 2133909556616 -->
<g id="node4" class="node">
<title>2133909556616</title>
<polygon fill="aliceblue" stroke="black" points="89.38,-0.5 89.38,-48 168.38,-48 168.38,-0.5 89.38,-0.5"/>
<text text-anchor="middle" x="128.88" y="-30.7" font-family="Times New Roman,serif" font-size="14.00">p1:Variable</text>
<polyline fill="none" stroke="black" points="89.38,-24.25 168.38,-24.25"/>
<text text-anchor="middle" x="128.88" y="-6.95" font-family="Times New Roman,serif" font-size="14.00"> </text>
</g>
<!-- 2133909192008&#45;&gt;2133909556616 -->
<g id="edge3" class="edge">
<title>2133909192008&#45;&gt;2133909556616</title>
<path fill="none" stroke="black" d="M99.19,-89.55C100.46,-87.09 101.7,-84.64 102.88,-82.25 106.77,-74.37 110.8,-65.77 114.49,-57.71"/>
<polygon fill="black" stroke="black" points="99.22,-89.51 99.98,-96.68 93.65,-100.14 92.89,-92.97 99.22,-89.51"/>
<polygon fill="black" stroke="black" points="118.01,-59.42 118.94,-48.87 111.63,-56.54 118.01,-59.42"/>
<text text-anchor="middle" x="140.88" y="-68.95" font-family="Times New Roman,serif" font-size="14.00">expression</text>
</g>
</g>
</svg>
