<?xml version="1.0" encoding="UTF-8" standalone="no"?>
<!DOCTYPE svg PUBLIC "-//W3C//DTD SVG 1.1//EN"
 "http://www.w3.org/Graphics/SVG/1.1/DTD/svg11.dtd">
<!-- Generated by graphviz version 8.0.5 (20230430.1635)
 -->
<!-- Title: textX Pages: 1 -->
<svg width="575pt" height="959pt"
 viewBox="0.00 0.00 574.75 958.75" xmlns="http://www.w3.org/2000/svg" xmlns:xlink="http://www.w3.org/1999/xlink">
<g id="graph0" class="graph" transform="scale(1 1) rotate(0) translate(4 954.75)">
<title>textX</title>
<polygon fill="white" stroke="none" points="-4,4 -4,-954.75 570.75,-954.75 570.75,4 -4,4"/>
<!-- 2133899157448 -->
<g id="node1" class="node">
<title>2133899157448</title>
<polygon fill="aliceblue" stroke="black" points="349,-902.75 349,-950.25 432.5,-950.25 432.5,-902.75 349,-902.75"/>
<text text-anchor="middle" x="390.75" y="-932.95" font-family="Times New Roman,serif" font-size="14.00">:Application</text>
<polyline fill="none" stroke="black" points="349,-926.5 432.5,-926.5"/>
<text text-anchor="middle" x="390.75" y="-909.2" font-family="Times New Roman,serif" font-size="14.00"> </text>
</g>
<!-- 2133899137800 -->
<g id="node2" class="node">
<title>2133899137800</title>
<polygon fill="aliceblue" stroke="black" points="297,-802.5 297,-850 380.5,-850 380.5,-802.5 297,-802.5"/>
<text text-anchor="middle" x="338.75" y="-832.7" font-family="Times New Roman,serif" font-size="14.00">:Application</text>
<polyline fill="none" stroke="black" points="297,-826.25 380.5,-826.25"/>
<text text-anchor="middle" x="338.75" y="-808.95" font-family="Times New Roman,serif" font-size="14.00"> </text>
</g>
<!-- 2133899157448&#45;&gt;2133899137800 -->
<g id="edge1" class="edge">
<title>2133899157448&#45;&gt;2133899137800</title>
<path fill="none" stroke="black" d="M373.05,-892.06C367.46,-881.5 361.3,-869.86 355.76,-859.4"/>
<polygon fill="black" stroke="black" points="372.92,-891.8 379.26,-895.23 378.53,-902.41 372.19,-898.98 372.92,-891.8"/>
<polygon fill="black" stroke="black" points="358.45,-858 350.68,-850.8 352.27,-861.27 358.45,-858"/>
<text text-anchor="middle" x="377.38" y="-870.95" font-family="Times New Roman,serif" font-size="14.00">left</text>
</g>
<!-- 2133909132488 -->
<g id="node25" class="node">
<title>2133909132488</title>
<polygon fill="aliceblue" stroke="black" points="402.25,-802.5 402.25,-850 481.25,-850 481.25,-802.5 402.25,-802.5"/>
<text text-anchor="middle" x="441.75" y="-832.7" font-family="Times New Roman,serif" font-size="14.00">p2:Variable</text>
<polyline fill="none" stroke="black" points="402.25,-826.25 481.25,-826.25"/>
<text text-anchor="middle" x="441.75" y="-808.95" font-family="Times New Roman,serif" font-size="14.00"> </text>
</g>
<!-- 2133899157448&#45;&gt;2133909132488 -->
<g id="edge24" class="edge">
<title>2133899157448&#45;&gt;2133909132488</title>
<path fill="none" stroke="black" d="M408.33,-891.64C413.77,-881.16 419.74,-869.65 425.11,-859.3"/>
<polygon fill="black" stroke="black" points="408.27,-891.75 409.05,-898.92 402.74,-902.41 401.95,-895.24 408.27,-891.75"/>
<polygon fill="black" stroke="black" points="428.55,-861.28 430.05,-850.8 422.33,-858.06 428.55,-861.28"/>
<text text-anchor="middle" x="432.12" y="-870.95" font-family="Times New Roman,serif" font-size="14.00">right</text>
</g>
<!-- 2133909131912 -->
<g id="node3" class="node">
<title>2133909131912</title>
<polygon fill="aliceblue" stroke="black" points="245,-702.25 245,-749.75 328.5,-749.75 328.5,-702.25 245,-702.25"/>
<text text-anchor="middle" x="286.75" y="-732.45" font-family="Times New Roman,serif" font-size="14.00">:Application</text>
<polyline fill="none" stroke="black" points="245,-726 328.5,-726"/>
<text text-anchor="middle" x="286.75" y="-708.7" font-family="Times New Roman,serif" font-size="14.00"> </text>
</g>
<!-- 2133899137800&#45;&gt;2133909131912 -->
<g id="edge2" class="edge">
<title>2133899137800&#45;&gt;2133909131912</title>
<path fill="none" stroke="black" d="M321.05,-791.81C315.46,-781.25 309.3,-769.61 303.76,-759.15"/>
<polygon fill="black" stroke="black" points="320.92,-791.55 327.26,-794.98 326.53,-802.16 320.19,-798.73 320.92,-791.55"/>
<polygon fill="black" stroke="black" points="306.45,-757.75 298.68,-750.55 300.27,-761.02 306.45,-757.75"/>
<text text-anchor="middle" x="325.38" y="-770.7" font-family="Times New Roman,serif" font-size="14.00">left</text>
</g>
<!-- 2133909132936 -->
<g id="node24" class="node">
<title>2133909132936</title>
<polygon fill="aliceblue" stroke="black" points="350.25,-702.25 350.25,-749.75 429.25,-749.75 429.25,-702.25 350.25,-702.25"/>
<text text-anchor="middle" x="389.75" y="-732.45" font-family="Times New Roman,serif" font-size="14.00">p1:Variable</text>
<polyline fill="none" stroke="black" points="350.25,-726 429.25,-726"/>
<text text-anchor="middle" x="389.75" y="-708.7" font-family="Times New Roman,serif" font-size="14.00"> </text>
</g>
<!-- 2133899137800&#45;&gt;2133909132936 -->
<g id="edge23" class="edge">
<title>2133899137800&#45;&gt;2133909132936</title>
<path fill="none" stroke="black" d="M356.33,-791.39C361.77,-780.91 367.74,-769.4 373.11,-759.05"/>
<polygon fill="black" stroke="black" points="356.27,-791.5 357.05,-798.67 350.74,-802.16 349.95,-794.99 356.27,-791.5"/>
<polygon fill="black" stroke="black" points="376.55,-761.03 378.05,-750.55 370.33,-757.81 376.55,-761.03"/>
<text text-anchor="middle" x="380.12" y="-770.7" font-family="Times New Roman,serif" font-size="14.00">right</text>
</g>
<!-- 2133909043592 -->
<g id="node4" class="node">
<title>2133909043592</title>
<polygon fill="aliceblue" stroke="black" points="192,-602 192,-649.5 275.5,-649.5 275.5,-602 192,-602"/>
<text text-anchor="middle" x="233.75" y="-632.2" font-family="Times New Roman,serif" font-size="14.00">:Application</text>
<polyline fill="none" stroke="black" points="192,-625.75 275.5,-625.75"/>
<text text-anchor="middle" x="233.75" y="-608.45" font-family="Times New Roman,serif" font-size="14.00"> </text>
</g>
<!-- 2133909131912&#45;&gt;2133909043592 -->
<g id="edge3" class="edge">
<title>2133909131912&#45;&gt;2133909043592</title>
<path fill="none" stroke="black" d="M268.71,-691.56C263.01,-681 256.74,-669.36 251.09,-658.9"/>
<polygon fill="black" stroke="black" points="268.6,-691.35 274.97,-694.73 274.3,-701.91 267.93,-698.53 268.6,-691.35"/>
<polygon fill="black" stroke="black" points="253.74,-657.44 245.91,-650.3 247.58,-660.76 253.74,-657.44"/>
<text text-anchor="middle" x="272.38" y="-670.45" font-family="Times New Roman,serif" font-size="14.00">left</text>
</g>
<!-- 2133909045000 -->
<g id="node19" class="node">
<title>2133909045000</title>
<polygon fill="aliceblue" stroke="black" points="297.62,-602 297.62,-649.5 381.88,-649.5 381.88,-602 297.62,-602"/>
<text text-anchor="middle" x="339.75" y="-632.2" font-family="Times New Roman,serif" font-size="14.00">:Abstraction</text>
<polyline fill="none" stroke="black" points="297.62,-625.75 381.88,-625.75"/>
<text text-anchor="middle" x="339.75" y="-608.45" font-family="Times New Roman,serif" font-size="14.00"> </text>
</g>
<!-- 2133909131912&#45;&gt;2133909045000 -->
<g id="edge18" class="edge">
<title>2133909131912&#45;&gt;2133909045000</title>
<path fill="none" stroke="black" d="M304.79,-691.56C310.49,-681 316.76,-669.36 322.41,-658.9"/>
<polygon fill="black" stroke="black" points="304.9,-691.35 305.57,-698.53 299.2,-701.91 298.53,-694.73 304.9,-691.35"/>
<polygon fill="black" stroke="black" points="325.92,-660.76 327.59,-650.3 319.76,-657.44 325.92,-660.76"/>
<text text-anchor="middle" x="329.12" y="-670.45" font-family="Times New Roman,serif" font-size="14.00">right</text>
</g>
<!-- 2133909044552 -->
<g id="node5" class="node">
<title>2133909044552</title>
<polygon fill="aliceblue" stroke="black" points="89.62,-501.75 89.62,-549.25 173.88,-549.25 173.88,-501.75 89.62,-501.75"/>
<text text-anchor="middle" x="131.75" y="-531.95" font-family="Times New Roman,serif" font-size="14.00">:Abstraction</text>
<polyline fill="none" stroke="black" points="89.62,-525.5 173.88,-525.5"/>
<text text-anchor="middle" x="131.75" y="-508.2" font-family="Times New Roman,serif" font-size="14.00"> </text>
</g>
<!-- 2133909043592&#45;&gt;2133909044552 -->
<g id="edge4" class="edge">
<title>2133909043592&#45;&gt;2133909044552</title>
<path fill="none" stroke="black" d="M201.36,-593.55C189.02,-581.66 174.98,-568.15 162.77,-556.38"/>
<polygon fill="black" stroke="black" points="201.06,-593.26 208.15,-594.54 209.7,-601.58 202.6,-600.3 201.06,-593.26"/>
<polygon fill="black" stroke="black" points="165.67,-554.35 156.04,-549.94 160.82,-559.39 165.67,-554.35"/>
<text text-anchor="middle" x="198.38" y="-570.2" font-family="Times New Roman,serif" font-size="14.00">left</text>
</g>
<!-- 2133909044488 -->
<g id="node16" class="node">
<title>2133909044488</title>
<polygon fill="aliceblue" stroke="black" points="195.62,-501.75 195.62,-549.25 279.88,-549.25 279.88,-501.75 195.62,-501.75"/>
<text text-anchor="middle" x="237.75" y="-531.95" font-family="Times New Roman,serif" font-size="14.00">:Abstraction</text>
<polyline fill="none" stroke="black" points="195.62,-525.5 279.88,-525.5"/>
<text text-anchor="middle" x="237.75" y="-508.2" font-family="Times New Roman,serif" font-size="14.00"> </text>
</g>
<!-- 2133909043592&#45;&gt;2133909044488 -->
<g id="edge15" class="edge">
<title>2133909043592&#45;&gt;2133909044488</title>
<path fill="none" stroke="black" d="M235.18,-589.63C235.58,-579.92 236,-569.41 236.39,-559.8"/>
<polygon fill="black" stroke="black" points="235.18,-589.56 238.94,-595.72 234.69,-601.55 230.94,-595.4 235.18,-589.56"/>
<polygon fill="black" stroke="black" points="239.92,-560.18 236.83,-550.05 232.93,-559.9 239.92,-560.18"/>
<text text-anchor="middle" x="249.12" y="-570.2" font-family="Times New Roman,serif" font-size="14.00">right</text>
</g>
<!-- 2133909041992 -->
<g id="node6" class="node">
<title>2133909041992</title>
<polygon fill="aliceblue" stroke="black" points="0,-401.5 0,-449 71.5,-449 71.5,-401.5 0,-401.5"/>
<text text-anchor="middle" x="35.75" y="-431.7" font-family="Times New Roman,serif" font-size="14.00">g:Variable</text>
<polyline fill="none" stroke="black" points="0,-425.25 71.5,-425.25"/>
<text text-anchor="middle" x="35.75" y="-407.95" font-family="Times New Roman,serif" font-size="14.00"> </text>
</g>
<!-- 2133909044552&#45;&gt;2133909041992 -->
<g id="edge5" class="edge">
<title>2133909044552&#45;&gt;2133909041992</title>
<path fill="none" stroke="black" d="M85.93,-494.18C81.72,-490.7 77.67,-487.03 74,-483.25 66.68,-475.72 59.87,-466.61 54.08,-457.92"/>
<polygon fill="black" stroke="black" points="85.74,-494.04 92.94,-494.56 95.21,-501.41 88.02,-500.88 85.74,-494.04"/>
<polygon fill="black" stroke="black" points="56.56,-456.28 48.23,-449.73 50.65,-460.05 56.56,-456.28"/>
<text text-anchor="middle" x="102.12" y="-469.95" font-family="Times New Roman,serif" font-size="14.00">parameter</text>
</g>
<!-- 2133909044936 -->
<g id="node7" class="node">
<title>2133909044936</title>
<polygon fill="aliceblue" stroke="black" points="93.62,-401.5 93.62,-449 177.88,-449 177.88,-401.5 93.62,-401.5"/>
<text text-anchor="middle" x="135.75" y="-431.7" font-family="Times New Roman,serif" font-size="14.00">:Abstraction</text>
<polyline fill="none" stroke="black" points="93.62,-425.25 177.88,-425.25"/>
<text text-anchor="middle" x="135.75" y="-407.95" font-family="Times New Roman,serif" font-size="14.00"> </text>
</g>
<!-- 2133909044552&#45;&gt;2133909044936 -->
<g id="edge6" class="edge">
<title>2133909044552&#45;&gt;2133909044936</title>
<path fill="none" stroke="black" d="M133.18,-489.38C133.58,-479.67 134,-469.16 134.39,-459.55"/>
<polygon fill="black" stroke="black" points="133.18,-489.31 136.94,-495.47 132.69,-501.3 128.94,-495.15 133.18,-489.31"/>
<polygon fill="black" stroke="black" points="137.92,-459.93 134.83,-449.8 130.93,-459.65 137.92,-459.93"/>
<text text-anchor="middle" x="164.75" y="-469.95" font-family="Times New Roman,serif" font-size="14.00">expression</text>
</g>
<!-- 2133909041480 -->
<g id="node8" class="node">
<title>2133909041480</title>
<polygon fill="aliceblue" stroke="black" points="56.12,-301.25 56.12,-348.75 125.38,-348.75 125.38,-301.25 56.12,-301.25"/>
<text text-anchor="middle" x="90.75" y="-331.45" font-family="Times New Roman,serif" font-size="14.00">f:Variable</text>
<polyline fill="none" stroke="black" points="56.12,-325 125.38,-325"/>
<text text-anchor="middle" x="90.75" y="-307.7" font-family="Times New Roman,serif" font-size="14.00"> </text>
</g>
<!-- 2133909044936&#45;&gt;2133909041480 -->
<g id="edge7" class="edge">
<title>2133909044936&#45;&gt;2133909041480</title>
<path fill="none" stroke="black" d="M103.56,-391.18C101.85,-388.52 100.3,-385.79 99,-383 95.58,-375.65 93.49,-367.23 92.25,-359.16"/>
<polygon fill="black" stroke="black" points="103.61,-391.23 110.41,-393.63 110.82,-400.83 104.01,-398.43 103.61,-391.23"/>
<polygon fill="black" stroke="black" points="95.64,-359.04 91.02,-349.51 88.69,-359.84 95.64,-359.04"/>
<text text-anchor="middle" x="127.12" y="-369.7" font-family="Times New Roman,serif" font-size="14.00">parameter</text>
</g>
<!-- 2133909044360 -->
<g id="node9" class="node">
<title>2133909044360</title>
<polygon fill="aliceblue" stroke="black" points="147.62,-301.25 147.62,-348.75 231.88,-348.75 231.88,-301.25 147.62,-301.25"/>
<text text-anchor="middle" x="189.75" y="-331.45" font-family="Times New Roman,serif" font-size="14.00">:Abstraction</text>
<polyline fill="none" stroke="black" points="147.62,-325 231.88,-325"/>
<text text-anchor="middle" x="189.75" y="-307.7" font-family="Times New Roman,serif" font-size="14.00"> </text>
</g>
<!-- 2133909044936&#45;&gt;2133909044360 -->
<g id="edge8" class="edge">
<title>2133909044936&#45;&gt;2133909044360</title>
<path fill="none" stroke="black" d="M154.13,-390.81C159.93,-380.25 166.33,-368.61 172.08,-358.15"/>
<polygon fill="black" stroke="black" points="154.22,-390.65 154.83,-397.83 148.44,-401.17 147.82,-393.98 154.22,-390.65"/>
<polygon fill="black" stroke="black" points="175.61,-360 177.36,-349.55 169.47,-356.62 175.61,-360"/>
<text text-anchor="middle" x="196.75" y="-369.7" font-family="Times New Roman,serif" font-size="14.00">expression</text>
</g>
<!-- 2133909044424 -->
<g id="node10" class="node">
<title>2133909044424</title>
<polygon fill="aliceblue" stroke="black" points="108,-201 108,-248.5 179.5,-248.5 179.5,-201 108,-201"/>
<text text-anchor="middle" x="143.75" y="-231.2" font-family="Times New Roman,serif" font-size="14.00">x:Variable</text>
<polyline fill="none" stroke="black" points="108,-224.75 179.5,-224.75"/>
<text text-anchor="middle" x="143.75" y="-207.45" font-family="Times New Roman,serif" font-size="14.00"> </text>
</g>
<!-- 2133909044360&#45;&gt;2133909044424 -->
<g id="edge9" class="edge">
<title>2133909044360&#45;&gt;2133909044424</title>
<path fill="none" stroke="black" d="M157.62,-290.9C155.89,-288.25 154.32,-285.53 153,-282.75 149.5,-275.41 147.29,-266.99 145.91,-258.93"/>
<polygon fill="black" stroke="black" points="157.67,-290.96 164.47,-293.34 164.9,-300.54 158.09,-298.16 157.67,-290.96"/>
<polygon fill="black" stroke="black" points="149.28,-258.72 144.48,-249.27 142.34,-259.65 149.28,-258.72"/>
<text text-anchor="middle" x="181.12" y="-269.45" font-family="Times New Roman,serif" font-size="14.00">parameter</text>
</g>
<!-- 2133909043656 -->
<g id="node11" class="node">
<title>2133909043656</title>
<polygon fill="aliceblue" stroke="black" points="202,-201 202,-248.5 285.5,-248.5 285.5,-201 202,-201"/>
<text text-anchor="middle" x="243.75" y="-231.2" font-family="Times New Roman,serif" font-size="14.00">:Application</text>
<polyline fill="none" stroke="black" points="202,-224.75 285.5,-224.75"/>
<text text-anchor="middle" x="243.75" y="-207.45" font-family="Times New Roman,serif" font-size="14.00"> </text>
</g>
<!-- 2133909044360&#45;&gt;2133909043656 -->
<g id="edge10" class="edge">
<title>2133909044360&#45;&gt;2133909043656</title>
<path fill="none" stroke="black" d="M208.13,-290.56C213.93,-280 220.33,-268.36 226.08,-257.9"/>
<polygon fill="black" stroke="black" points="208.22,-290.4 208.83,-297.58 202.44,-300.92 201.82,-293.73 208.22,-290.4"/>
<polygon fill="black" stroke="black" points="229.61,-259.75 231.36,-249.3 223.47,-256.37 229.61,-259.75"/>
<text text-anchor="middle" x="250.75" y="-269.45" font-family="Times New Roman,serif" font-size="14.00">expression</text>
</g>
<!-- 2133909043464 -->
<g id="node12" class="node">
<title>2133909043464</title>
<polygon fill="aliceblue" stroke="black" points="172,-100.75 172,-148.25 243.5,-148.25 243.5,-100.75 172,-100.75"/>
<text text-anchor="middle" x="207.75" y="-130.95" font-family="Times New Roman,serif" font-size="14.00">g:Variable</text>
<polyline fill="none" stroke="black" points="172,-124.5 243.5,-124.5"/>
<text text-anchor="middle" x="207.75" y="-107.2" font-family="Times New Roman,serif" font-size="14.00"> </text>
</g>
<!-- 2133909043656&#45;&gt;2133909043464 -->
<g id="edge11" class="edge">
<title>2133909043656&#45;&gt;2133909043464</title>
<path fill="none" stroke="black" d="M231.19,-189.47C227.46,-179.28 223.38,-168.16 219.69,-158.08"/>
<polygon fill="black" stroke="black" points="231.14,-189.34 236.96,-193.6 235.27,-200.61 229.45,-196.35 231.14,-189.34"/>
<polygon fill="black" stroke="black" points="222.74,-157.23 216.01,-149.05 216.17,-159.64 222.74,-157.23"/>
<text text-anchor="middle" x="237.38" y="-169.2" font-family="Times New Roman,serif" font-size="14.00">left</text>
</g>
<!-- 2133909042760 -->
<g id="node13" class="node">
<title>2133909042760</title>
<polygon fill="aliceblue" stroke="black" points="266,-100.75 266,-148.25 349.5,-148.25 349.5,-100.75 266,-100.75"/>
<text text-anchor="middle" x="307.75" y="-130.95" font-family="Times New Roman,serif" font-size="14.00">:Application</text>
<polyline fill="none" stroke="black" points="266,-124.5 349.5,-124.5"/>
<text text-anchor="middle" x="307.75" y="-107.2" font-family="Times New Roman,serif" font-size="14.00"> </text>
</g>
<!-- 2133909043656&#45;&gt;2133909042760 -->
<g id="edge12" class="edge">
<title>2133909043656&#45;&gt;2133909042760</title>
<path fill="none" stroke="black" d="M265.26,-190.73C272.33,-179.87 280.17,-167.84 287.17,-157.1"/>
<polygon fill="black" stroke="black" points="265.31,-190.65 265.39,-197.86 258.76,-200.7 258.69,-193.49 265.31,-190.65"/>
<polygon fill="black" stroke="black" points="290.54,-159.34 293.06,-149.05 284.67,-155.52 290.54,-159.34"/>
<text text-anchor="middle" x="292.12" y="-169.2" font-family="Times New Roman,serif" font-size="14.00">right</text>
</g>
<!-- 2133909041864 -->
<g id="node14" class="node">
<title>2133909041864</title>
<polygon fill="aliceblue" stroke="black" points="227.12,-0.5 227.12,-48 296.38,-48 296.38,-0.5 227.12,-0.5"/>
<text text-anchor="middle" x="261.75" y="-30.7" font-family="Times New Roman,serif" font-size="14.00">f:Variable</text>
<polyline fill="none" stroke="black" points="227.12,-24.25 296.38,-24.25"/>
<text text-anchor="middle" x="261.75" y="-6.95" font-family="Times New Roman,serif" font-size="14.00"> </text>
</g>
<!-- 2133909042760&#45;&gt;2133909041864 -->
<g id="edge13" class="edge">
<title>2133909042760&#45;&gt;2133909041864</title>
<path fill="none" stroke="black" d="M291.9,-89.64C287.04,-79.27 281.71,-67.89 276.9,-57.62"/>
<polygon fill="black" stroke="black" points="291.84,-89.52 298.01,-93.26 296.93,-100.39 290.76,-96.65 291.84,-89.52"/>
<polygon fill="black" stroke="black" points="279.72,-56.37 272.31,-48.8 273.38,-59.34 279.72,-56.37"/>
<text text-anchor="middle" x="296.38" y="-68.95" font-family="Times New Roman,serif" font-size="14.00">left</text>
</g>
<!-- 2133909043720 -->
<g id="node15" class="node">
<title>2133909043720</title>
<polygon fill="aliceblue" stroke="black" points="318,-0.5 318,-48 389.5,-48 389.5,-0.5 318,-0.5"/>
<text text-anchor="middle" x="353.75" y="-30.7" font-family="Times New Roman,serif" font-size="14.00">x:Variable</text>
<polyline fill="none" stroke="black" points="318,-24.25 389.5,-24.25"/>
<text text-anchor="middle" x="353.75" y="-6.95" font-family="Times New Roman,serif" font-size="14.00"> </text>
</g>
<!-- 2133909042760&#45;&gt;2133909043720 -->
<g id="edge14" class="edge">
<title>2133909042760&#45;&gt;2133909043720</title>
<path fill="none" stroke="black" d="M323.6,-89.64C328.46,-79.27 333.79,-67.89 338.6,-57.62"/>
<polygon fill="black" stroke="black" points="323.66,-89.52 324.74,-96.65 318.57,-100.39 317.49,-93.26 323.66,-89.52"/>
<polygon fill="black" stroke="black" points="342.12,-59.34 343.19,-48.8 335.78,-56.37 342.12,-59.34"/>
<text text-anchor="middle" x="346.12" y="-68.95" font-family="Times New Roman,serif" font-size="14.00">right</text>
</g>
<!-- 2133909042120 -->
<g id="node17" class="node">
<title>2133909042120</title>
<polygon fill="aliceblue" stroke="black" points="201,-401.5 201,-449 272.5,-449 272.5,-401.5 201,-401.5"/>
<text text-anchor="middle" x="236.75" y="-431.7" font-family="Times New Roman,serif" font-size="14.00">x:Variable</text>
<polyline fill="none" stroke="black" points="201,-425.25 272.5,-425.25"/>
<text text-anchor="middle" x="236.75" y="-407.95" font-family="Times New Roman,serif" font-size="14.00"> </text>
</g>
<!-- 2133909044488&#45;&gt;2133909042120 -->
<g id="edge16" class="edge">
<title>2133909044488&#45;&gt;2133909042120</title>
<path fill="none" stroke="black" d="M237.39,-489.38C237.29,-479.67 237.19,-469.16 237.09,-459.55"/>
<polygon fill="black" stroke="black" points="237.39,-489.3 241.45,-495.26 237.51,-501.3 233.45,-495.35 237.39,-489.3"/>
<polygon fill="black" stroke="black" points="240.58,-459.76 236.98,-449.8 233.58,-459.83 240.58,-459.76"/>
<text text-anchor="middle" x="265.12" y="-469.95" font-family="Times New Roman,serif" font-size="14.00">parameter</text>
</g>
<!-- 2133909043976 -->
<g id="node18" class="node">
<title>2133909043976</title>
<polygon fill="aliceblue" stroke="black" points="295,-401.5 295,-449 366.5,-449 366.5,-401.5 295,-401.5"/>
<text text-anchor="middle" x="330.75" y="-431.7" font-family="Times New Roman,serif" font-size="14.00">x:Variable</text>
<polyline fill="none" stroke="black" points="295,-425.25 366.5,-425.25"/>
<text text-anchor="middle" x="330.75" y="-407.95" font-family="Times New Roman,serif" font-size="14.00"> </text>
</g>
<!-- 2133909044488&#45;&gt;2133909043976 -->
<g id="edge17" class="edge">
<title>2133909044488&#45;&gt;2133909043976</title>
<path fill="none" stroke="black" d="M286.5,-493.86C290.5,-490.51 294.32,-486.95 297.75,-483.25 304.52,-475.93 310.51,-466.99 315.46,-458.37"/>
<polygon fill="black" stroke="black" points="286.48,-493.88 284.19,-500.71 277,-501.23 279.29,-494.39 286.48,-493.88"/>
<polygon fill="black" stroke="black" points="318.91,-460.35 320.6,-449.89 312.75,-457.02 318.91,-460.35"/>
<text text-anchor="middle" x="340.75" y="-469.95" font-family="Times New Roman,serif" font-size="14.00">expression</text>
</g>
<!-- 2133909044808 -->
<g id="node20" class="node">
<title>2133909044808</title>
<polygon fill="aliceblue" stroke="black" points="303.38,-501.75 303.38,-549.25 374.12,-549.25 374.12,-501.75 303.38,-501.75"/>
<text text-anchor="middle" x="338.75" y="-531.95" font-family="Times New Roman,serif" font-size="14.00">a:Variable</text>
<polyline fill="none" stroke="black" points="303.38,-525.5 374.12,-525.5"/>
<text text-anchor="middle" x="338.75" y="-508.2" font-family="Times New Roman,serif" font-size="14.00"> </text>
</g>
<!-- 2133909045000&#45;&gt;2133909044808 -->
<g id="edge19" class="edge">
<title>2133909045000&#45;&gt;2133909044808</title>
<path fill="none" stroke="black" d="M339.39,-589.63C339.29,-579.92 339.19,-569.41 339.09,-559.8"/>
<polygon fill="black" stroke="black" points="339.39,-589.55 343.45,-595.51 339.51,-601.55 335.45,-595.6 339.39,-589.55"/>
<polygon fill="black" stroke="black" points="342.58,-560.01 338.98,-550.05 335.58,-560.08 342.58,-560.01"/>
<text text-anchor="middle" x="367.12" y="-570.2" font-family="Times New Roman,serif" font-size="14.00">parameter</text>
</g>
<!-- 2133909043912 -->
<g id="node21" class="node">
<title>2133909043912</title>
<polygon fill="aliceblue" stroke="black" points="396.62,-501.75 396.62,-549.25 480.88,-549.25 480.88,-501.75 396.62,-501.75"/>
<text text-anchor="middle" x="438.75" y="-531.95" font-family="Times New Roman,serif" font-size="14.00">:Abstraction</text>
<polyline fill="none" stroke="black" points="396.62,-525.5 480.88,-525.5"/>
<text text-anchor="middle" x="438.75" y="-508.2" font-family="Times New Roman,serif" font-size="14.00"> </text>
</g>
<!-- 2133909045000&#45;&gt;2133909043912 -->
<g id="edge20" class="edge">
<title>2133909045000&#45;&gt;2133909043912</title>
<path fill="none" stroke="black" d="M387.52,-594.39C391.83,-590.93 395.98,-587.28 399.75,-583.5 407.21,-576.02 414.16,-566.94 420.06,-558.24"/>
<polygon fill="black" stroke="black" points="387.58,-594.35 385.19,-601.15 378,-601.57 380.38,-594.76 387.58,-594.35"/>
<polygon fill="black" stroke="black" points="423.52,-560.34 426.03,-550.04 417.65,-556.53 423.52,-560.34"/>
<text text-anchor="middle" x="442.75" y="-570.2" font-family="Times New Roman,serif" font-size="14.00">expression</text>
</g>
<!-- 2133909042824 -->
<g id="node22" class="node">
<title>2133909042824</title>
<polygon fill="aliceblue" stroke="black" points="395.62,-401.5 395.62,-449 467.88,-449 467.88,-401.5 395.62,-401.5"/>
<text text-anchor="middle" x="431.75" y="-431.7" font-family="Times New Roman,serif" font-size="14.00">b:Variable</text>
<polyline fill="none" stroke="black" points="395.62,-425.25 467.88,-425.25"/>
<text text-anchor="middle" x="431.75" y="-407.95" font-family="Times New Roman,serif" font-size="14.00"> </text>
</g>
<!-- 2133909043912&#45;&gt;2133909042824 -->
<g id="edge21" class="edge">
<title>2133909043912&#45;&gt;2133909042824</title>
<path fill="none" stroke="black" d="M436.25,-489.38C435.56,-479.67 434.81,-469.16 434.12,-459.55"/>
<polygon fill="black" stroke="black" points="436.24,-489.34 440.66,-495.04 437.1,-501.31 432.68,-495.61 436.24,-489.34"/>
<polygon fill="black" stroke="black" points="437.56,-459.52 433.36,-449.8 430.58,-460.02 437.56,-459.52"/>
<text text-anchor="middle" x="463.12" y="-469.95" font-family="Times New Roman,serif" font-size="14.00">parameter</text>
</g>
<!-- 2133909043208 -->
<g id="node23" class="node">
<title>2133909043208</title>
<polygon fill="aliceblue" stroke="black" points="490.38,-401.5 490.38,-449 561.12,-449 561.12,-401.5 490.38,-401.5"/>
<text text-anchor="middle" x="525.75" y="-431.7" font-family="Times New Roman,serif" font-size="14.00">a:Variable</text>
<polyline fill="none" stroke="black" points="490.38,-425.25 561.12,-425.25"/>
<text text-anchor="middle" x="525.75" y="-407.95" font-family="Times New Roman,serif" font-size="14.00"> </text>
</g>
<!-- 2133909043912&#45;&gt;2133909043208 -->
<g id="edge22" class="edge">
<title>2133909043912&#45;&gt;2133909043208</title>
<path fill="none" stroke="black" d="M485.04,-493.96C488.87,-490.57 492.51,-486.98 495.75,-483.25 502.07,-475.96 507.54,-467.12 512.01,-458.59"/>
<polygon fill="black" stroke="black" points="485.23,-493.8 483.11,-500.69 475.93,-501.38 478.06,-494.49 485.23,-493.8"/>
<polygon fill="black" stroke="black" points="515.53,-460.35 516.79,-449.83 509.24,-457.27 515.53,-460.35"/>
<text text-anchor="middle" x="536.75" y="-469.95" font-family="Times New Roman,serif" font-size="14.00">expression</text>
</g>
</g>
</svg>
