<?xml version="1.0" encoding="UTF-8" standalone="no"?>
<!DOCTYPE svg PUBLIC "-//W3C//DTD SVG 1.1//EN"
 "http://www.w3.org/Graphics/SVG/1.1/DTD/svg11.dtd">
<!-- Generated by graphviz version 8.0.5 (20230430.1635)
 -->
<!-- Title: textX Pages: 1 -->
<svg width="448pt" height="758pt"
 viewBox="0.00 0.00 447.75 758.25" xmlns="http://www.w3.org/2000/svg" xmlns:xlink="http://www.w3.org/1999/xlink">
<g id="graph0" class="graph" transform="scale(1 1) rotate(0) translate(4 754.25)">
<title>textX</title>
<polygon fill="white" stroke="none" points="-4,4 -4,-754.25 443.75,-754.25 443.75,4 -4,4"/>
<!-- 2133899071880 -->
<g id="node1" class="node">
<title>2133899071880</title>
<polygon fill="aliceblue" stroke="black" points="287,-702.25 287,-749.75 370.5,-749.75 370.5,-702.25 287,-702.25"/>
<text text-anchor="middle" x="328.75" y="-732.45" font-family="Times New Roman,serif" font-size="14.00">:Application</text>
<polyline fill="none" stroke="black" points="287,-726 370.5,-726"/>
<text text-anchor="middle" x="328.75" y="-708.7" font-family="Times New Roman,serif" font-size="14.00"> </text>
</g>
<!-- 2133899044680 -->
<g id="node2" class="node">
<title>2133899044680</title>
<polygon fill="aliceblue" stroke="black" points="235,-602 235,-649.5 318.5,-649.5 318.5,-602 235,-602"/>
<text text-anchor="middle" x="276.75" y="-632.2" font-family="Times New Roman,serif" font-size="14.00">:Application</text>
<polyline fill="none" stroke="black" points="235,-625.75 318.5,-625.75"/>
<text text-anchor="middle" x="276.75" y="-608.45" font-family="Times New Roman,serif" font-size="14.00"> </text>
</g>
<!-- 2133899071880&#45;&gt;2133899044680 -->
<g id="edge1" class="edge">
<title>2133899071880&#45;&gt;2133899044680</title>
<path fill="none" stroke="black" d="M311.05,-691.56C305.46,-681 299.3,-669.36 293.76,-658.9"/>
<polygon fill="black" stroke="black" points="310.92,-691.3 317.26,-694.73 316.53,-701.91 310.19,-698.48 310.92,-691.3"/>
<polygon fill="black" stroke="black" points="296.45,-657.5 288.68,-650.3 290.27,-660.77 296.45,-657.5"/>
<text text-anchor="middle" x="315.38" y="-670.45" font-family="Times New Roman,serif" font-size="14.00">left</text>
</g>
<!-- 2133909042696 -->
<g id="node21" class="node">
<title>2133909042696</title>
<polygon fill="aliceblue" stroke="black" points="340.25,-602 340.25,-649.5 419.25,-649.5 419.25,-602 340.25,-602"/>
<text text-anchor="middle" x="379.75" y="-632.2" font-family="Times New Roman,serif" font-size="14.00">p2:Variable</text>
<polyline fill="none" stroke="black" points="340.25,-625.75 419.25,-625.75"/>
<text text-anchor="middle" x="379.75" y="-608.45" font-family="Times New Roman,serif" font-size="14.00"> </text>
</g>
<!-- 2133899071880&#45;&gt;2133909042696 -->
<g id="edge20" class="edge">
<title>2133899071880&#45;&gt;2133909042696</title>
<path fill="none" stroke="black" d="M346.33,-691.14C351.77,-680.66 357.74,-669.15 363.11,-658.8"/>
<polygon fill="black" stroke="black" points="346.27,-691.25 347.05,-698.42 340.74,-701.91 339.95,-694.74 346.27,-691.25"/>
<polygon fill="black" stroke="black" points="366.55,-660.78 368.05,-650.3 360.33,-657.56 366.55,-660.78"/>
<text text-anchor="middle" x="370.12" y="-670.45" font-family="Times New Roman,serif" font-size="14.00">right</text>
</g>
<!-- 2133908040648 -->
<g id="node3" class="node">
<title>2133908040648</title>
<polygon fill="aliceblue" stroke="black" points="183,-501.75 183,-549.25 266.5,-549.25 266.5,-501.75 183,-501.75"/>
<text text-anchor="middle" x="224.75" y="-531.95" font-family="Times New Roman,serif" font-size="14.00">:Application</text>
<polyline fill="none" stroke="black" points="183,-525.5 266.5,-525.5"/>
<text text-anchor="middle" x="224.75" y="-508.2" font-family="Times New Roman,serif" font-size="14.00"> </text>
</g>
<!-- 2133899044680&#45;&gt;2133908040648 -->
<g id="edge2" class="edge">
<title>2133899044680&#45;&gt;2133908040648</title>
<path fill="none" stroke="black" d="M259.05,-591.31C253.46,-580.75 247.3,-569.11 241.76,-558.65"/>
<polygon fill="black" stroke="black" points="258.92,-591.05 265.26,-594.48 264.53,-601.66 258.19,-598.23 258.92,-591.05"/>
<polygon fill="black" stroke="black" points="244.45,-557.25 236.68,-550.05 238.27,-560.52 244.45,-557.25"/>
<text text-anchor="middle" x="263.38" y="-570.2" font-family="Times New Roman,serif" font-size="14.00">left</text>
</g>
<!-- 2133909043400 -->
<g id="node20" class="node">
<title>2133909043400</title>
<polygon fill="aliceblue" stroke="black" points="288.25,-501.75 288.25,-549.25 367.25,-549.25 367.25,-501.75 288.25,-501.75"/>
<text text-anchor="middle" x="327.75" y="-531.95" font-family="Times New Roman,serif" font-size="14.00">p1:Variable</text>
<polyline fill="none" stroke="black" points="288.25,-525.5 367.25,-525.5"/>
<text text-anchor="middle" x="327.75" y="-508.2" font-family="Times New Roman,serif" font-size="14.00"> </text>
</g>
<!-- 2133899044680&#45;&gt;2133909043400 -->
<g id="edge19" class="edge">
<title>2133899044680&#45;&gt;2133909043400</title>
<path fill="none" stroke="black" d="M294.33,-590.89C299.77,-580.41 305.74,-568.9 311.11,-558.55"/>
<polygon fill="black" stroke="black" points="294.27,-591 295.05,-598.17 288.74,-601.66 287.95,-594.49 294.27,-591"/>
<polygon fill="black" stroke="black" points="314.55,-560.53 316.05,-550.05 308.33,-557.31 314.55,-560.53"/>
<text text-anchor="middle" x="318.12" y="-570.2" font-family="Times New Roman,serif" font-size="14.00">right</text>
</g>
<!-- 2133908040584 -->
<g id="node4" class="node">
<title>2133908040584</title>
<polygon fill="aliceblue" stroke="black" points="129.62,-401.5 129.62,-449 213.88,-449 213.88,-401.5 129.62,-401.5"/>
<text text-anchor="middle" x="171.75" y="-431.7" font-family="Times New Roman,serif" font-size="14.00">:Abstraction</text>
<polyline fill="none" stroke="black" points="129.62,-425.25 213.88,-425.25"/>
<text text-anchor="middle" x="171.75" y="-407.95" font-family="Times New Roman,serif" font-size="14.00"> </text>
</g>
<!-- 2133908040648&#45;&gt;2133908040584 -->
<g id="edge3" class="edge">
<title>2133908040648&#45;&gt;2133908040584</title>
<path fill="none" stroke="black" d="M206.71,-491.06C201.01,-480.5 194.74,-468.86 189.09,-458.4"/>
<polygon fill="black" stroke="black" points="206.6,-490.85 212.97,-494.23 212.3,-501.41 205.93,-498.03 206.6,-490.85"/>
<polygon fill="black" stroke="black" points="191.74,-456.94 183.91,-449.8 185.58,-460.26 191.74,-456.94"/>
<text text-anchor="middle" x="210.38" y="-469.95" font-family="Times New Roman,serif" font-size="14.00">left</text>
</g>
<!-- 2133909044104 -->
<g id="node15" class="node">
<title>2133909044104</title>
<polygon fill="aliceblue" stroke="black" points="235.62,-401.5 235.62,-449 319.88,-449 319.88,-401.5 235.62,-401.5"/>
<text text-anchor="middle" x="277.75" y="-431.7" font-family="Times New Roman,serif" font-size="14.00">:Abstraction</text>
<polyline fill="none" stroke="black" points="235.62,-425.25 319.88,-425.25"/>
<text text-anchor="middle" x="277.75" y="-407.95" font-family="Times New Roman,serif" font-size="14.00"> </text>
</g>
<!-- 2133908040648&#45;&gt;2133909044104 -->
<g id="edge14" class="edge">
<title>2133908040648&#45;&gt;2133909044104</title>
<path fill="none" stroke="black" d="M242.79,-491.06C248.49,-480.5 254.76,-468.86 260.41,-458.4"/>
<polygon fill="black" stroke="black" points="242.9,-490.85 243.57,-498.03 237.2,-501.41 236.53,-494.23 242.9,-490.85"/>
<polygon fill="black" stroke="black" points="263.92,-460.26 265.59,-449.8 257.76,-456.94 263.92,-460.26"/>
<text text-anchor="middle" x="267.12" y="-469.95" font-family="Times New Roman,serif" font-size="14.00">right</text>
</g>
<!-- 2133909131336 -->
<g id="node5" class="node">
<title>2133909131336</title>
<polygon fill="aliceblue" stroke="black" points="42.12,-301.25 42.12,-348.75 111.38,-348.75 111.38,-301.25 42.12,-301.25"/>
<text text-anchor="middle" x="76.75" y="-331.45" font-family="Times New Roman,serif" font-size="14.00">f:Variable</text>
<polyline fill="none" stroke="black" points="42.12,-325 111.38,-325"/>
<text text-anchor="middle" x="76.75" y="-307.7" font-family="Times New Roman,serif" font-size="14.00"> </text>
</g>
<!-- 2133908040584&#45;&gt;2133909131336 -->
<g id="edge4" class="edge">
<title>2133908040584&#45;&gt;2133909131336</title>
<path fill="none" stroke="black" d="M125.37,-393.55C121.36,-390.18 117.5,-386.65 114,-383 106.79,-375.48 100.13,-366.39 94.49,-357.69"/>
<polygon fill="black" stroke="black" points="125.41,-393.58 132.6,-394.14 134.85,-400.99 127.66,-400.43 125.41,-393.58"/>
<polygon fill="black" stroke="black" points="97.04,-356.16 88.8,-349.5 91.09,-359.85 97.04,-356.16"/>
<text text-anchor="middle" x="142.12" y="-369.7" font-family="Times New Roman,serif" font-size="14.00">parameter</text>
</g>
<!-- 2133909044872 -->
<g id="node6" class="node">
<title>2133909044872</title>
<polygon fill="aliceblue" stroke="black" points="133.62,-301.25 133.62,-348.75 217.88,-348.75 217.88,-301.25 133.62,-301.25"/>
<text text-anchor="middle" x="175.75" y="-331.45" font-family="Times New Roman,serif" font-size="14.00">:Abstraction</text>
<polyline fill="none" stroke="black" points="133.62,-325 217.88,-325"/>
<text text-anchor="middle" x="175.75" y="-307.7" font-family="Times New Roman,serif" font-size="14.00"> </text>
</g>
<!-- 2133908040584&#45;&gt;2133909044872 -->
<g id="edge5" class="edge">
<title>2133908040584&#45;&gt;2133909044872</title>
<path fill="none" stroke="black" d="M173.18,-389.13C173.58,-379.42 174,-368.91 174.39,-359.3"/>
<polygon fill="black" stroke="black" points="173.18,-389.06 176.94,-395.22 172.69,-401.05 168.94,-394.9 173.18,-389.06"/>
<polygon fill="black" stroke="black" points="177.92,-359.68 174.83,-349.55 170.93,-359.4 177.92,-359.68"/>
<text text-anchor="middle" x="204.75" y="-369.7" font-family="Times New Roman,serif" font-size="14.00">expression</text>
</g>
<!-- 2133909044616 -->
<g id="node7" class="node">
<title>2133909044616</title>
<polygon fill="aliceblue" stroke="black" points="52.38,-201 52.38,-248.5 123.12,-248.5 123.12,-201 52.38,-201"/>
<text text-anchor="middle" x="87.75" y="-231.2" font-family="Times New Roman,serif" font-size="14.00">a:Variable</text>
<polyline fill="none" stroke="black" points="52.38,-224.75 123.12,-224.75"/>
<text text-anchor="middle" x="87.75" y="-207.45" font-family="Times New Roman,serif" font-size="14.00"> </text>
</g>
<!-- 2133909044872&#45;&gt;2133909044616 -->
<g id="edge6" class="edge">
<title>2133909044872&#45;&gt;2133909044616</title>
<path fill="none" stroke="black" d="M131.3,-293.02C127.65,-289.73 124.15,-286.29 121,-282.75 114.42,-275.35 108.49,-266.44 103.53,-257.89"/>
<polygon fill="black" stroke="black" points="131.33,-293.04 138.5,-293.81 140.54,-300.72 133.37,-299.95 131.33,-293.04"/>
<polygon fill="black" stroke="black" points="106.24,-256.56 98.34,-249.5 100.11,-259.94 106.24,-256.56"/>
<text text-anchor="middle" x="149.12" y="-269.45" font-family="Times New Roman,serif" font-size="14.00">parameter</text>
</g>
<!-- 2133909044040 -->
<g id="node8" class="node">
<title>2133909044040</title>
<polygon fill="aliceblue" stroke="black" points="145,-201 145,-248.5 228.5,-248.5 228.5,-201 145,-201"/>
<text text-anchor="middle" x="186.75" y="-231.2" font-family="Times New Roman,serif" font-size="14.00">:Application</text>
<polyline fill="none" stroke="black" points="145,-224.75 228.5,-224.75"/>
<text text-anchor="middle" x="186.75" y="-207.45" font-family="Times New Roman,serif" font-size="14.00"> </text>
</g>
<!-- 2133909044872&#45;&gt;2133909044040 -->
<g id="edge7" class="edge">
<title>2133909044872&#45;&gt;2133909044040</title>
<path fill="none" stroke="black" d="M179.68,-288.88C180.77,-279.17 181.95,-268.66 183.02,-259.05"/>
<polygon fill="black" stroke="black" points="179.68,-288.88 182.99,-295.29 178.35,-300.81 175.04,-294.4 179.68,-288.88"/>
<polygon fill="black" stroke="black" points="186.59,-259.62 184.23,-249.3 179.63,-258.84 186.59,-259.62"/>
<text text-anchor="middle" x="212.75" y="-269.45" font-family="Times New Roman,serif" font-size="14.00">expression</text>
</g>
<!-- 2133909044488 -->
<g id="node9" class="node">
<title>2133909044488</title>
<polygon fill="aliceblue" stroke="black" points="83.62,-100.75 83.62,-148.25 167.88,-148.25 167.88,-100.75 83.62,-100.75"/>
<text text-anchor="middle" x="125.75" y="-130.95" font-family="Times New Roman,serif" font-size="14.00">:Abstraction</text>
<polyline fill="none" stroke="black" points="83.62,-124.5 167.88,-124.5"/>
<text text-anchor="middle" x="125.75" y="-107.2" font-family="Times New Roman,serif" font-size="14.00"> </text>
</g>
<!-- 2133909044040&#45;&gt;2133909044488 -->
<g id="edge8" class="edge">
<title>2133909044040&#45;&gt;2133909044488</title>
<path fill="none" stroke="black" d="M166.25,-190.73C159.51,-179.87 152.04,-167.84 145.37,-157.1"/>
<polygon fill="black" stroke="black" points="166.1,-190.49 172.67,-193.48 172.43,-200.69 165.87,-197.7 166.1,-190.49"/>
<polygon fill="black" stroke="black" points="148,-155.7 139.75,-149.05 142.05,-159.39 148,-155.7"/>
<text text-anchor="middle" x="169.38" y="-169.2" font-family="Times New Roman,serif" font-size="14.00">left</text>
</g>
<!-- 2133909043848 -->
<g id="node12" class="node">
<title>2133909043848</title>
<polygon fill="aliceblue" stroke="black" points="190,-100.75 190,-148.25 273.5,-148.25 273.5,-100.75 190,-100.75"/>
<text text-anchor="middle" x="231.75" y="-130.95" font-family="Times New Roman,serif" font-size="14.00">:Application</text>
<polyline fill="none" stroke="black" points="190,-124.5 273.5,-124.5"/>
<text text-anchor="middle" x="231.75" y="-107.2" font-family="Times New Roman,serif" font-size="14.00"> </text>
</g>
<!-- 2133909044040&#45;&gt;2133909043848 -->
<g id="edge11" class="edge">
<title>2133909044040&#45;&gt;2133909043848</title>
<path fill="none" stroke="black" d="M202.26,-189.89C207.01,-179.52 212.22,-168.14 216.93,-157.87"/>
<polygon fill="black" stroke="black" points="202.33,-189.73 203.47,-196.85 197.34,-200.64 196.2,-193.52 202.33,-189.73"/>
<polygon fill="black" stroke="black" points="220.44,-159.6 221.42,-149.05 214.08,-156.68 220.44,-159.6"/>
<text text-anchor="middle" x="225.12" y="-169.2" font-family="Times New Roman,serif" font-size="14.00">right</text>
</g>
<!-- 2133909042120 -->
<g id="node10" class="node">
<title>2133909042120</title>
<polygon fill="aliceblue" stroke="black" points="0,-0.5 0,-48 71.5,-48 71.5,-0.5 0,-0.5"/>
<text text-anchor="middle" x="35.75" y="-30.7" font-family="Times New Roman,serif" font-size="14.00">x:Variable</text>
<polyline fill="none" stroke="black" points="0,-24.25 71.5,-24.25"/>
<text text-anchor="middle" x="35.75" y="-6.95" font-family="Times New Roman,serif" font-size="14.00"> </text>
</g>
<!-- 2133909044488&#45;&gt;2133909042120 -->
<g id="edge9" class="edge">
<title>2133909044488&#45;&gt;2133909042120</title>
<path fill="none" stroke="black" d="M78.97,-92.9C75.06,-89.52 71.34,-85.96 68,-82.25 61.37,-74.88 55.51,-65.92 50.68,-57.31"/>
<polygon fill="black" stroke="black" points="78.86,-92.81 86.04,-93.44 88.23,-100.31 81.05,-99.69 78.86,-92.81"/>
<polygon fill="black" stroke="black" points="53.43,-56.03 45.66,-48.83 47.25,-59.31 53.43,-56.03"/>
<text text-anchor="middle" x="96.12" y="-68.95" font-family="Times New Roman,serif" font-size="14.00">parameter</text>
</g>
<!-- 2133909043976 -->
<g id="node11" class="node">
<title>2133909043976</title>
<polygon fill="aliceblue" stroke="black" points="94,-0.5 94,-48 165.5,-48 165.5,-0.5 94,-0.5"/>
<text text-anchor="middle" x="129.75" y="-30.7" font-family="Times New Roman,serif" font-size="14.00">x:Variable</text>
<polyline fill="none" stroke="black" points="94,-24.25 165.5,-24.25"/>
<text text-anchor="middle" x="129.75" y="-6.95" font-family="Times New Roman,serif" font-size="14.00"> </text>
</g>
<!-- 2133909044488&#45;&gt;2133909043976 -->
<g id="edge10" class="edge">
<title>2133909044488&#45;&gt;2133909043976</title>
<path fill="none" stroke="black" d="M127.18,-88.38C127.58,-78.67 128,-68.16 128.39,-58.55"/>
<polygon fill="black" stroke="black" points="127.18,-88.31 130.94,-94.47 126.69,-100.3 122.94,-94.15 127.18,-88.31"/>
<polygon fill="black" stroke="black" points="131.92,-58.93 128.83,-48.8 124.93,-58.65 131.92,-58.93"/>
<text text-anchor="middle" x="158.75" y="-68.95" font-family="Times New Roman,serif" font-size="14.00">expression</text>
</g>
<!-- 2133909043784 -->
<g id="node13" class="node">
<title>2133909043784</title>
<polygon fill="aliceblue" stroke="black" points="194.12,-0.5 194.12,-48 263.38,-48 263.38,-0.5 194.12,-0.5"/>
<text text-anchor="middle" x="228.75" y="-30.7" font-family="Times New Roman,serif" font-size="14.00">f:Variable</text>
<polyline fill="none" stroke="black" points="194.12,-24.25 263.38,-24.25"/>
<text text-anchor="middle" x="228.75" y="-6.95" font-family="Times New Roman,serif" font-size="14.00"> </text>
</g>
<!-- 2133909043848&#45;&gt;2133909043784 -->
<g id="edge12" class="edge">
<title>2133909043848&#45;&gt;2133909043784</title>
<path fill="none" stroke="black" d="M230.68,-88.38C230.38,-78.67 230.06,-68.16 229.77,-58.55"/>
<polygon fill="black" stroke="black" points="230.68,-88.31 234.86,-94.19 231.04,-100.3 226.86,-94.43 230.68,-88.31"/>
<polygon fill="black" stroke="black" points="233.24,-58.68 229.44,-48.8 226.25,-58.9 233.24,-58.68"/>
<text text-anchor="middle" x="239.38" y="-68.95" font-family="Times New Roman,serif" font-size="14.00">left</text>
</g>
<!-- 2133909044232 -->
<g id="node14" class="node">
<title>2133909044232</title>
<polygon fill="aliceblue" stroke="black" points="285.38,-0.5 285.38,-48 356.12,-48 356.12,-0.5 285.38,-0.5"/>
<text text-anchor="middle" x="320.75" y="-30.7" font-family="Times New Roman,serif" font-size="14.00">a:Variable</text>
<polyline fill="none" stroke="black" points="285.38,-24.25 356.12,-24.25"/>
<text text-anchor="middle" x="320.75" y="-6.95" font-family="Times New Roman,serif" font-size="14.00"> </text>
</g>
<!-- 2133909043848&#45;&gt;2133909044232 -->
<g id="edge13" class="edge">
<title>2133909043848&#45;&gt;2133909044232</title>
<path fill="none" stroke="black" d="M260.54,-91.72C270.98,-80.19 282.74,-67.21 293.09,-55.79"/>
<polygon fill="black" stroke="black" points="260.61,-91.64 259.54,-98.78 252.55,-100.54 253.61,-93.41 260.61,-91.64"/>
<polygon fill="black" stroke="black" points="295.21,-58.56 299.33,-48.8 290.02,-53.86 295.21,-58.56"/>
<text text-anchor="middle" x="294.12" y="-68.95" font-family="Times New Roman,serif" font-size="14.00">right</text>
</g>
<!-- 2133909044744 -->
<g id="node16" class="node">
<title>2133909044744</title>
<polygon fill="aliceblue" stroke="black" points="241.38,-301.25 241.38,-348.75 312.12,-348.75 312.12,-301.25 241.38,-301.25"/>
<text text-anchor="middle" x="276.75" y="-331.45" font-family="Times New Roman,serif" font-size="14.00">a:Variable</text>
<polyline fill="none" stroke="black" points="241.38,-325 312.12,-325"/>
<text text-anchor="middle" x="276.75" y="-307.7" font-family="Times New Roman,serif" font-size="14.00"> </text>
</g>
<!-- 2133909044104&#45;&gt;2133909044744 -->
<g id="edge15" class="edge">
<title>2133909044104&#45;&gt;2133909044744</title>
<path fill="none" stroke="black" d="M277.39,-389.13C277.29,-379.42 277.19,-368.91 277.09,-359.3"/>
<polygon fill="black" stroke="black" points="277.39,-389.05 281.45,-395.01 277.51,-401.05 273.45,-395.1 277.39,-389.05"/>
<polygon fill="black" stroke="black" points="280.58,-359.51 276.98,-349.55 273.58,-359.58 280.58,-359.51"/>
<text text-anchor="middle" x="305.12" y="-369.7" font-family="Times New Roman,serif" font-size="14.00">parameter</text>
</g>
<!-- 2133909044296 -->
<g id="node17" class="node">
<title>2133909044296</title>
<polygon fill="aliceblue" stroke="black" points="334.62,-301.25 334.62,-348.75 418.88,-348.75 418.88,-301.25 334.62,-301.25"/>
<text text-anchor="middle" x="376.75" y="-331.45" font-family="Times New Roman,serif" font-size="14.00">:Abstraction</text>
<polyline fill="none" stroke="black" points="334.62,-325 418.88,-325"/>
<text text-anchor="middle" x="376.75" y="-307.7" font-family="Times New Roman,serif" font-size="14.00"> </text>
</g>
<!-- 2133909044104&#45;&gt;2133909044296 -->
<g id="edge16" class="edge">
<title>2133909044104&#45;&gt;2133909044296</title>
<path fill="none" stroke="black" d="M325.52,-393.89C329.83,-390.43 333.98,-386.78 337.75,-383 345.21,-375.52 352.16,-366.44 358.06,-357.74"/>
<polygon fill="black" stroke="black" points="325.58,-393.85 323.19,-400.65 316,-401.07 318.38,-394.26 325.58,-393.85"/>
<polygon fill="black" stroke="black" points="361.52,-359.84 364.03,-349.54 355.65,-356.03 361.52,-359.84"/>
<text text-anchor="middle" x="380.75" y="-369.7" font-family="Times New Roman,serif" font-size="14.00">expression</text>
</g>
<!-- 2133909045192 -->
<g id="node18" class="node">
<title>2133909045192</title>
<polygon fill="aliceblue" stroke="black" points="253.62,-201 253.62,-248.5 325.88,-248.5 325.88,-201 253.62,-201"/>
<text text-anchor="middle" x="289.75" y="-231.2" font-family="Times New Roman,serif" font-size="14.00">b:Variable</text>
<polyline fill="none" stroke="black" points="253.62,-224.75 325.88,-224.75"/>
<text text-anchor="middle" x="289.75" y="-207.45" font-family="Times New Roman,serif" font-size="14.00"> </text>
</g>
<!-- 2133909044296&#45;&gt;2133909045192 -->
<g id="edge17" class="edge">
<title>2133909044296&#45;&gt;2133909045192</title>
<path fill="none" stroke="black" d="M330.35,-293.14C326.65,-289.84 323.14,-286.37 320,-282.75 313.66,-275.45 308.16,-266.6 303.66,-258.08"/>
<polygon fill="black" stroke="black" points="330.47,-293.24 337.64,-293.95 339.75,-300.85 332.57,-300.13 330.47,-293.24"/>
<polygon fill="black" stroke="black" points="306.4,-256.73 298.83,-249.32 300.13,-259.84 306.4,-256.73"/>
<text text-anchor="middle" x="348.12" y="-269.45" font-family="Times New Roman,serif" font-size="14.00">parameter</text>
</g>
<!-- 2133909043272 -->
<g id="node19" class="node">
<title>2133909043272</title>
<polygon fill="aliceblue" stroke="black" points="348.38,-201 348.38,-248.5 419.12,-248.5 419.12,-201 348.38,-201"/>
<text text-anchor="middle" x="383.75" y="-231.2" font-family="Times New Roman,serif" font-size="14.00">a:Variable</text>
<polyline fill="none" stroke="black" points="348.38,-224.75 419.12,-224.75"/>
<text text-anchor="middle" x="383.75" y="-207.45" font-family="Times New Roman,serif" font-size="14.00"> </text>
</g>
<!-- 2133909044296&#45;&gt;2133909043272 -->
<g id="edge18" class="edge">
<title>2133909044296&#45;&gt;2133909043272</title>
<path fill="none" stroke="black" d="M379.25,-288.88C379.94,-279.17 380.69,-268.66 381.38,-259.05"/>
<polygon fill="black" stroke="black" points="379.26,-288.84 382.82,-295.11 378.4,-300.81 374.84,-294.54 379.26,-288.84"/>
<polygon fill="black" stroke="black" points="384.92,-259.52 382.14,-249.3 377.94,-259.02 384.92,-259.52"/>
<text text-anchor="middle" x="409.75" y="-269.45" font-family="Times New Roman,serif" font-size="14.00">expression</text>
</g>
</g>
</svg>
