<?xml version="1.0" encoding="UTF-8" standalone="no"?>
<!DOCTYPE svg PUBLIC "-//W3C//DTD SVG 1.1//EN"
 "http://www.w3.org/Graphics/SVG/1.1/DTD/svg11.dtd">
<!-- Generated by graphviz version 8.0.5 (20230430.1635)
 -->
<!-- Title: textX Pages: 1 -->
<svg width="379pt" height="558pt"
 viewBox="0.00 0.00 379.12 557.75" xmlns="http://www.w3.org/2000/svg" xmlns:xlink="http://www.w3.org/1999/xlink">
<g id="graph0" class="graph" transform="scale(1 1) rotate(0) translate(4 553.75)">
<title>textX</title>
<polygon fill="white" stroke="none" points="-4,4 -4,-553.75 375.12,-553.75 375.12,4 -4,4"/>
<!-- 2133899132168 -->
<g id="node1" class="node">
<title>2133899132168</title>
<polygon fill="aliceblue" stroke="black" points="187.88,-501.75 187.88,-549.25 271.38,-549.25 271.38,-501.75 187.88,-501.75"/>
<text text-anchor="middle" x="229.62" y="-531.95" font-family="Times New Roman,serif" font-size="14.00">:Application</text>
<polyline fill="none" stroke="black" points="187.88,-525.5 271.38,-525.5"/>
<text text-anchor="middle" x="229.62" y="-508.2" font-family="Times New Roman,serif" font-size="14.00"> </text>
</g>
<!-- 2133908943368 -->
<g id="node2" class="node">
<title>2133908943368</title>
<polygon fill="aliceblue" stroke="black" points="135.88,-401.5 135.88,-449 219.38,-449 219.38,-401.5 135.88,-401.5"/>
<text text-anchor="middle" x="177.62" y="-431.7" font-family="Times New Roman,serif" font-size="14.00">:Application</text>
<polyline fill="none" stroke="black" points="135.88,-425.25 219.38,-425.25"/>
<text text-anchor="middle" x="177.62" y="-407.95" font-family="Times New Roman,serif" font-size="14.00"> </text>
</g>
<!-- 2133899132168&#45;&gt;2133908943368 -->
<g id="edge1" class="edge">
<title>2133899132168&#45;&gt;2133908943368</title>
<path fill="none" stroke="black" d="M211.93,-491.06C206.34,-480.5 200.18,-468.86 194.64,-458.4"/>
<polygon fill="black" stroke="black" points="211.79,-490.8 218.13,-494.23 217.4,-501.41 211.06,-497.98 211.79,-490.8"/>
<polygon fill="black" stroke="black" points="197.33,-457 189.56,-449.8 191.14,-460.27 197.33,-457"/>
<text text-anchor="middle" x="216.25" y="-469.95" font-family="Times New Roman,serif" font-size="14.00">left</text>
</g>
<!-- 2133908715784 -->
<g id="node13" class="node">
<title>2133908715784</title>
<polygon fill="aliceblue" stroke="black" points="241.12,-401.5 241.12,-449 320.12,-449 320.12,-401.5 241.12,-401.5"/>
<text text-anchor="middle" x="280.62" y="-431.7" font-family="Times New Roman,serif" font-size="14.00">p2:Variable</text>
<polyline fill="none" stroke="black" points="241.12,-425.25 320.12,-425.25"/>
<text text-anchor="middle" x="280.62" y="-407.95" font-family="Times New Roman,serif" font-size="14.00"> </text>
</g>
<!-- 2133899132168&#45;&gt;2133908715784 -->
<g id="edge12" class="edge">
<title>2133899132168&#45;&gt;2133908715784</title>
<path fill="none" stroke="black" d="M247.2,-490.64C252.64,-480.16 258.62,-468.65 263.99,-458.3"/>
<polygon fill="black" stroke="black" points="247.14,-490.75 247.93,-497.92 241.61,-501.41 240.83,-494.24 247.14,-490.75"/>
<polygon fill="black" stroke="black" points="267.42,-460.28 268.92,-449.8 261.21,-457.06 267.42,-460.28"/>
<text text-anchor="middle" x="271" y="-469.95" font-family="Times New Roman,serif" font-size="14.00">right</text>
</g>
<!-- 2133907916808 -->
<g id="node3" class="node">
<title>2133907916808</title>
<polygon fill="aliceblue" stroke="black" points="82.5,-301.25 82.5,-348.75 166.75,-348.75 166.75,-301.25 82.5,-301.25"/>
<text text-anchor="middle" x="124.62" y="-331.45" font-family="Times New Roman,serif" font-size="14.00">:Abstraction</text>
<polyline fill="none" stroke="black" points="82.5,-325 166.75,-325"/>
<text text-anchor="middle" x="124.62" y="-307.7" font-family="Times New Roman,serif" font-size="14.00"> </text>
</g>
<!-- 2133908943368&#45;&gt;2133907916808 -->
<g id="edge2" class="edge">
<title>2133908943368&#45;&gt;2133907916808</title>
<path fill="none" stroke="black" d="M159.59,-390.81C153.89,-380.25 147.61,-368.61 141.97,-358.15"/>
<polygon fill="black" stroke="black" points="159.47,-390.6 165.84,-393.98 165.17,-401.16 158.8,-397.78 159.47,-390.6"/>
<polygon fill="black" stroke="black" points="144.62,-356.69 136.79,-349.55 138.45,-360.01 144.62,-356.69"/>
<text text-anchor="middle" x="163.25" y="-369.7" font-family="Times New Roman,serif" font-size="14.00">left</text>
</g>
<!-- 2133910388232 -->
<g id="node6" class="node">
<title>2133910388232</title>
<polygon fill="aliceblue" stroke="black" points="188.88,-301.25 188.88,-348.75 272.38,-348.75 272.38,-301.25 188.88,-301.25"/>
<text text-anchor="middle" x="230.62" y="-331.45" font-family="Times New Roman,serif" font-size="14.00">:Application</text>
<polyline fill="none" stroke="black" points="188.88,-325 272.38,-325"/>
<text text-anchor="middle" x="230.62" y="-307.7" font-family="Times New Roman,serif" font-size="14.00"> </text>
</g>
<!-- 2133908943368&#45;&gt;2133910388232 -->
<g id="edge5" class="edge">
<title>2133908943368&#45;&gt;2133910388232</title>
<path fill="none" stroke="black" d="M195.66,-390.81C201.36,-380.25 207.64,-368.61 213.28,-358.15"/>
<polygon fill="black" stroke="black" points="195.78,-390.6 196.45,-397.78 190.08,-401.16 189.41,-393.98 195.78,-390.6"/>
<polygon fill="black" stroke="black" points="216.8,-360.01 218.46,-349.55 210.63,-356.69 216.8,-360.01"/>
<text text-anchor="middle" x="220" y="-369.7" font-family="Times New Roman,serif" font-size="14.00">right</text>
</g>
<!-- 2133911155400 -->
<g id="node4" class="node">
<title>2133911155400</title>
<polygon fill="aliceblue" stroke="black" points="0,-201 0,-248.5 69.25,-248.5 69.25,-201 0,-201"/>
<text text-anchor="middle" x="34.62" y="-231.2" font-family="Times New Roman,serif" font-size="14.00">f:Variable</text>
<polyline fill="none" stroke="black" points="0,-224.75 69.25,-224.75"/>
<text text-anchor="middle" x="34.62" y="-207.45" font-family="Times New Roman,serif" font-size="14.00"> </text>
</g>
<!-- 2133907916808&#45;&gt;2133911155400 -->
<g id="edge3" class="edge">
<title>2133907916808&#45;&gt;2133911155400</title>
<path fill="none" stroke="black" d="M76.81,-293.37C72.91,-290.01 69.19,-286.46 65.88,-282.75 59.38,-275.5 53.72,-266.66 49.06,-258.13"/>
<polygon fill="black" stroke="black" points="76.68,-293.27 83.87,-293.87 86.08,-300.73 78.89,-300.13 76.68,-293.27"/>
<polygon fill="black" stroke="black" points="51.74,-256.68 44.07,-249.37 45.51,-259.87 51.74,-256.68"/>
<text text-anchor="middle" x="94" y="-269.45" font-family="Times New Roman,serif" font-size="14.00">parameter</text>
</g>
<!-- 2133910487368 -->
<g id="node5" class="node">
<title>2133910487368</title>
<polygon fill="aliceblue" stroke="black" points="91,-201 91,-248.5 160.25,-248.5 160.25,-201 91,-201"/>
<text text-anchor="middle" x="125.62" y="-231.2" font-family="Times New Roman,serif" font-size="14.00">f:Variable</text>
<polyline fill="none" stroke="black" points="91,-224.75 160.25,-224.75"/>
<text text-anchor="middle" x="125.62" y="-207.45" font-family="Times New Roman,serif" font-size="14.00"> </text>
</g>
<!-- 2133907916808&#45;&gt;2133910487368 -->
<g id="edge4" class="edge">
<title>2133907916808&#45;&gt;2133910487368</title>
<path fill="none" stroke="black" d="M124.98,-288.88C125.08,-279.17 125.19,-268.66 125.29,-259.05"/>
<polygon fill="black" stroke="black" points="124.98,-288.8 128.92,-294.85 124.86,-300.8 120.92,-294.76 124.98,-288.8"/>
<polygon fill="black" stroke="black" points="128.79,-259.33 125.4,-249.3 121.79,-259.26 128.79,-259.33"/>
<text text-anchor="middle" x="155.62" y="-269.45" font-family="Times New Roman,serif" font-size="14.00">expression</text>
</g>
<!-- 2133908371912 -->
<g id="node7" class="node">
<title>2133908371912</title>
<polygon fill="aliceblue" stroke="black" points="185.5,-201 185.5,-248.5 269.75,-248.5 269.75,-201 185.5,-201"/>
<text text-anchor="middle" x="227.62" y="-231.2" font-family="Times New Roman,serif" font-size="14.00">:Abstraction</text>
<polyline fill="none" stroke="black" points="185.5,-224.75 269.75,-224.75"/>
<text text-anchor="middle" x="227.62" y="-207.45" font-family="Times New Roman,serif" font-size="14.00"> </text>
</g>
<!-- 2133910388232&#45;&gt;2133908371912 -->
<g id="edge6" class="edge">
<title>2133910388232&#45;&gt;2133908371912</title>
<path fill="none" stroke="black" d="M229.55,-288.88C229.26,-279.17 228.94,-268.66 228.64,-259.05"/>
<polygon fill="black" stroke="black" points="229.55,-288.81 233.73,-294.69 229.92,-300.8 225.74,-294.93 229.55,-288.81"/>
<polygon fill="black" stroke="black" points="232.12,-259.18 228.31,-249.3 225.12,-259.4 232.12,-259.18"/>
<text text-anchor="middle" x="238.25" y="-269.45" font-family="Times New Roman,serif" font-size="14.00">left</text>
</g>
<!-- 2133911269192 -->
<g id="node12" class="node">
<title>2133911269192</title>
<polygon fill="aliceblue" stroke="black" points="292.12,-201 292.12,-248.5 371.12,-248.5 371.12,-201 292.12,-201"/>
<text text-anchor="middle" x="331.62" y="-231.2" font-family="Times New Roman,serif" font-size="14.00">p1:Variable</text>
<polyline fill="none" stroke="black" points="292.12,-224.75 371.12,-224.75"/>
<text text-anchor="middle" x="331.62" y="-207.45" font-family="Times New Roman,serif" font-size="14.00"> </text>
</g>
<!-- 2133910388232&#45;&gt;2133911269192 -->
<g id="edge11" class="edge">
<title>2133910388232&#45;&gt;2133911269192</title>
<path fill="none" stroke="black" d="M263.12,-292.39C275.27,-280.57 289.01,-267.2 300.98,-255.56"/>
<polygon fill="black" stroke="black" points="263.04,-292.46 261.53,-299.51 254.44,-300.83 255.95,-293.78 263.04,-292.46"/>
<polygon fill="black" stroke="black" points="302.83,-258.67 307.56,-249.19 297.95,-253.65 302.83,-258.67"/>
<text text-anchor="middle" x="300" y="-269.45" font-family="Times New Roman,serif" font-size="14.00">right</text>
</g>
<!-- 2133911509064 -->
<g id="node8" class="node">
<title>2133911509064</title>
<polygon fill="aliceblue" stroke="black" points="146.88,-100.75 146.88,-148.25 218.38,-148.25 218.38,-100.75 146.88,-100.75"/>
<text text-anchor="middle" x="182.62" y="-130.95" font-family="Times New Roman,serif" font-size="14.00">g:Variable</text>
<polyline fill="none" stroke="black" points="146.88,-124.5 218.38,-124.5"/>
<text text-anchor="middle" x="182.62" y="-107.2" font-family="Times New Roman,serif" font-size="14.00"> </text>
</g>
<!-- 2133908371912&#45;&gt;2133911509064 -->
<g id="edge7" class="edge">
<title>2133908371912&#45;&gt;2133911509064</title>
<path fill="none" stroke="black" d="M196.7,-191.1C194.89,-188.31 193.25,-185.43 191.88,-182.5 188.43,-175.13 186.24,-166.71 184.85,-158.64"/>
<polygon fill="black" stroke="black" points="196.64,-191.02 203.43,-193.44 203.81,-200.64 197.02,-198.22 196.64,-191.02"/>
<polygon fill="black" stroke="black" points="188.22,-158.44 183.42,-148.99 181.29,-159.37 188.22,-158.44"/>
<text text-anchor="middle" x="220" y="-169.2" font-family="Times New Roman,serif" font-size="14.00">parameter</text>
</g>
<!-- 2133911110408 -->
<g id="node9" class="node">
<title>2133911110408</title>
<polygon fill="aliceblue" stroke="black" points="240.5,-100.75 240.5,-148.25 324.75,-148.25 324.75,-100.75 240.5,-100.75"/>
<text text-anchor="middle" x="282.62" y="-130.95" font-family="Times New Roman,serif" font-size="14.00">:Abstraction</text>
<polyline fill="none" stroke="black" points="240.5,-124.5 324.75,-124.5"/>
<text text-anchor="middle" x="282.62" y="-107.2" font-family="Times New Roman,serif" font-size="14.00"> </text>
</g>
<!-- 2133908371912&#45;&gt;2133911110408 -->
<g id="edge8" class="edge">
<title>2133908371912&#45;&gt;2133911110408</title>
<path fill="none" stroke="black" d="M246.35,-190.31C252.32,-179.64 258.9,-167.87 264.81,-157.32"/>
<polygon fill="black" stroke="black" points="246.41,-190.2 246.97,-197.39 240.55,-200.67 239.99,-193.48 246.41,-190.2"/>
<polygon fill="black" stroke="black" points="268.17,-159.48 270,-149.05 262.06,-156.06 268.17,-159.48"/>
<text text-anchor="middle" x="288.62" y="-169.2" font-family="Times New Roman,serif" font-size="14.00">expression</text>
</g>
<!-- 2133907913928 -->
<g id="node10" class="node">
<title>2133907913928</title>
<polygon fill="aliceblue" stroke="black" points="202.75,-0.5 202.75,-48 270.5,-48 270.5,-0.5 202.75,-0.5"/>
<text text-anchor="middle" x="236.62" y="-30.7" font-family="Times New Roman,serif" font-size="14.00">i:Variable</text>
<polyline fill="none" stroke="black" points="202.75,-24.25 270.5,-24.25"/>
<text text-anchor="middle" x="236.62" y="-6.95" font-family="Times New Roman,serif" font-size="14.00"> </text>
</g>
<!-- 2133911110408&#45;&gt;2133907913928 -->
<g id="edge9" class="edge">
<title>2133911110408&#45;&gt;2133907913928</title>
<path fill="none" stroke="black" d="M251.76,-90.83C249.93,-88.04 248.27,-85.17 246.88,-82.25 243.36,-74.89 241.04,-66.47 239.51,-58.4"/>
<polygon fill="black" stroke="black" points="251.7,-90.75 258.5,-93.16 258.89,-100.36 252.09,-97.95 251.7,-90.75"/>
<polygon fill="black" stroke="black" points="242.86,-58.11 237.89,-48.75 235.94,-59.17 242.86,-58.11"/>
<text text-anchor="middle" x="275" y="-68.95" font-family="Times New Roman,serif" font-size="14.00">parameter</text>
</g>
<!-- 2133907794312 -->
<g id="node11" class="node">
<title>2133907794312</title>
<polygon fill="aliceblue" stroke="black" points="292.88,-0.5 292.88,-48 364.38,-48 364.38,-0.5 292.88,-0.5"/>
<text text-anchor="middle" x="328.62" y="-30.7" font-family="Times New Roman,serif" font-size="14.00">g:Variable</text>
<polyline fill="none" stroke="black" points="292.88,-24.25 364.38,-24.25"/>
<text text-anchor="middle" x="328.62" y="-6.95" font-family="Times New Roman,serif" font-size="14.00"> </text>
</g>
<!-- 2133911110408&#45;&gt;2133907794312 -->
<g id="edge10" class="edge">
<title>2133911110408&#45;&gt;2133907794312</title>
<path fill="none" stroke="black" d="M299.33,-89.2C300.45,-86.85 301.56,-84.52 302.62,-82.25 306.37,-74.29 310.34,-65.67 314.02,-57.61"/>
<polygon fill="black" stroke="black" points="299.32,-89.23 300.32,-96.37 294.12,-100.04 293.11,-92.9 299.32,-89.23"/>
<polygon fill="black" stroke="black" points="317.54,-59.33 318.5,-48.78 311.17,-56.43 317.54,-59.33"/>
<text text-anchor="middle" x="340.62" y="-68.95" font-family="Times New Roman,serif" font-size="14.00">expression</text>
</g>
</g>
</svg>
