<?xml version="1.0" encoding="UTF-8" standalone="no"?>
<!DOCTYPE svg PUBLIC "-//W3C//DTD SVG 1.1//EN"
 "http://www.w3.org/Graphics/SVG/1.1/DTD/svg11.dtd">
<!-- Generated by graphviz version 8.0.5 (20230430.1635)
 -->
<!-- Title: textX Pages: 1 -->
<svg width="279pt" height="458pt"
 viewBox="0.00 0.00 279.25 457.50" xmlns="http://www.w3.org/2000/svg" xmlns:xlink="http://www.w3.org/1999/xlink">
<g id="graph0" class="graph" transform="scale(1 1) rotate(0) translate(4 453.5)">
<title>textX</title>
<polygon fill="white" stroke="none" points="-4,4 -4,-453.5 275.25,-453.5 275.25,4 -4,4"/>
<!-- 2133909192328 -->
<g id="node1" class="node">
<title>2133909192328</title>
<polygon fill="aliceblue" stroke="black" points="139,-401.5 139,-449 222.5,-449 222.5,-401.5 139,-401.5"/>
<text text-anchor="middle" x="180.75" y="-431.7" font-family="Times New Roman,serif" font-size="14.00">:Application</text>
<polyline fill="none" stroke="black" points="139,-425.25 222.5,-425.25"/>
<text text-anchor="middle" x="180.75" y="-407.95" font-family="Times New Roman,serif" font-size="14.00"> </text>
</g>
<!-- 2133910388232 -->
<g id="node2" class="node">
<title>2133910388232</title>
<polygon fill="aliceblue" stroke="black" points="87,-301.25 87,-348.75 170.5,-348.75 170.5,-301.25 87,-301.25"/>
<text text-anchor="middle" x="128.75" y="-331.45" font-family="Times New Roman,serif" font-size="14.00">:Application</text>
<polyline fill="none" stroke="black" points="87,-325 170.5,-325"/>
<text text-anchor="middle" x="128.75" y="-307.7" font-family="Times New Roman,serif" font-size="14.00"> </text>
</g>
<!-- 2133909192328&#45;&gt;2133910388232 -->
<g id="edge1" class="edge">
<title>2133909192328&#45;&gt;2133910388232</title>
<path fill="none" stroke="black" d="M163.05,-390.81C157.46,-380.25 151.3,-368.61 145.76,-358.15"/>
<polygon fill="black" stroke="black" points="162.92,-390.55 169.26,-393.98 168.53,-401.16 162.19,-397.73 162.92,-390.55"/>
<polygon fill="black" stroke="black" points="148.45,-356.75 140.68,-349.55 142.27,-360.02 148.45,-356.75"/>
<text text-anchor="middle" x="167.38" y="-369.7" font-family="Times New Roman,serif" font-size="14.00">left</text>
</g>
<!-- 2133910004552 -->
<g id="node9" class="node">
<title>2133910004552</title>
<polygon fill="aliceblue" stroke="black" points="192.25,-301.25 192.25,-348.75 271.25,-348.75 271.25,-301.25 192.25,-301.25"/>
<text text-anchor="middle" x="231.75" y="-331.45" font-family="Times New Roman,serif" font-size="14.00">p2:Variable</text>
<polyline fill="none" stroke="black" points="192.25,-325 271.25,-325"/>
<text text-anchor="middle" x="231.75" y="-307.7" font-family="Times New Roman,serif" font-size="14.00"> </text>
</g>
<!-- 2133909192328&#45;&gt;2133910004552 -->
<g id="edge8" class="edge">
<title>2133909192328&#45;&gt;2133910004552</title>
<path fill="none" stroke="black" d="M198.33,-390.39C203.77,-379.91 209.74,-368.4 215.11,-358.05"/>
<polygon fill="black" stroke="black" points="198.27,-390.5 199.05,-397.67 192.74,-401.16 191.95,-393.99 198.27,-390.5"/>
<polygon fill="black" stroke="black" points="218.55,-360.03 220.05,-349.55 212.33,-356.81 218.55,-360.03"/>
<text text-anchor="middle" x="222.12" y="-369.7" font-family="Times New Roman,serif" font-size="14.00">right</text>
</g>
<!-- 2133908371912 -->
<g id="node3" class="node">
<title>2133908371912</title>
<polygon fill="aliceblue" stroke="black" points="34.62,-201 34.62,-248.5 118.88,-248.5 118.88,-201 34.62,-201"/>
<text text-anchor="middle" x="76.75" y="-231.2" font-family="Times New Roman,serif" font-size="14.00">:Abstraction</text>
<polyline fill="none" stroke="black" points="34.62,-224.75 118.88,-224.75"/>
<text text-anchor="middle" x="76.75" y="-207.45" font-family="Times New Roman,serif" font-size="14.00"> </text>
</g>
<!-- 2133910388232&#45;&gt;2133908371912 -->
<g id="edge2" class="edge">
<title>2133910388232&#45;&gt;2133908371912</title>
<path fill="none" stroke="black" d="M111.05,-290.56C105.46,-280 99.3,-268.36 93.76,-257.9"/>
<polygon fill="black" stroke="black" points="110.92,-290.3 117.26,-293.73 116.53,-300.91 110.19,-297.48 110.92,-290.3"/>
<polygon fill="black" stroke="black" points="96.45,-256.5 88.68,-249.3 90.27,-259.77 96.45,-256.5"/>
<text text-anchor="middle" x="115.38" y="-269.45" font-family="Times New Roman,serif" font-size="14.00">left</text>
</g>
<!-- 2133911269192 -->
<g id="node8" class="node">
<title>2133911269192</title>
<polygon fill="aliceblue" stroke="black" points="141.25,-201 141.25,-248.5 220.25,-248.5 220.25,-201 141.25,-201"/>
<text text-anchor="middle" x="180.75" y="-231.2" font-family="Times New Roman,serif" font-size="14.00">p1:Variable</text>
<polyline fill="none" stroke="black" points="141.25,-224.75 220.25,-224.75"/>
<text text-anchor="middle" x="180.75" y="-207.45" font-family="Times New Roman,serif" font-size="14.00"> </text>
</g>
<!-- 2133910388232&#45;&gt;2133911269192 -->
<g id="edge7" class="edge">
<title>2133910388232&#45;&gt;2133911269192</title>
<path fill="none" stroke="black" d="M146.45,-290.56C152.04,-280 158.2,-268.36 163.74,-257.9"/>
<polygon fill="black" stroke="black" points="146.58,-290.3 147.31,-297.48 140.97,-300.91 140.24,-293.73 146.58,-290.3"/>
<polygon fill="black" stroke="black" points="167.23,-259.77 168.82,-249.3 161.05,-256.5 167.23,-259.77"/>
<text text-anchor="middle" x="171.12" y="-269.45" font-family="Times New Roman,serif" font-size="14.00">right</text>
</g>
<!-- 2133911509064 -->
<g id="node4" class="node">
<title>2133911509064</title>
<polygon fill="aliceblue" stroke="black" points="0,-100.75 0,-148.25 71.5,-148.25 71.5,-100.75 0,-100.75"/>
<text text-anchor="middle" x="35.75" y="-130.95" font-family="Times New Roman,serif" font-size="14.00">g:Variable</text>
<polyline fill="none" stroke="black" points="0,-124.5 71.5,-124.5"/>
<text text-anchor="middle" x="35.75" y="-107.2" font-family="Times New Roman,serif" font-size="14.00"> </text>
</g>
<!-- 2133908371912&#45;&gt;2133911509064 -->
<g id="edge3" class="edge">
<title>2133908371912&#45;&gt;2133911509064</title>
<path fill="none" stroke="black" d="M48.96,-190.29C47.48,-187.74 46.14,-185.13 45,-182.5 41.83,-175.18 39.74,-166.91 38.36,-158.99"/>
<polygon fill="black" stroke="black" points="48.96,-190.3 55.61,-193.08 55.61,-200.29 48.95,-197.51 48.96,-190.3"/>
<polygon fill="black" stroke="black" points="41.7,-158.56 36.85,-149.14 34.77,-159.53 41.7,-158.56"/>
<text text-anchor="middle" x="73.12" y="-169.2" font-family="Times New Roman,serif" font-size="14.00">parameter</text>
</g>
<!-- 2133911110408 -->
<g id="node5" class="node">
<title>2133911110408</title>
<polygon fill="aliceblue" stroke="black" points="93.62,-100.75 93.62,-148.25 177.88,-148.25 177.88,-100.75 93.62,-100.75"/>
<text text-anchor="middle" x="135.75" y="-130.95" font-family="Times New Roman,serif" font-size="14.00">:Abstraction</text>
<polyline fill="none" stroke="black" points="93.62,-124.5 177.88,-124.5"/>
<text text-anchor="middle" x="135.75" y="-107.2" font-family="Times New Roman,serif" font-size="14.00"> </text>
</g>
<!-- 2133908371912&#45;&gt;2133911110408 -->
<g id="edge4" class="edge">
<title>2133908371912&#45;&gt;2133911110408</title>
<path fill="none" stroke="black" d="M96.83,-190.31C103.24,-179.64 110.3,-167.87 116.64,-157.32"/>
<polygon fill="black" stroke="black" points="96.78,-190.4 97.12,-197.6 90.6,-200.68 90.26,-193.48 96.78,-190.4"/>
<polygon fill="black" stroke="black" points="120.06,-159.42 122.21,-149.05 114.06,-155.82 120.06,-159.42"/>
<text text-anchor="middle" x="140.75" y="-169.2" font-family="Times New Roman,serif" font-size="14.00">expression</text>
</g>
<!-- 2133907913928 -->
<g id="node6" class="node">
<title>2133907913928</title>
<polygon fill="aliceblue" stroke="black" points="55.88,-0.5 55.88,-48 123.62,-48 123.62,-0.5 55.88,-0.5"/>
<text text-anchor="middle" x="89.75" y="-30.7" font-family="Times New Roman,serif" font-size="14.00">i:Variable</text>
<polyline fill="none" stroke="black" points="55.88,-24.25 123.62,-24.25"/>
<text text-anchor="middle" x="89.75" y="-6.95" font-family="Times New Roman,serif" font-size="14.00"> </text>
</g>
<!-- 2133911110408&#45;&gt;2133907913928 -->
<g id="edge5" class="edge">
<title>2133911110408&#45;&gt;2133907913928</title>
<path fill="none" stroke="black" d="M104.88,-90.83C103.05,-88.04 101.4,-85.17 100,-82.25 96.48,-74.89 94.16,-66.47 92.64,-58.4"/>
<polygon fill="black" stroke="black" points="104.82,-90.75 111.62,-93.16 112.02,-100.36 105.22,-97.95 104.82,-90.75"/>
<polygon fill="black" stroke="black" points="95.98,-58.11 91.01,-48.75 89.06,-59.17 95.98,-58.11"/>
<text text-anchor="middle" x="128.12" y="-68.95" font-family="Times New Roman,serif" font-size="14.00">parameter</text>
</g>
<!-- 2133907794312 -->
<g id="node7" class="node">
<title>2133907794312</title>
<polygon fill="aliceblue" stroke="black" points="146,-0.5 146,-48 217.5,-48 217.5,-0.5 146,-0.5"/>
<text text-anchor="middle" x="181.75" y="-30.7" font-family="Times New Roman,serif" font-size="14.00">g:Variable</text>
<polyline fill="none" stroke="black" points="146,-24.25 217.5,-24.25"/>
<text text-anchor="middle" x="181.75" y="-6.95" font-family="Times New Roman,serif" font-size="14.00"> </text>
</g>
<!-- 2133911110408&#45;&gt;2133907794312 -->
<g id="edge6" class="edge">
<title>2133911110408&#45;&gt;2133907794312</title>
<path fill="none" stroke="black" d="M152.45,-89.2C153.58,-86.85 154.68,-84.52 155.75,-82.25 159.49,-74.29 163.47,-65.67 167.15,-57.61"/>
<polygon fill="black" stroke="black" points="152.44,-89.23 153.45,-96.37 147.24,-100.04 146.24,-92.9 152.44,-89.23"/>
<polygon fill="black" stroke="black" points="170.67,-59.33 171.62,-48.78 164.3,-56.43 170.67,-59.33"/>
<text text-anchor="middle" x="193.75" y="-68.95" font-family="Times New Roman,serif" font-size="14.00">expression</text>
</g>
</g>
</svg>
