<?xml version="1.0" encoding="UTF-8" standalone="no"?>
<!DOCTYPE svg PUBLIC "-//W3C//DTD SVG 1.1//EN"
 "http://www.w3.org/Graphics/SVG/1.1/DTD/svg11.dtd">
<!-- Generated by graphviz version 8.0.5 (20230430.1635)
 -->
<!-- Title: textX Pages: 1 -->
<svg width="381pt" height="758pt"
 viewBox="0.00 0.00 381.38 758.25" xmlns="http://www.w3.org/2000/svg" xmlns:xlink="http://www.w3.org/1999/xlink">
<g id="graph0" class="graph" transform="scale(1 1) rotate(0) translate(4 754.25)">
<title>textX</title>
<polygon fill="white" stroke="none" points="-4,4 -4,-754.25 377.38,-754.25 377.38,4 -4,4"/>
<!-- 2133899139336 -->
<g id="node1" class="node">
<title>2133899139336</title>
<polygon fill="aliceblue" stroke="black" points="191.62,-702.25 191.62,-749.75 275.12,-749.75 275.12,-702.25 191.62,-702.25"/>
<text text-anchor="middle" x="233.38" y="-732.45" font-family="Times New Roman,serif" font-size="14.00">:Application</text>
<polyline fill="none" stroke="black" points="191.62,-726 275.12,-726"/>
<text text-anchor="middle" x="233.38" y="-708.7" font-family="Times New Roman,serif" font-size="14.00"> </text>
</g>
<!-- 2133896839368 -->
<g id="node2" class="node">
<title>2133896839368</title>
<polygon fill="aliceblue" stroke="black" points="139.62,-602 139.62,-649.5 223.12,-649.5 223.12,-602 139.62,-602"/>
<text text-anchor="middle" x="181.38" y="-632.2" font-family="Times New Roman,serif" font-size="14.00">:Application</text>
<polyline fill="none" stroke="black" points="139.62,-625.75 223.12,-625.75"/>
<text text-anchor="middle" x="181.38" y="-608.45" font-family="Times New Roman,serif" font-size="14.00"> </text>
</g>
<!-- 2133899139336&#45;&gt;2133896839368 -->
<g id="edge1" class="edge">
<title>2133899139336&#45;&gt;2133896839368</title>
<path fill="none" stroke="black" d="M215.68,-691.56C210.09,-681 203.93,-669.36 198.39,-658.9"/>
<polygon fill="black" stroke="black" points="215.54,-691.3 221.88,-694.73 221.15,-701.91 214.81,-698.48 215.54,-691.3"/>
<polygon fill="black" stroke="black" points="201.08,-657.5 193.31,-650.3 194.89,-660.77 201.08,-657.5"/>
<text text-anchor="middle" x="220" y="-670.45" font-family="Times New Roman,serif" font-size="14.00">left</text>
</g>
<!-- 2133910198344 -->
<g id="node17" class="node">
<title>2133910198344</title>
<polygon fill="aliceblue" stroke="black" points="244.88,-602 244.88,-649.5 323.88,-649.5 323.88,-602 244.88,-602"/>
<text text-anchor="middle" x="284.38" y="-632.2" font-family="Times New Roman,serif" font-size="14.00">p2:Variable</text>
<polyline fill="none" stroke="black" points="244.88,-625.75 323.88,-625.75"/>
<text text-anchor="middle" x="284.38" y="-608.45" font-family="Times New Roman,serif" font-size="14.00"> </text>
</g>
<!-- 2133899139336&#45;&gt;2133910198344 -->
<g id="edge16" class="edge">
<title>2133899139336&#45;&gt;2133910198344</title>
<path fill="none" stroke="black" d="M250.95,-691.14C256.39,-680.66 262.37,-669.15 267.74,-658.8"/>
<polygon fill="black" stroke="black" points="250.89,-691.25 251.68,-698.42 245.36,-701.91 244.58,-694.74 250.89,-691.25"/>
<polygon fill="black" stroke="black" points="271.17,-660.78 272.67,-650.3 264.96,-657.56 271.17,-660.78"/>
<text text-anchor="middle" x="274.75" y="-670.45" font-family="Times New Roman,serif" font-size="14.00">right</text>
</g>
<!-- 2133899165320 -->
<g id="node3" class="node">
<title>2133899165320</title>
<polygon fill="aliceblue" stroke="black" points="87.25,-501.75 87.25,-549.25 171.5,-549.25 171.5,-501.75 87.25,-501.75"/>
<text text-anchor="middle" x="129.38" y="-531.95" font-family="Times New Roman,serif" font-size="14.00">:Abstraction</text>
<polyline fill="none" stroke="black" points="87.25,-525.5 171.5,-525.5"/>
<text text-anchor="middle" x="129.38" y="-508.2" font-family="Times New Roman,serif" font-size="14.00"> </text>
</g>
<!-- 2133896839368&#45;&gt;2133899165320 -->
<g id="edge2" class="edge">
<title>2133896839368&#45;&gt;2133899165320</title>
<path fill="none" stroke="black" d="M163.68,-591.31C158.09,-580.75 151.93,-569.11 146.39,-558.65"/>
<polygon fill="black" stroke="black" points="163.54,-591.05 169.88,-594.48 169.15,-601.66 162.81,-598.23 163.54,-591.05"/>
<polygon fill="black" stroke="black" points="149.08,-557.25 141.31,-550.05 142.89,-560.52 149.08,-557.25"/>
<text text-anchor="middle" x="168" y="-570.2" font-family="Times New Roman,serif" font-size="14.00">left</text>
</g>
<!-- 2133910986184 -->
<g id="node16" class="node">
<title>2133910986184</title>
<polygon fill="aliceblue" stroke="black" points="193.88,-501.75 193.88,-549.25 272.88,-549.25 272.88,-501.75 193.88,-501.75"/>
<text text-anchor="middle" x="233.38" y="-531.95" font-family="Times New Roman,serif" font-size="14.00">p1:Variable</text>
<polyline fill="none" stroke="black" points="193.88,-525.5 272.88,-525.5"/>
<text text-anchor="middle" x="233.38" y="-508.2" font-family="Times New Roman,serif" font-size="14.00"> </text>
</g>
<!-- 2133896839368&#45;&gt;2133910986184 -->
<g id="edge15" class="edge">
<title>2133896839368&#45;&gt;2133910986184</title>
<path fill="none" stroke="black" d="M199.07,-591.31C204.66,-580.75 210.82,-569.11 216.36,-558.65"/>
<polygon fill="black" stroke="black" points="199.21,-591.05 199.94,-598.23 193.6,-601.66 192.87,-594.48 199.21,-591.05"/>
<polygon fill="black" stroke="black" points="219.86,-560.52 221.44,-550.05 213.67,-557.25 219.86,-560.52"/>
<text text-anchor="middle" x="223.75" y="-570.2" font-family="Times New Roman,serif" font-size="14.00">right</text>
</g>
<!-- 2133908468808 -->
<g id="node4" class="node">
<title>2133908468808</title>
<polygon fill="aliceblue" stroke="black" points="52.62,-401.5 52.62,-449 124.12,-449 124.12,-401.5 52.62,-401.5"/>
<text text-anchor="middle" x="88.38" y="-431.7" font-family="Times New Roman,serif" font-size="14.00">c:Variable</text>
<polyline fill="none" stroke="black" points="52.62,-425.25 124.12,-425.25"/>
<text text-anchor="middle" x="88.38" y="-407.95" font-family="Times New Roman,serif" font-size="14.00"> </text>
</g>
<!-- 2133899165320&#45;&gt;2133908468808 -->
<g id="edge3" class="edge">
<title>2133899165320&#45;&gt;2133908468808</title>
<path fill="none" stroke="black" d="M101.58,-491.04C100.1,-488.49 98.76,-485.88 97.62,-483.25 94.46,-475.93 92.37,-467.66 90.99,-459.74"/>
<polygon fill="black" stroke="black" points="101.59,-491.05 108.24,-493.83 108.23,-501.04 101.58,-498.26 101.59,-491.05"/>
<polygon fill="black" stroke="black" points="94.32,-459.31 89.47,-449.89 87.39,-460.28 94.32,-459.31"/>
<text text-anchor="middle" x="125.75" y="-469.95" font-family="Times New Roman,serif" font-size="14.00">parameter</text>
</g>
<!-- 2133899235720 -->
<g id="node5" class="node">
<title>2133899235720</title>
<polygon fill="aliceblue" stroke="black" points="146.62,-401.5 146.62,-449 230.12,-449 230.12,-401.5 146.62,-401.5"/>
<text text-anchor="middle" x="188.38" y="-431.7" font-family="Times New Roman,serif" font-size="14.00">:Application</text>
<polyline fill="none" stroke="black" points="146.62,-425.25 230.12,-425.25"/>
<text text-anchor="middle" x="188.38" y="-407.95" font-family="Times New Roman,serif" font-size="14.00"> </text>
</g>
<!-- 2133899165320&#45;&gt;2133899235720 -->
<g id="edge4" class="edge">
<title>2133899165320&#45;&gt;2133899235720</title>
<path fill="none" stroke="black" d="M149.46,-491.06C155.86,-480.39 162.93,-468.62 169.26,-458.07"/>
<polygon fill="black" stroke="black" points="149.4,-491.15 149.75,-498.35 143.23,-501.43 142.89,-494.23 149.4,-491.15"/>
<polygon fill="black" stroke="black" points="172.69,-460.17 174.84,-449.8 166.69,-456.57 172.69,-460.17"/>
<text text-anchor="middle" x="193.38" y="-469.95" font-family="Times New Roman,serif" font-size="14.00">expression</text>
</g>
<!-- 2133907810632 -->
<g id="node6" class="node">
<title>2133907810632</title>
<polygon fill="aliceblue" stroke="black" points="85.25,-301.25 85.25,-348.75 169.5,-348.75 169.5,-301.25 85.25,-301.25"/>
<text text-anchor="middle" x="127.38" y="-331.45" font-family="Times New Roman,serif" font-size="14.00">:Abstraction</text>
<polyline fill="none" stroke="black" points="85.25,-325 169.5,-325"/>
<text text-anchor="middle" x="127.38" y="-307.7" font-family="Times New Roman,serif" font-size="14.00"> </text>
</g>
<!-- 2133899235720&#45;&gt;2133907810632 -->
<g id="edge5" class="edge">
<title>2133899235720&#45;&gt;2133907810632</title>
<path fill="none" stroke="black" d="M167.87,-391.23C161.13,-380.37 153.66,-368.34 146.99,-357.6"/>
<polygon fill="black" stroke="black" points="167.73,-390.99 174.29,-393.98 174.06,-401.19 167.49,-398.2 167.73,-390.99"/>
<polygon fill="black" stroke="black" points="149.62,-356.2 141.37,-349.55 143.67,-359.89 149.62,-356.2"/>
<text text-anchor="middle" x="171" y="-369.7" font-family="Times New Roman,serif" font-size="14.00">left</text>
</g>
<!-- 2133908800712 -->
<g id="node9" class="node">
<title>2133908800712</title>
<polygon fill="aliceblue" stroke="black" points="191.62,-301.25 191.62,-348.75 275.12,-348.75 275.12,-301.25 191.62,-301.25"/>
<text text-anchor="middle" x="233.38" y="-331.45" font-family="Times New Roman,serif" font-size="14.00">:Application</text>
<polyline fill="none" stroke="black" points="191.62,-325 275.12,-325"/>
<text text-anchor="middle" x="233.38" y="-307.7" font-family="Times New Roman,serif" font-size="14.00"> </text>
</g>
<!-- 2133899235720&#45;&gt;2133908800712 -->
<g id="edge8" class="edge">
<title>2133899235720&#45;&gt;2133908800712</title>
<path fill="none" stroke="black" d="M203.88,-390.39C208.63,-380.02 213.85,-368.64 218.55,-358.37"/>
<polygon fill="black" stroke="black" points="203.96,-390.23 205.1,-397.35 198.96,-401.14 197.82,-394.02 203.96,-390.23"/>
<polygon fill="black" stroke="black" points="222.07,-360.1 223.05,-349.55 215.7,-357.18 222.07,-360.1"/>
<text text-anchor="middle" x="226.75" y="-369.7" font-family="Times New Roman,serif" font-size="14.00">right</text>
</g>
<!-- 2133908172424 -->
<g id="node7" class="node">
<title>2133908172424</title>
<polygon fill="aliceblue" stroke="black" points="0,-201 0,-248.5 70.75,-248.5 70.75,-201 0,-201"/>
<text text-anchor="middle" x="35.38" y="-231.2" font-family="Times New Roman,serif" font-size="14.00">e:Variable</text>
<polyline fill="none" stroke="black" points="0,-224.75 70.75,-224.75"/>
<text text-anchor="middle" x="35.38" y="-207.45" font-family="Times New Roman,serif" font-size="14.00"> </text>
</g>
<!-- 2133907810632&#45;&gt;2133908172424 -->
<g id="edge6" class="edge">
<title>2133907810632&#45;&gt;2133908172424</title>
<path fill="none" stroke="black" d="M79.82,-293.41C75.84,-290.03 72.04,-286.46 68.62,-282.75 61.87,-275.4 55.85,-266.44 50.86,-257.83"/>
<polygon fill="black" stroke="black" points="79.83,-293.42 87.02,-293.98 89.27,-300.84 82.08,-300.27 79.83,-293.42"/>
<polygon fill="black" stroke="black" points="53.55,-256.44 45.68,-249.35 47.41,-259.8 53.55,-256.44"/>
<text text-anchor="middle" x="96.75" y="-269.45" font-family="Times New Roman,serif" font-size="14.00">parameter</text>
</g>
<!-- 2133899189704 -->
<g id="node8" class="node">
<title>2133899189704</title>
<polygon fill="aliceblue" stroke="black" points="93,-201 93,-248.5 163.75,-248.5 163.75,-201 93,-201"/>
<text text-anchor="middle" x="128.38" y="-231.2" font-family="Times New Roman,serif" font-size="14.00">e:Variable</text>
<polyline fill="none" stroke="black" points="93,-224.75 163.75,-224.75"/>
<text text-anchor="middle" x="128.38" y="-207.45" font-family="Times New Roman,serif" font-size="14.00"> </text>
</g>
<!-- 2133907810632&#45;&gt;2133899189704 -->
<g id="edge7" class="edge">
<title>2133907810632&#45;&gt;2133899189704</title>
<path fill="none" stroke="black" d="M127.73,-288.88C127.83,-279.17 127.94,-268.66 128.04,-259.05"/>
<polygon fill="black" stroke="black" points="127.73,-288.8 131.67,-294.85 127.61,-300.8 123.67,-294.76 127.73,-288.8"/>
<polygon fill="black" stroke="black" points="131.54,-259.33 128.15,-249.3 124.54,-259.26 131.54,-259.33"/>
<text text-anchor="middle" x="158.38" y="-269.45" font-family="Times New Roman,serif" font-size="14.00">expression</text>
</g>
<!-- 2133909044104 -->
<g id="node10" class="node">
<title>2133909044104</title>
<polygon fill="aliceblue" stroke="black" points="189.25,-201 189.25,-248.5 273.5,-248.5 273.5,-201 189.25,-201"/>
<text text-anchor="middle" x="231.38" y="-231.2" font-family="Times New Roman,serif" font-size="14.00">:Abstraction</text>
<polyline fill="none" stroke="black" points="189.25,-224.75 273.5,-224.75"/>
<text text-anchor="middle" x="231.38" y="-207.45" font-family="Times New Roman,serif" font-size="14.00"> </text>
</g>
<!-- 2133908800712&#45;&gt;2133909044104 -->
<g id="edge9" class="edge">
<title>2133908800712&#45;&gt;2133909044104</title>
<path fill="none" stroke="black" d="M232.66,-288.88C232.46,-279.17 232.25,-268.66 232.05,-259.05"/>
<polygon fill="black" stroke="black" points="232.66,-288.81 236.78,-294.72 232.9,-300.8 228.78,-294.89 232.66,-288.81"/>
<polygon fill="black" stroke="black" points="235.54,-259.22 231.83,-249.3 228.54,-259.37 235.54,-259.22"/>
<text text-anchor="middle" x="242" y="-269.45" font-family="Times New Roman,serif" font-size="14.00">left</text>
</g>
<!-- 2133908802888 -->
<g id="node15" class="node">
<title>2133908802888</title>
<polygon fill="aliceblue" stroke="black" points="295.62,-201 295.62,-248.5 367.12,-248.5 367.12,-201 295.62,-201"/>
<text text-anchor="middle" x="331.38" y="-231.2" font-family="Times New Roman,serif" font-size="14.00">c:Variable</text>
<polyline fill="none" stroke="black" points="295.62,-224.75 367.12,-224.75"/>
<text text-anchor="middle" x="331.38" y="-207.45" font-family="Times New Roman,serif" font-size="14.00"> </text>
</g>
<!-- 2133908800712&#45;&gt;2133908802888 -->
<g id="edge14" class="edge">
<title>2133908800712&#45;&gt;2133908802888</title>
<path fill="none" stroke="black" d="M264.66,-292.63C276.35,-280.92 289.58,-267.65 301.17,-256.03"/>
<polygon fill="black" stroke="black" points="264.72,-292.57 263.32,-299.64 256.25,-301.07 257.65,-293.99 264.72,-292.57"/>
<polygon fill="black" stroke="black" points="303.3,-258.85 307.89,-249.3 298.35,-253.9 303.3,-258.85"/>
<text text-anchor="middle" x="299.75" y="-269.45" font-family="Times New Roman,serif" font-size="14.00">right</text>
</g>
<!-- 2133909044744 -->
<g id="node11" class="node">
<title>2133909044744</title>
<polygon fill="aliceblue" stroke="black" points="150,-100.75 150,-148.25 220.75,-148.25 220.75,-100.75 150,-100.75"/>
<text text-anchor="middle" x="185.38" y="-130.95" font-family="Times New Roman,serif" font-size="14.00">a:Variable</text>
<polyline fill="none" stroke="black" points="150,-124.5 220.75,-124.5"/>
<text text-anchor="middle" x="185.38" y="-107.2" font-family="Times New Roman,serif" font-size="14.00"> </text>
</g>
<!-- 2133909044104&#45;&gt;2133909044744 -->
<g id="edge10" class="edge">
<title>2133909044104&#45;&gt;2133909044744</title>
<path fill="none" stroke="black" d="M199.24,-190.65C197.51,-188 195.95,-185.28 194.62,-182.5 191.13,-175.16 188.92,-166.74 187.53,-158.68"/>
<polygon fill="black" stroke="black" points="199.29,-190.71 206.1,-193.09 206.52,-200.29 199.71,-197.91 199.29,-190.71"/>
<polygon fill="black" stroke="black" points="190.9,-158.47 186.11,-149.02 183.96,-159.4 190.9,-158.47"/>
<text text-anchor="middle" x="222.75" y="-169.2" font-family="Times New Roman,serif" font-size="14.00">parameter</text>
</g>
<!-- 2133909044296 -->
<g id="node12" class="node">
<title>2133909044296</title>
<polygon fill="aliceblue" stroke="black" points="243.25,-100.75 243.25,-148.25 327.5,-148.25 327.5,-100.75 243.25,-100.75"/>
<text text-anchor="middle" x="285.38" y="-130.95" font-family="Times New Roman,serif" font-size="14.00">:Abstraction</text>
<polyline fill="none" stroke="black" points="243.25,-124.5 327.5,-124.5"/>
<text text-anchor="middle" x="285.38" y="-107.2" font-family="Times New Roman,serif" font-size="14.00"> </text>
</g>
<!-- 2133909044104&#45;&gt;2133909044296 -->
<g id="edge11" class="edge">
<title>2133909044104&#45;&gt;2133909044296</title>
<path fill="none" stroke="black" d="M249.76,-190.31C255.56,-179.75 261.95,-168.11 267.71,-157.65"/>
<polygon fill="black" stroke="black" points="249.84,-190.15 250.46,-197.33 244.06,-200.67 243.45,-193.48 249.84,-190.15"/>
<polygon fill="black" stroke="black" points="271.23,-159.5 272.98,-149.05 265.1,-156.12 271.23,-159.5"/>
<text text-anchor="middle" x="292.38" y="-169.2" font-family="Times New Roman,serif" font-size="14.00">expression</text>
</g>
<!-- 2133909045192 -->
<g id="node13" class="node">
<title>2133909045192</title>
<polygon fill="aliceblue" stroke="black" points="202.25,-0.5 202.25,-48 274.5,-48 274.5,-0.5 202.25,-0.5"/>
<text text-anchor="middle" x="238.38" y="-30.7" font-family="Times New Roman,serif" font-size="14.00">b:Variable</text>
<polyline fill="none" stroke="black" points="202.25,-24.25 274.5,-24.25"/>
<text text-anchor="middle" x="238.38" y="-6.95" font-family="Times New Roman,serif" font-size="14.00"> </text>
</g>
<!-- 2133909044296&#45;&gt;2133909045192 -->
<g id="edge12" class="edge">
<title>2133909044296&#45;&gt;2133909045192</title>
<path fill="none" stroke="black" d="M255.29,-90.42C253.56,-87.75 251.98,-85.02 250.62,-82.25 247.01,-74.88 244.46,-66.45 242.65,-58.38"/>
<polygon fill="black" stroke="black" points="255.36,-90.52 262.14,-92.99 262.47,-100.19 255.69,-97.72 255.36,-90.52"/>
<polygon fill="black" stroke="black" points="245.94,-57.91 240.63,-48.73 239.06,-59.21 245.94,-57.91"/>
<text text-anchor="middle" x="278.75" y="-68.95" font-family="Times New Roman,serif" font-size="14.00">parameter</text>
</g>
<!-- 2133909043272 -->
<g id="node14" class="node">
<title>2133909043272</title>
<polygon fill="aliceblue" stroke="black" points="297,-0.5 297,-48 367.75,-48 367.75,-0.5 297,-0.5"/>
<text text-anchor="middle" x="332.38" y="-30.7" font-family="Times New Roman,serif" font-size="14.00">a:Variable</text>
<polyline fill="none" stroke="black" points="297,-24.25 367.75,-24.25"/>
<text text-anchor="middle" x="332.38" y="-6.95" font-family="Times New Roman,serif" font-size="14.00"> </text>
</g>
<!-- 2133909044296&#45;&gt;2133909043272 -->
<g id="edge13" class="edge">
<title>2133909044296&#45;&gt;2133909043272</title>
<path fill="none" stroke="black" d="M302.96,-89.23C304.13,-86.87 305.28,-84.53 306.38,-82.25 310.2,-74.33 314.2,-65.72 317.88,-57.66"/>
<polygon fill="black" stroke="black" points="302.89,-89.36 303.78,-96.52 297.51,-100.09 296.63,-92.93 302.89,-89.36"/>
<polygon fill="black" stroke="black" points="321.4,-59.38 322.35,-48.82 315.03,-56.48 321.4,-59.38"/>
<text text-anchor="middle" x="343.38" y="-68.95" font-family="Times New Roman,serif" font-size="14.00">expression</text>
</g>
</g>
</svg>
